# MagicaVoxel @ Ephtracy

# group
o 

# material
mtllib Castle_angle_inner_1.mtl
usemtl palette

# normals
vn -1 0 0
vn 1 0 0
vn 0 0 1
vn 0 0 -1
vn 0 -1 0
vn 0 1 0

# texcoords
vt 0.201172 0.5
vt 0.302734 0.5
vt 0.603516 0.5
vt 0.978516 0.5
vt 0.990234 0.5

# verts
v -0.8 0 0.8
v -0.8 0 -0.8
v -0.8 0.1 0.8
v -0.8 0.1 -0.8
v -0.8 0.2 0.8
v -0.8 0.2 -0.8
v -0.2 0.2 0.8
v -0.2 0.2 0.2
v -0.2 0.6 0.8
v -0.2 0.6 0.7
v -0.2 0.6 0.6
v -0.2 0.6 0.5
v -0.2 0.6 0.4
v -0.2 0.6 0.3
v -0.2 0.7 0.7
v -0.2 0.7 0.6
v -0.2 0.7 0.5
v -0.2 0.7 0.4
v -0.2 0.7 0.3
v -0.2 0.7 0.2
v -0.1 0.2 0.2
v -0.1 0.2 0.1
v -0.1 0.6 0.2
v -0.1 0.6 0.1
v 0 0.2 0.1
v 0 0.2 0
v 0 0.6 0.1
v 0 0.7 0.1
v 0 0.7 0
v 0.1 0.2 0.7
v 0.1 0.2 0.4
v 0.1 0.2 0
v 0.1 0.2 -0.1
v 0.1 0.4 0.7
v 0.1 0.4 0.4
v 0.1 0.5 0.8
v 0.1 0.5 0.4
v 0.1 0.6 0.8
v 0.1 0.6 0.7
v 0.1 0.6 0.6
v 0.1 0.6 0.5
v 0.1 0.6 0
v 0.1 0.6 -0.1
v 0.1 0.7 0.7
v 0.1 0.7 0.6
v 0.1 0.7 0.5
v 0.1 0.7 0.4
v 0.2 0.2 0.4
v 0.2 0.2 0.3
v 0.2 0.2 -0.1
v 0.2 0.2 -0.2
v 0.2 0.4 0.4
v 0.2 0.4 0.3
v 0.2 0.5 0.4
v 0.2 0.5 0.3
v 0.2 0.6 0.4
v 0.2 0.6 0.3
v 0.2 0.6 -0.1
v 0.2 0.7 -0.1
v 0.2 0.7 -0.2
v 0.3 0.2 0.3
v 0.3 0.2 0.2
v 0.3 0.4 0.3
v 0.3 0.4 0.2
v 0.3 0.5 0.3
v 0.3 0.5 0.2
v 0.3 0.6 0.3
v 0.3 0.6 0.2
v 0.4 0.2 0.2
v 0.4 0.2 0.1
v 0.4 0.4 0.2
v 0.4 0.4 0.1
v 0.4 0.5 0.2
v 0.4 0.5 0.1
v 0.4 0.6 0.2
v 0.4 0.6 -0.1
v 0.4 0.6 -0.2
v 0.4 0.7 0.2
v 0.4 0.7 0.1
v 0.4 0.7 -0.1
v 0.4 0.7 -0.2
v 0.5 0.2 0.6
v 0.5 0.2 0.5
v 0.5 0.3 0.6
v 0.5 0.3 0.5
v 0.6 0.6 0.2
v 0.6 0.6 0.1
v 0.6 0.6 -0.1
v 0.6 0.6 -0.2
v 0.6 0.7 0.2
v 0.6 0.7 0.1
v 0.6 0.7 -0.1
v 0.6 0.7 -0.2
v 0.7 0.2 0.1
v 0.7 0.2 -0.1
v 0.7 0.4 0.1
v 0.7 0.4 -0.1
v -0.1 0.2 0.7
v -0.1 0.2 0.2
v -0.1 0.4 0.7
v -0.1 0.4 0.2
v -0.1 0.5 0.8
v -0.1 0.5 0.2
v -0.1 0.6 0.8
v -0.1 0.6 0.7
v -0.1 0.6 0.6
v -0.1 0.6 0.5
v -0.1 0.6 0.4
v -0.1 0.6 0.3
v -0.1 0.6 0.2
v -0.1 0.7 0.7
v -0.1 0.7 0.6
v -0.1 0.7 0.5
v -0.1 0.7 0.4
v -0.1 0.7 0.3
v -0.1 0.7 0.2
v 0 0.2 0.2
v 0 0.2 0.1
v 0 0.4 0.2
v 0 0.4 0.1
v 0 0.5 0.2
v 0 0.5 0.1
v 0 0.6 0.2
v 0 0.6 0.1
v 0.1 0.2 0.1
v 0.1 0.2 0
v 0.1 0.4 0.1
v 0.1 0.4 0
v 0.1 0.5 0.1
v 0.1 0.5 0
v 0.1 0.6 0
v 0.1 0.7 0.1
v 0.1 0.7 0
v 0.2 0.2 0.8
v 0.2 0.2 0.4
v 0.2 0.2 0
v 0.2 0.2 -0.1
v 0.2 0.4 0
v 0.2 0.4 -0.1
v 0.2 0.5 0
v 0.2 0.5 -0.1
v 0.2 0.6 0.8
v 0.2 0.6 0.7
v 0.2 0.6 0.6
v 0.2 0.6 0.5
v 0.2 0.6 0.4
v 0.2 0.6 0
v 0.2 0.6 -0.1
v 0.2 0.7 0.7
v 0.2 0.7 0.6
v 0.2 0.7 0.5
v 0.2 0.7 0.4
v 0.3 0.2 0.4
v 0.3 0.2 0.3
v 0.3 0.6 0.4
v 0.3 0.6 0.3
v 0.3 0.6 -0.1
v 0.3 0.6 -0.2
v 0.3 0.7 -0.1
v 0.3 0.7 -0.2
v 0.4 0.2 0.3
v 0.4 0.2 0.2
v 0.4 0.6 0.3
v 0.4 0.6 0.2
v 0.5 0.6 0.2
v 0.5 0.6 0.1
v 0.5 0.6 -0.1
v 0.5 0.6 -0.2
v 0.5 0.7 0.2
v 0.5 0.7 0.1
v 0.5 0.7 -0.1
v 0.5 0.7 -0.2
v 0.6 0.2 0.6
v 0.6 0.2 0.5
v 0.6 0.3 0.6
v 0.6 0.3 0.5
v 0.7 0.6 0.2
v 0.7 0.6 0.1
v 0.7 0.6 -0.1
v 0.7 0.6 -0.2
v 0.7 0.7 0.2
v 0.7 0.7 0.1
v 0.7 0.7 -0.1
v 0.7 0.7 -0.2
v 0.8 0 0.8
v 0.8 0 -0.8
v 0.8 0.1 0.2
v 0.8 0.1 -0.2
v 0.8 0.1 -0.8
v 0.8 0.2 0.8
v 0.8 0.2 0.2
v 0.8 0.2 -0.2
v 0.8 0.2 -0.8
v 0.8 0.4 0.1
v 0.8 0.4 -0.1
v 0.8 0.5 0.1
v 0.8 0.5 -0.1
v 0.8 0.6 0.2
v 0.8 0.6 0.1
v 0.8 0.6 -0.1
v 0.8 0.6 -0.2
v -0.8 0 0.8
v -0.8 0.1 0.8
v -0.8 0.2 0.8
v -0.2 0.1 0.8
v -0.2 0.2 0.8
v -0.2 0.6 0.8
v -0.1 0.4 0.8
v -0.1 0.5 0.8
v -0.1 0.6 0.8
v 0.1 0.4 0.8
v 0.1 0.5 0.8
v 0.1 0.6 0.8
v 0.2 0.1 0.8
v 0.2 0.2 0.8
v 0.2 0.6 0.8
v 0.8 0 0.8
v 0.8 0.2 0.8
v -0.2 0.6 0.7
v -0.2 0.7 0.7
v -0.1 0.6 0.7
v -0.1 0.7 0.7
v 0.1 0.6 0.7
v 0.1 0.7 0.7
v 0.2 0.6 0.7
v 0.2 0.7 0.7
v 0.5 0.2 0.6
v 0.5 0.3 0.6
v 0.6 0.2 0.6
v 0.6 0.3 0.6
v -0.2 0.6 0.5
v -0.2 0.7 0.5
v -0.1 0.6 0.5
v -0.1 0.7 0.5
v 0.1 0.6 0.5
v 0.1 0.7 0.5
v 0.2 0.6 0.5
v 0.2 0.7 0.5
v 0.2 0.2 0.4
v 0.2 0.6 0.4
v 0.3 0.2 0.4
v 0.3 0.6 0.4
v -0.2 0.6 0.3
v -0.2 0.7 0.3
v -0.1 0.6 0.3
v -0.1 0.7 0.3
v 0.3 0.2 0.3
v 0.3 0.6 0.3
v 0.4 0.2 0.3
v 0.4 0.6 0.3
v -0.1 0.2 0.2
v -0.1 0.4 0.2
v -0.1 0.5 0.2
v -0.1 0.6 0.2
v 0 0.2 0.2
v 0 0.4 0.2
v 0 0.5 0.2
v 0 0.6 0.2
v 0.4 0.2 0.2
v 0.4 0.6 0.2
v 0.4 0.7 0.2
v 0.5 0.6 0.2
v 0.5 0.7 0.2
v 0.6 0.6 0.2
v 0.6 0.7 0.2
v 0.7 0.6 0.2
v 0.7 0.7 0.2
v 0.8 0.2 0.2
v 0.8 0.6 0.2
v 0 0.2 0.1
v 0 0.4 0.1
v 0 0.5 0.1
v 0 0.6 0.1
v 0 0.7 0.1
v 0.1 0.2 0.1
v 0.1 0.4 0.1
v 0.1 0.5 0.1
v 0.1 0.7 0.1
v 0.1 0.2 0
v 0.1 0.4 0
v 0.1 0.5 0
v 0.1 0.6 0
v 0.2 0.2 0
v 0.2 0.4 0
v 0.2 0.5 0
v 0.2 0.6 0
v 0.2 0.2 -0.1
v 0.2 0.4 -0.1
v 0.2 0.5 -0.1
v 0.2 0.6 -0.1
v 0.2 0.7 -0.1
v 0.3 0.6 -0.1
v 0.3 0.7 -0.1
v 0.4 0.6 -0.1
v 0.4 0.7 -0.1
v 0.5 0.6 -0.1
v 0.5 0.7 -0.1
v 0.6 0.6 -0.1
v 0.6 0.7 -0.1
v 0.7 0.2 -0.1
v 0.7 0.4 -0.1
v 0.7 0.6 -0.1
v 0.7 0.7 -0.1
v 0.8 0.5 -0.1
v 0.8 0.6 -0.1
v -0.1 0.2 0.7
v -0.1 0.4 0.7
v 0.1 0.2 0.7
v 0.1 0.4 0.7
v -0.2 0.6 0.6
v -0.2 0.7 0.6
v -0.1 0.6 0.6
v -0.1 0.7 0.6
v 0.1 0.6 0.6
v 0.1 0.7 0.6
v 0.2 0.6 0.6
v 0.2 0.7 0.6
v 0.5 0.2 0.5
v 0.5 0.3 0.5
v 0.6 0.2 0.5
v 0.6 0.3 0.5
v -0.2 0.6 0.4
v -0.2 0.7 0.4
v -0.1 0.6 0.4
v -0.1 0.7 0.4
v 0.1 0.2 0.4
v 0.1 0.4 0.4
v 0.1 0.5 0.4
v 0.1 0.7 0.4
v 0.2 0.2 0.4
v 0.2 0.4 0.4
v 0.2 0.5 0.4
v 0.2 0.6 0.4
v 0.2 0.7 0.4
v 0.2 0.2 0.3
v 0.2 0.4 0.3
v 0.2 0.5 0.3
v 0.2 0.6 0.3
v 0.3 0.2 0.3
v 0.3 0.4 0.3
v 0.3 0.5 0.3
v 0.3 0.6 0.3
v -0.2 0.2 0.2
v -0.2 0.7 0.2
v -0.1 0.2 0.2
v -0.1 0.6 0.2
v -0.1 0.7 0.2
v 0.3 0.2 0.2
v 0.3 0.4 0.2
v 0.3 0.5 0.2
v 0.3 0.6 0.2
v 0.4 0.2 0.2
v 0.4 0.4 0.2
v 0.4 0.5 0.2
v 0.4 0.6 0.2
v -0.1 0.2 0.1
v -0.1 0.6 0.1
v 0 0.2 0.1
v 0 0.6 0.1
v 0.4 0.2 0.1
v 0.4 0.4 0.1
v 0.4 0.5 0.1
v 0.4 0.7 0.1
v 0.5 0.6 0.1
v 0.5 0.7 0.1
v 0.6 0.6 0.1
v 0.6 0.7 0.1
v 0.7 0.2 0.1
v 0.7 0.4 0.1
v 0.7 0.6 0.1
v 0.7 0.7 0.1
v 0.8 0.5 0.1
v 0.8 0.6 0.1
v 0 0.2 0
v 0 0.7 0
v 0.1 0.2 0
v 0.1 0.6 0
v 0.1 0.7 0
v 0.1 0.2 -0.1
v 0.1 0.6 -0.1
v 0.2 0.2 -0.1
v 0.2 0.6 -0.1
v 0.2 0.2 -0.2
v 0.2 0.7 -0.2
v 0.3 0.6 -0.2
v 0.3 0.7 -0.2
v 0.4 0.6 -0.2
v 0.4 0.7 -0.2
v 0.5 0.6 -0.2
v 0.5 0.7 -0.2
v 0.6 0.6 -0.2
v 0.6 0.7 -0.2
v 0.7 0.6 -0.2
v 0.7 0.7 -0.2
v 0.8 0.2 -0.2
v 0.8 0.6 -0.2
v -0.8 0 -0.8
v -0.8 0.1 -0.8
v -0.8 0.2 -0.8
v 0.8 0 -0.8
v 0.8 0.1 -0.8
v 0.8 0.2 -0.8
v -0.8 0 0.8
v 0.8 0 0.8
v -0.8 0 -0.8
v 0.8 0 -0.8
v -0.1 0.4 0.7
v 0.1 0.4 0.7
v 0.1 0.4 0.4
v 0.2 0.4 0.4
v 0.2 0.4 0.3
v 0.3 0.4 0.3
v -0.1 0.4 0.2
v 0 0.4 0.2
v 0.3 0.4 0.2
v 0.4 0.4 0.2
v 0 0.4 0.1
v 0.1 0.4 0.1
v 0.4 0.4 0.1
v 0.7 0.4 0.1
v 0.1 0.4 0
v 0.2 0.4 0
v 0.2 0.4 -0.1
v 0.7 0.4 -0.1
v -0.8 0.2 0.8
v -0.2 0.2 0.8
v 0.2 0.2 0.8
v 0.8 0.2 0.8
v -0.1 0.2 0.7
v 0.1 0.2 0.7
v 0.5 0.2 0.6
v 0.6 0.2 0.6
v 0.5 0.2 0.5
v 0.6 0.2 0.5
v 0.1 0.2 0.4
v 0.2 0.2 0.4
v 0.3 0.2 0.4
v 0.2 0.2 0.3
v 0.3 0.2 0.3
v 0.4 0.2 0.3
v -0.2 0.2 0.2
v -0.1 0.2 0.2
v 0 0.2 0.2
v 0.3 0.2 0.2
v 0.4 0.2 0.2
v 0.8 0.2 0.2
v -0.1 0.2 0.1
v 0 0.2 0.1
v 0.1 0.2 0.1
v 0.4 0.2 0.1
v 0.7 0.2 0.1
v 0 0.2 0
v 0.1 0.2 0
v 0.2 0.2 0
v 0.1 0.2 -0.1
v 0.2 0.2 -0.1
v 0.7 0.2 -0.1
v 0.2 0.2 -0.2
v 0.8 0.2 -0.2
v -0.8 0.2 -0.8
v 0.8 0.2 -0.8
v 0.5 0.3 0.6
v 0.6 0.3 0.6
v 0.5 0.3 0.5
v 0.6 0.3 0.5
v -0.1 0.5 0.8
v 0.1 0.5 0.8
v 0.1 0.5 0.4
v 0.2 0.5 0.4
v 0.2 0.5 0.3
v 0.3 0.5 0.3
v -0.1 0.5 0.2
v 0 0.5 0.2
v 0.3 0.5 0.2
v 0.4 0.5 0.2
v 0 0.5 0.1
v 0.1 0.5 0.1
v 0.4 0.5 0.1
v 0.8 0.5 0.1
v 0.1 0.5 0
v 0.2 0.5 0
v 0.2 0.5 -0.1
v 0.8 0.5 -0.1
v -0.2 0.6 0.8
v -0.1 0.6 0.8
v 0.1 0.6 0.8
v 0.2 0.6 0.8
v -0.2 0.6 0.7
v -0.1 0.6 0.7
v 0.1 0.6 0.7
v 0.2 0.6 0.7
v -0.2 0.6 0.6
v -0.1 0.6 0.6
v 0.1 0.6 0.6
v 0.2 0.6 0.6
v -0.2 0.6 0.5
v -0.1 0.6 0.5
v 0.1 0.6 0.5
v 0.2 0.6 0.5
v -0.2 0.6 0.4
v -0.1 0.6 0.4
v 0.2 0.6 0.4
v 0.3 0.6 0.4
v -0.2 0.6 0.3
v -0.1 0.6 0.3
v 0.2 0.6 0.3
v 0.3 0.6 0.3
v 0.4 0.6 0.3
v -0.1 0.6 0.2
v 0 0.6 0.2
v 0.3 0.6 0.2
v 0.4 0.6 0.2
v 0.5 0.6 0.2
v 0.6 0.6 0.2
v 0.7 0.6 0.2
v 0.8 0.6 0.2
v -0.1 0.6 0.1
v 0 0.6 0.1
v 0.5 0.6 0.1
v 0.6 0.6 0.1
v 0.7 0.6 0.1
v 0.8 0.6 0.1
v 0.1 0.6 0
v 0.2 0.6 0
v 0.1 0.6 -0.1
v 0.2 0.6 -0.1
v 0.3 0.6 -0.1
v 0.4 0.6 -0.1
v 0.5 0.6 -0.1
v 0.6 0.6 -0.1
v 0.7 0.6 -0.1
v 0.8 0.6 -0.1
v 0.3 0.6 -0.2
v 0.4 0.6 -0.2
v 0.5 0.6 -0.2
v 0.6 0.6 -0.2
v 0.7 0.6 -0.2
v 0.8 0.6 -0.2
v -0.2 0.7 0.7
v -0.1 0.7 0.7
v 0.1 0.7 0.7
v 0.2 0.7 0.7
v -0.2 0.7 0.6
v -0.1 0.7 0.6
v 0.1 0.7 0.6
v 0.2 0.7 0.6
v -0.2 0.7 0.5
v -0.1 0.7 0.5
v 0.1 0.7 0.5
v 0.2 0.7 0.5
v -0.2 0.7 0.4
v -0.1 0.7 0.4
v 0.1 0.7 0.4
v 0.2 0.7 0.4
v -0.2 0.7 0.3
v -0.1 0.7 0.3
v -0.2 0.7 0.2
v -0.1 0.7 0.2
v 0.4 0.7 0.2
v 0.5 0.7 0.2
v 0.6 0.7 0.2
v 0.7 0.7 0.2
v 0 0.7 0.1
v 0.1 0.7 0.1
v 0.4 0.7 0.1
v 0.5 0.7 0.1
v 0.6 0.7 0.1
v 0.7 0.7 0.1
v 0 0.7 0
v 0.1 0.7 0
v 0.2 0.7 -0.1
v 0.3 0.7 -0.1
v 0.4 0.7 -0.1
v 0.5 0.7 -0.1
v 0.6 0.7 -0.1
v 0.7 0.7 -0.1
v 0.2 0.7 -0.2
v 0.3 0.7 -0.2
v 0.4 0.7 -0.2
v 0.5 0.7 -0.2
v 0.6 0.7 -0.2
v 0.7 0.7 -0.2

# faces
f 3/2/1 2/2/1 1/2/1
f 4/2/1 2/2/1 3/2/1
f 5/1/1 4/1/1 3/1/1
f 6/1/1 4/1/1 5/1/1
f 9/5/1 8/5/1 7/5/1
f 10/5/1 8/5/1 9/5/1
f 11/5/1 8/5/1 10/5/1
f 12/5/1 8/5/1 11/5/1
f 13/5/1 8/5/1 12/5/1
f 14/5/1 8/5/1 13/5/1
f 15/5/1 11/5/1 10/5/1
f 16/5/1 11/5/1 15/5/1
f 17/5/1 13/5/1 12/5/1
f 18/5/1 13/5/1 17/5/1
f 19/5/1 8/5/1 14/5/1
f 20/5/1 8/5/1 19/5/1
f 23/5/1 22/5/1 21/5/1
f 24/5/1 22/5/1 23/5/1
f 27/5/1 26/5/1 25/5/1
f 28/5/1 26/5/1 27/5/1
f 29/5/1 26/5/1 28/5/1
f 34/5/1 31/5/1 30/5/1
f 35/5/1 31/5/1 34/5/1
f 38/5/1 37/5/1 36/5/1
f 39/5/1 37/5/1 38/5/1
f 40/5/1 37/5/1 39/5/1
f 41/5/1 37/5/1 40/5/1
f 42/5/1 33/5/1 32/5/1
f 43/5/1 33/5/1 42/5/1
f 44/5/1 40/5/1 39/5/1
f 45/5/1 40/5/1 44/5/1
f 46/5/1 37/5/1 41/5/1
f 47/5/1 37/5/1 46/5/1
f 52/5/1 49/5/1 48/5/1
f 53/5/1 49/5/1 52/5/1
f 56/5/1 55/5/1 54/5/1
f 57/5/1 55/5/1 56/5/1
f 58/5/1 51/5/1 50/5/1
f 59/5/1 51/5/1 58/5/1
f 60/5/1 51/5/1 59/5/1
f 63/5/1 62/5/1 61/5/1
f 64/5/1 62/5/1 63/5/1
f 67/5/1 66/5/1 65/5/1
f 68/5/1 66/5/1 67/5/1
f 71/5/1 70/5/1 69/5/1
f 72/5/1 70/5/1 71/5/1
f 75/5/1 74/5/1 73/5/1
f 78/5/1 74/5/1 75/5/1
f 79/5/1 74/5/1 78/5/1
f 80/5/1 77/5/1 76/5/1
f 81/5/1 77/5/1 80/5/1
f 84/3/1 83/3/1 82/3/1
f 85/3/1 83/3/1 84/3/1
f 90/5/1 87/5/1 86/5/1
f 91/5/1 87/5/1 90/5/1
f 92/5/1 89/5/1 88/5/1
f 93/5/1 89/5/1 92/5/1
f 96/5/1 95/5/1 94/5/1
f 97/5/1 95/5/1 96/5/1
f 98/5/2 99/5/2 100/5/2
f 100/5/2 99/5/2 101/5/2
f 102/5/2 103/5/2 104/5/2
f 104/5/2 103/5/2 105/5/2
f 105/5/2 103/5/2 106/5/2
f 106/5/2 103/5/2 107/5/2
f 107/5/2 103/5/2 108/5/2
f 108/5/2 103/5/2 109/5/2
f 109/5/2 103/5/2 110/5/2
f 105/5/2 106/5/2 111/5/2
f 111/5/2 106/5/2 112/5/2
f 107/5/2 108/5/2 113/5/2
f 113/5/2 108/5/2 114/5/2
f 109/5/2 110/5/2 115/5/2
f 115/5/2 110/5/2 116/5/2
f 117/5/2 118/5/2 119/5/2
f 119/5/2 118/5/2 120/5/2
f 121/5/2 122/5/2 123/5/2
f 123/5/2 122/5/2 124/5/2
f 125/5/2 126/5/2 127/5/2
f 127/5/2 126/5/2 128/5/2
f 129/5/2 130/5/2 131/5/2
f 129/5/2 131/5/2 132/5/2
f 132/5/2 131/5/2 133/5/2
f 136/5/2 137/5/2 138/5/2
f 138/5/2 137/5/2 139/5/2
f 134/5/2 135/5/2 142/5/2
f 142/5/2 135/5/2 143/5/2
f 143/5/2 135/5/2 144/5/2
f 144/5/2 135/5/2 145/5/2
f 145/5/2 135/5/2 146/5/2
f 140/5/2 141/5/2 147/5/2
f 147/5/2 141/5/2 148/5/2
f 143/5/2 144/5/2 149/5/2
f 149/5/2 144/5/2 150/5/2
f 145/5/2 146/5/2 151/5/2
f 151/5/2 146/5/2 152/5/2
f 153/5/2 154/5/2 155/5/2
f 155/5/2 154/5/2 156/5/2
f 157/5/2 158/5/2 159/5/2
f 159/5/2 158/5/2 160/5/2
f 161/5/2 162/5/2 163/5/2
f 163/5/2 162/5/2 164/5/2
f 165/5/2 166/5/2 169/5/2
f 169/5/2 166/5/2 170/5/2
f 167/5/2 168/5/2 171/5/2
f 171/5/2 168/5/2 172/5/2
f 173/3/2 174/3/2 175/3/2
f 175/3/2 174/3/2 176/3/2
f 177/5/2 178/5/2 181/5/2
f 181/5/2 178/5/2 182/5/2
f 179/5/2 180/5/2 183/5/2
f 183/5/2 180/5/2 184/5/2
f 185/2/2 186/2/2 187/2/2
f 187/2/2 186/2/2 188/2/2
f 188/2/2 186/2/2 189/2/2
f 185/2/2 187/2/2 190/2/2
f 187/5/2 188/5/2 191/5/2
f 190/2/2 187/2/2 191/2/2
f 188/1/2 189/1/2 192/1/2
f 191/5/2 188/5/2 192/5/2
f 192/1/2 189/1/2 193/1/2
f 191/5/2 192/5/2 194/5/2
f 194/5/2 192/5/2 195/5/2
f 191/5/2 194/5/2 196/5/2
f 194/4/2 195/4/2 196/4/2
f 195/5/2 192/5/2 197/5/2
f 196/4/2 195/4/2 197/4/2
f 191/5/2 196/5/2 198/5/2
f 198/5/2 196/5/2 199/5/2
f 197/5/2 192/5/2 200/5/2
f 200/5/2 192/5/2 201/5/2
f 205/2/3 203/2/3 202/2/3
f 205/1/3 204/1/3 203/1/3
f 206/1/3 204/1/3 205/1/3
f 208/5/3 206/5/3 205/5/3
f 208/5/3 207/5/3 206/5/3
f 209/5/3 207/5/3 208/5/3
f 210/5/3 207/5/3 209/5/3
f 211/5/3 208/5/3 205/5/3
f 211/4/3 209/4/3 208/4/3
f 212/4/3 209/4/3 211/4/3
f 214/2/3 205/2/3 202/2/3
f 214/5/3 213/5/3 212/5/3
f 214/5/3 212/5/3 211/5/3
f 214/5/3 211/5/3 205/5/3
f 215/5/3 213/5/3 214/5/3
f 216/5/3 213/5/3 215/5/3
f 217/2/3 214/2/3 202/2/3
f 217/2/3 215/2/3 214/2/3
f 218/2/3 215/2/3 217/2/3
f 221/5/3 220/5/3 219/5/3
f 222/5/3 220/5/3 221/5/3
f 225/5/3 224/5/3 223/5/3
f 226/5/3 224/5/3 225/5/3
f 229/3/3 228/3/3 227/3/3
f 230/3/3 228/3/3 229/3/3
f 233/5/3 232/5/3 231/5/3
f 234/5/3 232/5/3 233/5/3
f 237/5/3 236/5/3 235/5/3
f 238/5/3 236/5/3 237/5/3
f 241/5/3 240/5/3 239/5/3
f 242/5/3 240/5/3 241/5/3
f 245/5/3 244/5/3 243/5/3
f 246/5/3 244/5/3 245/5/3
f 249/5/3 248/5/3 247/5/3
f 250/5/3 248/5/3 249/5/3
f 255/5/3 252/5/3 251/5/3
f 256/5/3 252/5/3 255/5/3
f 257/5/3 254/5/3 253/5/3
f 258/5/3 254/5/3 257/5/3
f 262/5/3 260/5/3 259/5/3
f 262/5/3 261/5/3 260/5/3
f 263/5/3 261/5/3 262/5/3
f 264/5/3 262/5/3 259/5/3
f 266/5/3 264/5/3 259/5/3
f 266/5/3 265/5/3 264/5/3
f 267/5/3 265/5/3 266/5/3
f 268/5/3 266/5/3 259/5/3
f 269/5/3 266/5/3 268/5/3
f 275/5/3 271/5/3 270/5/3
f 276/5/3 271/5/3 275/5/3
f 277/5/3 274/5/3 273/5/3
f 277/5/3 273/5/3 272/5/3
f 278/5/3 274/5/3 277/5/3
f 283/5/3 280/5/3 279/5/3
f 284/5/3 280/5/3 283/5/3
f 285/5/3 282/5/3 281/5/3
f 286/5/3 282/5/3 285/5/3
f 292/5/3 290/5/3 289/5/3
f 292/5/3 291/5/3 290/5/3
f 293/5/3 291/5/3 292/5/3
f 294/5/3 292/5/3 289/5/3
f 296/5/3 294/5/3 289/5/3
f 296/5/3 295/5/3 294/5/3
f 297/5/3 295/5/3 296/5/3
f 298/5/3 296/5/3 289/5/3
f 300/5/3 288/5/3 287/5/3
f 301/5/3 288/5/3 300/5/3
f 302/5/3 299/5/3 298/5/3
f 302/5/3 298/5/3 289/5/3
f 303/5/3 299/5/3 302/5/3
f 304/5/3 302/5/3 289/5/3
f 305/5/3 302/5/3 304/5/3
f 306/5/4 307/5/4 308/5/4
f 308/5/4 307/5/4 309/5/4
f 310/5/4 311/5/4 312/5/4
f 312/5/4 311/5/4 313/5/4
f 314/5/4 315/5/4 316/5/4
f 316/5/4 315/5/4 317/5/4
f 318/3/4 319/3/4 320/3/4
f 320/3/4 319/3/4 321/3/4
f 322/5/4 323/5/4 324/5/4
f 324/5/4 323/5/4 325/5/4
f 326/5/4 327/5/4 330/5/4
f 330/5/4 327/5/4 331/5/4
f 328/5/4 329/5/4 332/5/4
f 332/5/4 329/5/4 333/5/4
f 333/5/4 329/5/4 334/5/4
f 335/5/4 336/5/4 339/5/4
f 339/5/4 336/5/4 340/5/4
f 337/5/4 338/5/4 341/5/4
f 341/5/4 338/5/4 342/5/4
f 343/5/4 344/5/4 345/5/4
f 345/5/4 344/5/4 346/5/4
f 346/5/4 344/5/4 347/5/4
f 348/5/4 349/5/4 352/5/4
f 352/5/4 349/5/4 353/5/4
f 350/5/4 351/5/4 354/5/4
f 354/5/4 351/5/4 355/5/4
f 356/5/4 357/5/4 358/5/4
f 358/5/4 357/5/4 359/5/4
f 362/5/4 363/5/4 364/5/4
f 364/5/4 363/5/4 365/5/4
f 362/5/4 364/5/4 366/5/4
f 360/5/4 361/5/4 368/5/4
f 368/5/4 361/5/4 369/5/4
f 366/5/4 367/5/4 370/5/4
f 362/5/4 366/5/4 370/5/4
f 370/5/4 367/5/4 371/5/4
f 362/5/4 370/5/4 372/5/4
f 372/5/4 370/5/4 373/5/4
f 374/5/4 375/5/4 376/5/4
f 376/5/4 375/5/4 377/5/4
f 377/5/4 375/5/4 378/5/4
f 379/5/4 380/5/4 381/5/4
f 381/5/4 380/5/4 382/5/4
f 383/5/4 384/5/4 385/5/4
f 385/5/4 384/5/4 386/5/4
f 383/5/4 385/5/4 387/5/4
f 383/5/4 387/5/4 389/5/4
f 387/5/4 388/5/4 389/5/4
f 389/5/4 388/5/4 390/5/4
f 383/5/4 389/5/4 391/5/4
f 383/5/4 391/5/4 393/5/4
f 391/5/4 392/5/4 393/5/4
f 393/5/4 392/5/4 394/5/4
f 383/5/4 393/5/4 395/5/4
f 395/5/4 393/5/4 396/5/4
f 397/2/4 398/2/4 400/2/4
f 398/1/4 399/1/4 401/1/4
f 400/2/4 398/2/4 401/2/4
f 401/1/4 399/1/4 402/1/4
f 405/2/5 404/2/5 403/2/5
f 406/2/5 404/2/5 405/2/5
f 409/4/5 408/4/5 407/4/5
f 411/4/5 410/4/5 409/4/5
f 413/4/5 409/4/5 407/4/5
f 413/4/5 412/4/5 411/4/5
f 413/4/5 411/4/5 409/4/5
f 414/4/5 412/4/5 413/4/5
f 415/4/5 412/4/5 414/4/5
f 417/4/5 416/4/5 415/4/5
f 417/4/5 415/4/5 414/4/5
f 418/4/5 416/4/5 417/4/5
f 419/4/5 416/4/5 418/4/5
f 421/4/5 420/4/5 419/4/5
f 421/4/5 419/4/5 418/4/5
f 422/4/5 420/4/5 421/4/5
f 423/4/5 420/4/5 422/4/5
f 424/4/5 420/4/5 423/4/5
f 427/2/6 428/2/6 431/2/6
f 431/2/6 428/2/6 432/2/6
f 427/2/6 431/2/6 433/2/6
f 432/2/6 428/2/6 434/2/6
f 429/2/6 430/2/6 435/2/6
f 433/2/6 434/2/6 436/2/6
f 427/2/6 433/2/6 436/2/6
f 436/2/6 434/2/6 437/2/6
f 435/2/6 436/2/6 438/2/6
f 437/2/6 434/2/6 439/2/6
f 439/2/6 434/2/6 440/2/6
f 425/1/6 426/1/6 441/1/6
f 429/2/6 435/2/6 442/2/6
f 435/2/6 438/2/6 442/2/6
f 438/2/6 439/2/6 442/2/6
f 442/2/6 439/2/6 443/2/6
f 443/2/6 439/2/6 444/2/6
f 440/2/6 434/2/6 445/2/6
f 434/2/6 428/2/6 446/2/6
f 445/2/6 434/2/6 446/2/6
f 441/1/6 442/1/6 447/1/6
f 443/2/6 444/2/6 448/2/6
f 444/2/6 445/2/6 448/2/6
f 448/2/6 445/2/6 449/2/6
f 449/2/6 445/2/6 450/2/6
f 447/1/6 448/1/6 452/1/6
f 450/2/6 451/2/6 453/2/6
f 449/2/6 450/2/6 453/2/6
f 453/2/6 451/2/6 454/2/6
f 452/1/6 453/1/6 455/1/6
f 454/2/6 451/2/6 456/2/6
f 456/2/6 451/2/6 457/2/6
f 455/1/6 456/1/6 458/1/6
f 441/1/6 447/1/6 460/1/6
f 458/1/6 459/1/6 460/1/6
f 455/1/6 458/1/6 460/1/6
f 425/1/6 441/1/6 460/1/6
f 452/1/6 455/1/6 460/1/6
f 447/1/6 452/1/6 460/1/6
f 460/1/6 459/1/6 461/1/6
f 462/3/6 463/3/6 464/3/6
f 464/3/6 463/3/6 465/3/6
f 466/4/6 467/4/6 468/4/6
f 468/4/6 469/4/6 470/4/6
f 466/4/6 468/4/6 472/4/6
f 470/4/6 471/4/6 472/4/6
f 468/4/6 470/4/6 472/4/6
f 472/4/6 471/4/6 473/4/6
f 473/4/6 471/4/6 474/4/6
f 474/4/6 475/4/6 476/4/6
f 473/4/6 474/4/6 476/4/6
f 476/4/6 475/4/6 477/4/6
f 477/4/6 475/4/6 478/4/6
f 478/4/6 479/4/6 480/4/6
f 477/4/6 478/4/6 480/4/6
f 480/4/6 479/4/6 481/4/6
f 481/4/6 479/4/6 482/4/6
f 482/4/6 479/4/6 483/4/6
f 484/5/6 485/5/6 488/5/6
f 488/5/6 485/5/6 489/5/6
f 486/5/6 487/5/6 490/5/6
f 490/5/6 487/5/6 491/5/6
f 492/5/6 493/5/6 496/5/6
f 496/5/6 493/5/6 497/5/6
f 494/5/6 495/5/6 498/5/6
f 498/5/6 495/5/6 499/5/6
f 500/5/6 501/5/6 504/5/6
f 504/5/6 501/5/6 505/5/6
f 502/5/6 503/5/6 506/5/6
f 506/5/6 503/5/6 507/5/6
f 507/5/6 508/5/6 511/5/6
f 511/5/6 508/5/6 512/5/6
f 509/5/6 510/5/6 517/5/6
f 517/5/6 510/5/6 518/5/6
f 513/5/6 514/5/6 519/5/6
f 519/5/6 514/5/6 520/5/6
f 515/5/6 516/5/6 521/5/6
f 521/5/6 516/5/6 522/5/6
f 523/5/6 524/5/6 525/5/6
f 525/5/6 524/5/6 526/5/6
f 527/5/6 528/5/6 533/5/6
f 533/5/6 528/5/6 534/5/6
f 529/5/6 530/5/6 535/5/6
f 535/5/6 530/5/6 536/5/6
f 531/5/6 532/5/6 537/5/6
f 537/5/6 532/5/6 538/5/6
f 539/5/6 540/5/6 543/5/6
f 543/5/6 540/5/6 544/5/6
f 541/5/6 542/5/6 545/5/6
f 545/5/6 542/5/6 546/5/6
f 547/5/6 548/5/6 551/5/6
f 551/5/6 548/5/6 552/5/6
f 549/5/6 550/5/6 553/5/6
f 553/5/6 550/5/6 554/5/6
f 555/5/6 556/5/6 557/5/6
f 557/5/6 556/5/6 558/5/6
f 559/5/6 560/5/6 565/5/6
f 565/5/6 560/5/6 566/5/6
f 561/5/6 562/5/6 567/5/6
f 567/5/6 562/5/6 568/5/6
f 563/5/6 564/5/6 569/5/6
f 569/5/6 564/5/6 570/5/6
f 571/5/6 572/5/6 577/5/6
f 577/5/6 572/5/6 578/5/6
f 573/5/6 574/5/6 579/5/6
f 579/5/6 574/5/6 580/5/6
f 575/5/6 576/5/6 581/5/6
f 581/5/6 576/5/6 582/5/6
