# MagicaVoxel @ Ephtracy

# group
o 

# material
mtllib Castle_field_2.mtl
usemtl palette

# normals
vn -1 0 0
vn 1 0 0
vn 0 0 1
vn 0 0 -1
vn 0 -1 0
vn 0 1 0

# texcoords
vt 0.0332031 0.5
vt 0.0449219 0.5
vt 0.0605469 0.5
vt 0.201172 0.5
vt 0.228516 0.5
vt 0.302734 0.5
vt 0.318359 0.5
vt 0.330078 0.5
vt 0.369141 0.5
vt 0.537109 0.5
vt 0.701172 0.5

# verts
v -0.8 0 0.8
v -0.8 0 -0.8
v -0.8 0.1 0.8
v -0.8 0.1 -0.8
v -0.8 0.2 0.8
v -0.8 0.2 -0.8
v -0.6 0.2 0.6
v -0.6 0.2 0.5
v -0.6 0.3 0.6
v -0.6 0.3 0.5
v -0.5 0.2 0.5
v -0.5 0.2 0.4
v -0.5 0.2 0
v -0.5 0.2 -0.2
v -0.5 0.2 -0.3
v -0.5 0.2 -0.5
v -0.5 0.3 0.5
v -0.5 0.3 0.4
v -0.5 0.3 -0.1
v -0.5 0.3 -0.2
v -0.5 0.3 -0.4
v -0.5 0.3 -0.5
v -0.5 0.4 0
v -0.5 0.4 -0.1
v -0.5 0.4 -0.2
v -0.5 0.4 -0.3
v -0.5 0.4 -0.4
v -0.5 0.4 -0.5
v -0.5 0.5 0
v -0.5 0.5 -0.1
v -0.5 0.5 -0.2
v -0.5 0.5 -0.3
v -0.5 0.5 -0.4
v -0.5 0.5 -0.5
v -0.4 0.2 0.1
v -0.4 0.2 0
v -0.4 0.2 -0.5
v -0.4 0.2 -0.6
v -0.4 0.3 0.1
v -0.4 0.3 0
v -0.4 0.3 -0.5
v -0.4 0.3 -0.6
v -0.4 0.4 0.1
v -0.4 0.4 0
v -0.4 0.4 -0.5
v -0.4 0.4 -0.6
v -0.4 0.5 0.1
v -0.4 0.5 0
v -0.4 0.5 -0.1
v -0.4 0.5 -0.2
v -0.4 0.5 -0.3
v -0.4 0.5 -0.4
v -0.4 0.5 -0.5
v -0.4 0.5 -0.6
v -0.4 0.6 0
v -0.4 0.6 -0.1
v -0.4 0.6 -0.2
v -0.4 0.6 -0.3
v -0.4 0.6 -0.4
v -0.4 0.6 -0.5
v -0.2 0.2 0
v -0.2 0.2 -0.2
v -0.2 0.2 -0.3
v -0.2 0.2 -0.5
v -0.2 0.3 0
v -0.2 0.3 -0.1
v -0.2 0.3 -0.2
v -0.2 0.3 -0.4
v -0.2 0.3 -0.5
v -0.2 0.4 0
v -0.2 0.4 -0.1
v -0.2 0.4 -0.2
v -0.2 0.4 -0.3
v -0.2 0.4 -0.4
v -0.2 0.4 -0.5
v -0.2 0.5 0
v -0.2 0.5 -0.1
v -0.2 0.5 -0.2
v -0.2 0.5 -0.3
v -0.2 0.5 -0.4
v -0.2 0.5 -0.5
v 0.5 0.2 0.5
v 0.5 0.2 0.4
v 0.5 0.4 0.5
v 0.5 0.4 0.4
v 0.5 0.5 0.5
v 0.5 0.5 0.4
v 0.6 0.2 0.3
v 0.6 0.2 0.2
v 0.6 0.2 -0.2
v 0.6 0.2 -0.3
v 0.6 0.3 0.2
v 0.6 0.3 -0.2
v 0.6 0.5 0.3
v 0.6 0.5 0.2
v 0.6 0.5 -0.2
v 0.6 0.5 -0.3
v -0.5 0.2 0.6
v -0.5 0.2 0.5
v -0.5 0.3 0.6
v -0.5 0.3 0.5
v -0.4 0.2 0.5
v -0.4 0.2 0.4
v -0.4 0.2 0
v -0.4 0.2 -0.2
v -0.4 0.2 -0.3
v -0.4 0.2 -0.5
v -0.4 0.3 0.5
v -0.4 0.3 0.4
v -0.4 0.3 0
v -0.4 0.3 -0.1
v -0.4 0.3 -0.2
v -0.4 0.3 -0.4
v -0.4 0.3 -0.5
v -0.4 0.4 0
v -0.4 0.4 -0.1
v -0.4 0.4 -0.2
v -0.4 0.4 -0.3
v -0.4 0.4 -0.4
v -0.4 0.4 -0.5
v -0.4 0.5 0
v -0.4 0.5 -0.1
v -0.4 0.5 -0.2
v -0.4 0.5 -0.3
v -0.4 0.5 -0.4
v -0.4 0.5 -0.5
v -0.2 0.2 0.1
v -0.2 0.2 0
v -0.2 0.2 -0.5
v -0.2 0.2 -0.6
v -0.2 0.3 0.1
v -0.2 0.3 0
v -0.2 0.3 -0.5
v -0.2 0.3 -0.6
v -0.2 0.4 0.1
v -0.2 0.4 0
v -0.2 0.4 -0.5
v -0.2 0.4 -0.6
v -0.2 0.5 0.1
v -0.2 0.5 0
v -0.2 0.5 -0.1
v -0.2 0.5 -0.2
v -0.2 0.5 -0.3
v -0.2 0.5 -0.4
v -0.2 0.5 -0.5
v -0.2 0.5 -0.6
v -0.2 0.6 0
v -0.2 0.6 -0.1
v -0.2 0.6 -0.2
v -0.2 0.6 -0.3
v -0.2 0.6 -0.4
v -0.2 0.6 -0.5
v -0.1 0.2 0
v -0.1 0.2 -0.2
v -0.1 0.2 -0.3
v -0.1 0.2 -0.5
v -0.1 0.3 -0.1
v -0.1 0.3 -0.2
v -0.1 0.3 -0.4
v -0.1 0.3 -0.5
v -0.1 0.4 0
v -0.1 0.4 -0.1
v -0.1 0.4 -0.2
v -0.1 0.4 -0.3
v -0.1 0.4 -0.4
v -0.1 0.4 -0.5
v -0.1 0.5 0
v -0.1 0.5 -0.1
v -0.1 0.5 -0.2
v -0.1 0.5 -0.3
v -0.1 0.5 -0.4
v -0.1 0.5 -0.5
v 0.6 0.2 0.5
v 0.6 0.2 0.4
v 0.6 0.4 0.5
v 0.6 0.4 0.4
v 0.6 0.5 0.5
v 0.6 0.5 0.4
v 0.7 0.2 0.3
v 0.7 0.2 0.2
v 0.7 0.2 -0.2
v 0.7 0.2 -0.3
v 0.7 0.3 0.2
v 0.7 0.3 -0.2
v 0.7 0.5 0.3
v 0.7 0.5 0.2
v 0.7 0.5 -0.2
v 0.7 0.5 -0.3
v 0.8 0 0.8
v 0.8 0 -0.8
v 0.8 0.1 0.8
v 0.8 0.1 -0.8
v 0.8 0.2 0.8
v 0.8 0.2 -0.8
v -0.8 0 0.8
v -0.8 0.1 0.8
v -0.8 0.2 0.8
v 0.8 0 0.8
v 0.8 0.1 0.8
v 0.8 0.2 0.8
v -0.6 0.2 0.6
v -0.6 0.3 0.6
v -0.5 0.2 0.6
v -0.5 0.3 0.6
v -0.5 0.2 0.5
v -0.5 0.3 0.5
v -0.4 0.2 0.5
v -0.4 0.3 0.5
v 0.5 0.2 0.5
v 0.5 0.4 0.5
v 0.5 0.5 0.5
v 0.6 0.2 0.5
v 0.6 0.4 0.5
v 0.6 0.5 0.5
v 0.6 0.2 0.3
v 0.6 0.5 0.3
v 0.7 0.2 0.3
v 0.7 0.5 0.3
v -0.4 0.2 0.1
v -0.4 0.3 0.1
v -0.4 0.4 0.1
v -0.4 0.5 0.1
v -0.2 0.2 0.1
v -0.2 0.3 0.1
v -0.2 0.4 0.1
v -0.2 0.5 0.1
v -0.5 0.2 0
v -0.5 0.4 0
v -0.5 0.5 0
v -0.4 0.2 0
v -0.4 0.3 0
v -0.4 0.4 0
v -0.4 0.5 0
v -0.4 0.6 0
v -0.2 0.2 0
v -0.2 0.3 0
v -0.2 0.4 0
v -0.2 0.5 0
v -0.2 0.6 0
v -0.1 0.2 0
v -0.1 0.4 0
v -0.1 0.5 0
v 0.6 0.2 -0.2
v 0.6 0.3 -0.2
v 0.7 0.2 -0.2
v 0.7 0.3 -0.2
v -0.5 0.2 -0.3
v -0.5 0.4 -0.3
v -0.4 0.2 -0.3
v -0.4 0.4 -0.3
v -0.2 0.2 -0.3
v -0.2 0.4 -0.3
v -0.1 0.2 -0.3
v -0.1 0.4 -0.3
v -0.4 0.2 -0.5
v -0.4 0.3 -0.5
v -0.4 0.4 -0.5
v -0.4 0.5 -0.5
v -0.2 0.2 -0.5
v -0.2 0.3 -0.5
v -0.2 0.4 -0.5
v -0.2 0.5 -0.5
v -0.6 0.2 0.5
v -0.6 0.3 0.5
v -0.5 0.2 0.5
v -0.5 0.3 0.5
v -0.5 0.2 0.4
v -0.5 0.3 0.4
v -0.4 0.2 0.4
v -0.4 0.3 0.4
v 0.5 0.2 0.4
v 0.5 0.4 0.4
v 0.5 0.5 0.4
v 0.6 0.2 0.4
v 0.6 0.4 0.4
v 0.6 0.5 0.4
v 0.6 0.2 0.2
v 0.6 0.3 0.2
v 0.7 0.2 0.2
v 0.7 0.3 0.2
v -0.4 0.2 0
v -0.4 0.3 0
v -0.4 0.4 0
v -0.4 0.5 0
v -0.2 0.2 0
v -0.2 0.3 0
v -0.2 0.4 0
v -0.2 0.5 0
v -0.5 0.3 -0.1
v -0.5 0.4 -0.1
v -0.4 0.3 -0.1
v -0.4 0.4 -0.1
v -0.2 0.3 -0.1
v -0.2 0.4 -0.1
v -0.1 0.3 -0.1
v -0.1 0.4 -0.1
v -0.5 0.2 -0.2
v -0.5 0.3 -0.2
v -0.4 0.2 -0.2
v -0.4 0.3 -0.2
v -0.2 0.2 -0.2
v -0.2 0.3 -0.2
v -0.1 0.2 -0.2
v -0.1 0.3 -0.2
v 0.6 0.2 -0.3
v 0.6 0.5 -0.3
v 0.7 0.2 -0.3
v 0.7 0.5 -0.3
v -0.5 0.3 -0.4
v -0.5 0.4 -0.4
v -0.4 0.3 -0.4
v -0.4 0.4 -0.4
v -0.2 0.3 -0.4
v -0.2 0.4 -0.4
v -0.1 0.3 -0.4
v -0.1 0.4 -0.4
v -0.5 0.2 -0.5
v -0.5 0.3 -0.5
v -0.5 0.4 -0.5
v -0.5 0.5 -0.5
v -0.4 0.2 -0.5
v -0.4 0.3 -0.5
v -0.4 0.4 -0.5
v -0.4 0.5 -0.5
v -0.4 0.6 -0.5
v -0.2 0.2 -0.5
v -0.2 0.3 -0.5
v -0.2 0.4 -0.5
v -0.2 0.5 -0.5
v -0.2 0.6 -0.5
v -0.1 0.2 -0.5
v -0.1 0.3 -0.5
v -0.1 0.4 -0.5
v -0.1 0.5 -0.5
v -0.4 0.2 -0.6
v -0.4 0.3 -0.6
v -0.4 0.4 -0.6
v -0.4 0.5 -0.6
v -0.2 0.2 -0.6
v -0.2 0.3 -0.6
v -0.2 0.4 -0.6
v -0.2 0.5 -0.6
v -0.8 0 -0.8
v -0.8 0.1 -0.8
v -0.8 0.2 -0.8
v 0.8 0 -0.8
v 0.8 0.1 -0.8
v 0.8 0.2 -0.8
v -0.8 0 0.8
v 0.8 0 0.8
v -0.8 0 -0.8
v 0.8 0 -0.8
v 0.6 0.3 0.2
v 0.7 0.3 0.2
v 0.6 0.3 -0.2
v 0.7 0.3 -0.2
v -0.4 0.4 0.1
v -0.2 0.4 0.1
v -0.4 0.4 0
v -0.2 0.4 0
v -0.5 0.4 -0.1
v -0.4 0.4 -0.1
v -0.2 0.4 -0.1
v -0.1 0.4 -0.1
v -0.5 0.4 -0.2
v -0.4 0.4 -0.2
v -0.2 0.4 -0.2
v -0.1 0.4 -0.2
v -0.5 0.4 -0.3
v -0.4 0.4 -0.3
v -0.2 0.4 -0.3
v -0.1 0.4 -0.3
v -0.5 0.4 -0.4
v -0.4 0.4 -0.4
v -0.2 0.4 -0.4
v -0.1 0.4 -0.4
v -0.5 0.4 -0.5
v -0.4 0.4 -0.5
v -0.2 0.4 -0.5
v -0.1 0.4 -0.5
v -0.4 0.4 -0.6
v -0.2 0.4 -0.6
v -0.4 0.5 0
v -0.2 0.5 0
v -0.4 0.5 -0.1
v -0.2 0.5 -0.1
v -0.4 0.5 -0.2
v -0.2 0.5 -0.2
v -0.4 0.5 -0.3
v -0.2 0.5 -0.3
v -0.4 0.5 -0.4
v -0.2 0.5 -0.4
v -0.4 0.5 -0.5
v -0.2 0.5 -0.5
v -0.8 0.2 0.8
v 0.8 0.2 0.8
v -0.6 0.2 0.6
v -0.5 0.2 0.6
v -0.6 0.2 0.5
v -0.5 0.2 0.5
v -0.4 0.2 0.5
v 0.5 0.2 0.5
v 0.6 0.2 0.5
v -0.5 0.2 0.4
v -0.4 0.2 0.4
v 0.1 0.2 0.4
v 0.2 0.2 0.4
v 0.3 0.2 0.4
v 0.4 0.2 0.4
v 0.5 0.2 0.4
v 0.6 0.2 0.4
v 0.1 0.2 0.3
v 0.2 0.2 0.3
v 0.5 0.2 0.3
v 0.6 0.2 0.3
v 0.7 0.2 0.3
v 0.2 0.2 0.2
v 0.3 0.2 0.2
v 0.4 0.2 0.2
v 0.5 0.2 0.2
v 0.6 0.2 0.2
v 0.7 0.2 0.2
v -0.4 0.2 0.1
v -0.2 0.2 0.1
v 0 0.2 0.1
v 0.1 0.2 0.1
v 0.2 0.2 0.1
v 0.3 0.2 0.1
v 0.4 0.2 0.1
v 0.5 0.2 0.1
v -0.5 0.2 0
v -0.4 0.2 0
v -0.2 0.2 0
v -0.1 0.2 0
v 0 0.2 0
v 0.1 0.2 0
v 0.3 0.2 0
v 0.4 0.2 0
v 0.5 0.2 0
v 0.6 0.2 0
v 0.1 0.2 -0.1
v 0.2 0.2 -0.1
v 0.5 0.2 -0.1
v 0.6 0.2 -0.1
v -0.5 0.2 -0.2
v -0.4 0.2 -0.2
v -0.2 0.2 -0.2
v -0.1 0.2 -0.2
v 0.1 0.2 -0.2
v 0.2 0.2 -0.2
v 0.3 0.2 -0.2
v 0.4 0.2 -0.2
v 0.5 0.2 -0.2
v 0.6 0.2 -0.2
v 0.7 0.2 -0.2
v -0.5 0.2 -0.3
v -0.4 0.2 -0.3
v -0.2 0.2 -0.3
v -0.1 0.2 -0.3
v 0.2 0.2 -0.3
v 0.3 0.2 -0.3
v 0.6 0.2 -0.3
v 0.7 0.2 -0.3
v 0.2 0.2 -0.4
v 0.3 0.2 -0.4
v 0.4 0.2 -0.4
v 0.5 0.2 -0.4
v -0.5 0.2 -0.5
v -0.4 0.2 -0.5
v -0.2 0.2 -0.5
v -0.1 0.2 -0.5
v 0.2 0.2 -0.5
v 0.3 0.2 -0.5
v 0.4 0.2 -0.5
v 0.5 0.2 -0.5
v -0.4 0.2 -0.6
v -0.2 0.2 -0.6
v 0.4 0.2 -0.6
v 0.5 0.2 -0.6
v -0.8 0.2 -0.8
v 0.8 0.2 -0.8
v -0.6 0.3 0.6
v -0.5 0.3 0.6
v -0.6 0.3 0.5
v -0.5 0.3 0.5
v -0.4 0.3 0.5
v -0.5 0.3 0.4
v -0.4 0.3 0.4
v -0.4 0.3 0.1
v -0.2 0.3 0.1
v -0.4 0.3 0
v -0.2 0.3 0
v -0.5 0.3 -0.1
v -0.4 0.3 -0.1
v -0.2 0.3 -0.1
v -0.1 0.3 -0.1
v -0.5 0.3 -0.2
v -0.4 0.3 -0.2
v -0.2 0.3 -0.2
v -0.1 0.3 -0.2
v -0.5 0.3 -0.4
v -0.4 0.3 -0.4
v -0.2 0.3 -0.4
v -0.1 0.3 -0.4
v -0.5 0.3 -0.5
v -0.4 0.3 -0.5
v -0.2 0.3 -0.5
v -0.1 0.3 -0.5
v -0.4 0.3 -0.6
v -0.2 0.3 -0.6
v 0.5 0.5 0.5
v 0.6 0.5 0.5
v 0.5 0.5 0.4
v 0.6 0.5 0.4
v 0.6 0.5 0.3
v 0.7 0.5 0.3
v 0.6 0.5 0.2
v 0.7 0.5 0.2
v -0.4 0.5 0.1
v -0.2 0.5 0.1
v -0.5 0.5 0
v -0.4 0.5 0
v -0.2 0.5 0
v -0.1 0.5 0
v -0.5 0.5 -0.1
v -0.4 0.5 -0.1
v -0.2 0.5 -0.1
v -0.1 0.5 -0.1
v -0.5 0.5 -0.2
v -0.4 0.5 -0.2
v -0.2 0.5 -0.2
v -0.1 0.5 -0.2
v 0.6 0.5 -0.2
v 0.7 0.5 -0.2
v -0.5 0.5 -0.3
v -0.4 0.5 -0.3
v -0.2 0.5 -0.3
v -0.1 0.5 -0.3
v 0.6 0.5 -0.3
v 0.7 0.5 -0.3
v -0.5 0.5 -0.4
v -0.4 0.5 -0.4
v -0.2 0.5 -0.4
v -0.1 0.5 -0.4
v -0.5 0.5 -0.5
v -0.4 0.5 -0.5
v -0.2 0.5 -0.5
v -0.1 0.5 -0.5
v -0.4 0.5 -0.6
v -0.2 0.5 -0.6
v -0.4 0.6 0
v -0.2 0.6 0
v -0.4 0.6 -0.1
v -0.2 0.6 -0.1
v -0.4 0.6 -0.2
v -0.2 0.6 -0.2
v -0.4 0.6 -0.3
v -0.2 0.6 -0.3
v -0.4 0.6 -0.4
v -0.2 0.6 -0.4
v -0.4 0.6 -0.5
v -0.2 0.6 -0.5

# faces
f 3/6/1 2/6/1 1/6/1
f 4/6/1 2/6/1 3/6/1
f 5/4/1 4/4/1 3/4/1
f 6/4/1 4/4/1 5/4/1
f 9/9/1 8/9/1 7/9/1
f 10/9/1 8/9/1 9/9/1
f 17/5/1 12/5/1 11/5/1
f 18/5/1 12/5/1 17/5/1
f 19/9/1 14/9/1 13/9/1
f 20/9/1 14/9/1 19/9/1
f 21/9/1 16/9/1 15/9/1
f 22/9/1 16/9/1 21/9/1
f 23/9/1 19/9/1 13/9/1
f 24/9/1 19/9/1 23/9/1
f 26/9/1 21/9/1 15/9/1
f 27/9/1 21/9/1 26/9/1
f 29/7/1 24/7/1 23/7/1
f 30/8/1 25/8/1 24/8/1
f 30/7/1 24/7/1 29/7/1
f 31/7/1 26/7/1 25/7/1
f 31/8/1 25/8/1 30/8/1
f 32/8/1 27/8/1 26/8/1
f 32/7/1 26/7/1 31/7/1
f 33/7/1 28/7/1 27/7/1
f 33/8/1 27/8/1 32/8/1
f 34/7/1 28/7/1 33/7/1
f 39/9/1 36/9/1 35/9/1
f 40/9/1 36/9/1 39/9/1
f 41/9/1 38/9/1 37/9/1
f 42/9/1 38/9/1 41/9/1
f 47/8/1 44/8/1 43/8/1
f 48/8/1 44/8/1 47/8/1
f 53/8/1 46/8/1 45/8/1
f 54/8/1 46/8/1 53/8/1
f 55/7/1 49/7/1 48/7/1
f 56/8/1 50/8/1 49/8/1
f 56/7/1 49/7/1 55/7/1
f 57/7/1 51/7/1 50/7/1
f 57/8/1 50/8/1 56/8/1
f 58/8/1 52/8/1 51/8/1
f 58/7/1 51/7/1 57/7/1
f 59/7/1 53/7/1 52/7/1
f 59/8/1 52/8/1 58/8/1
f 60/7/1 53/7/1 59/7/1
f 65/9/1 62/9/1 61/9/1
f 66/9/1 62/9/1 65/9/1
f 67/9/1 62/9/1 66/9/1
f 68/9/1 64/9/1 63/9/1
f 69/9/1 64/9/1 68/9/1
f 70/9/1 66/9/1 65/9/1
f 71/9/1 66/9/1 70/9/1
f 73/9/1 68/9/1 63/9/1
f 74/9/1 68/9/1 73/9/1
f 76/7/1 71/7/1 70/7/1
f 77/8/1 72/8/1 71/8/1
f 77/7/1 71/7/1 76/7/1
f 78/7/1 73/7/1 72/7/1
f 78/8/1 72/8/1 77/8/1
f 79/8/1 74/8/1 73/8/1
f 79/7/1 73/7/1 78/7/1
f 80/7/1 75/7/1 74/7/1
f 80/8/1 74/8/1 79/8/1
f 81/7/1 75/7/1 80/7/1
f 84/11/1 83/11/1 82/11/1
f 85/11/1 83/11/1 84/11/1
f 86/2/1 85/2/1 84/2/1
f 87/2/1 85/2/1 86/2/1
f 92/10/1 89/10/1 88/10/1
f 93/10/1 91/10/1 90/10/1
f 94/10/1 92/10/1 88/10/1
f 95/1/1 93/1/1 92/1/1
f 95/10/1 92/10/1 94/10/1
f 96/10/1 91/10/1 93/10/1
f 96/1/1 93/1/1 95/1/1
f 97/10/1 91/10/1 96/10/1
f 98/9/2 99/9/2 100/9/2
f 100/9/2 99/9/2 101/9/2
f 102/5/2 103/5/2 108/5/2
f 108/5/2 103/5/2 109/5/2
f 104/9/2 105/9/2 110/9/2
f 110/9/2 105/9/2 111/9/2
f 111/9/2 105/9/2 112/9/2
f 106/9/2 107/9/2 113/9/2
f 113/9/2 107/9/2 114/9/2
f 110/9/2 111/9/2 115/9/2
f 115/9/2 111/9/2 116/9/2
f 106/9/2 113/9/2 118/9/2
f 118/9/2 113/9/2 119/9/2
f 115/7/2 116/7/2 121/7/2
f 116/8/2 117/8/2 122/8/2
f 121/7/2 116/7/2 122/7/2
f 117/7/2 118/7/2 123/7/2
f 122/8/2 117/8/2 123/8/2
f 118/8/2 119/8/2 124/8/2
f 123/7/2 118/7/2 124/7/2
f 119/7/2 120/7/2 125/7/2
f 124/8/2 119/8/2 125/8/2
f 125/7/2 120/7/2 126/7/2
f 127/9/2 128/9/2 131/9/2
f 131/9/2 128/9/2 132/9/2
f 129/9/2 130/9/2 133/9/2
f 133/9/2 130/9/2 134/9/2
f 135/8/2 136/8/2 139/8/2
f 139/8/2 136/8/2 140/8/2
f 137/8/2 138/8/2 145/8/2
f 145/8/2 138/8/2 146/8/2
f 140/7/2 141/7/2 147/7/2
f 141/8/2 142/8/2 148/8/2
f 147/7/2 141/7/2 148/7/2
f 142/7/2 143/7/2 149/7/2
f 148/8/2 142/8/2 149/8/2
f 143/8/2 144/8/2 150/8/2
f 149/7/2 143/7/2 150/7/2
f 144/7/2 145/7/2 151/7/2
f 150/8/2 144/8/2 151/8/2
f 151/7/2 145/7/2 152/7/2
f 153/9/2 154/9/2 157/9/2
f 157/9/2 154/9/2 158/9/2
f 155/9/2 156/9/2 159/9/2
f 159/9/2 156/9/2 160/9/2
f 153/9/2 157/9/2 161/9/2
f 161/9/2 157/9/2 162/9/2
f 155/9/2 159/9/2 164/9/2
f 164/9/2 159/9/2 165/9/2
f 161/7/2 162/7/2 167/7/2
f 162/8/2 163/8/2 168/8/2
f 167/7/2 162/7/2 168/7/2
f 163/7/2 164/7/2 169/7/2
f 168/8/2 163/8/2 169/8/2
f 164/8/2 165/8/2 170/8/2
f 169/7/2 164/7/2 170/7/2
f 165/7/2 166/7/2 171/7/2
f 170/8/2 165/8/2 171/8/2
f 171/7/2 166/7/2 172/7/2
f 173/11/2 174/11/2 175/11/2
f 175/11/2 174/11/2 176/11/2
f 175/2/2 176/2/2 177/2/2
f 177/2/2 176/2/2 178/2/2
f 179/10/2 180/10/2 183/10/2
f 181/10/2 182/10/2 184/10/2
f 179/10/2 183/10/2 185/10/2
f 183/1/2 184/1/2 186/1/2
f 185/10/2 183/10/2 186/10/2
f 184/10/2 182/10/2 187/10/2
f 186/1/2 184/1/2 187/1/2
f 187/10/2 182/10/2 188/10/2
f 189/6/2 190/6/2 191/6/2
f 191/6/2 190/6/2 192/6/2
f 191/4/2 192/4/2 193/4/2
f 193/4/2 192/4/2 194/4/2
f 198/6/3 196/6/3 195/6/3
f 199/4/3 197/4/3 196/4/3
f 199/6/3 196/6/3 198/6/3
f 200/4/3 197/4/3 199/4/3
f 203/9/3 202/9/3 201/9/3
f 204/9/3 202/9/3 203/9/3
f 207/5/3 206/5/3 205/5/3
f 208/5/3 206/5/3 207/5/3
f 212/11/3 210/11/3 209/11/3
f 213/2/3 211/2/3 210/2/3
f 213/11/3 210/11/3 212/11/3
f 214/2/3 211/2/3 213/2/3
f 217/10/3 216/10/3 215/10/3
f 218/10/3 216/10/3 217/10/3
f 223/9/3 220/9/3 219/9/3
f 224/9/3 220/9/3 223/9/3
f 225/8/3 222/8/3 221/8/3
f 226/8/3 222/8/3 225/8/3
f 230/9/3 228/9/3 227/9/3
f 231/9/3 228/9/3 230/9/3
f 232/7/3 229/7/3 228/7/3
f 232/9/3 228/9/3 231/9/3
f 233/7/3 229/7/3 232/7/3
f 238/7/3 234/7/3 233/7/3
f 239/7/3 234/7/3 238/7/3
f 240/9/3 237/9/3 236/9/3
f 240/9/3 236/9/3 235/9/3
f 241/7/3 238/7/3 237/7/3
f 241/9/3 237/9/3 240/9/3
f 242/7/3 238/7/3 241/7/3
f 245/10/3 244/10/3 243/10/3
f 246/10/3 244/10/3 245/10/3
f 249/9/3 248/9/3 247/9/3
f 250/9/3 248/9/3 249/9/3
f 253/9/3 252/9/3 251/9/3
f 254/9/3 252/9/3 253/9/3
f 259/9/3 256/9/3 255/9/3
f 260/9/3 256/9/3 259/9/3
f 261/8/3 258/8/3 257/8/3
f 262/8/3 258/8/3 261/8/3
f 263/9/4 264/9/4 265/9/4
f 265/9/4 264/9/4 266/9/4
f 267/5/4 268/5/4 269/5/4
f 269/5/4 268/5/4 270/5/4
f 271/11/4 272/11/4 274/11/4
f 272/2/4 273/2/4 275/2/4
f 274/11/4 272/11/4 275/11/4
f 275/2/4 273/2/4 276/2/4
f 277/10/4 278/10/4 279/10/4
f 279/10/4 278/10/4 280/10/4
f 281/9/4 282/9/4 285/9/4
f 285/9/4 282/9/4 286/9/4
f 283/8/4 284/8/4 287/8/4
f 287/8/4 284/8/4 288/8/4
f 289/9/4 290/9/4 291/9/4
f 291/9/4 290/9/4 292/9/4
f 293/9/4 294/9/4 295/9/4
f 295/9/4 294/9/4 296/9/4
f 297/9/4 298/9/4 299/9/4
f 299/9/4 298/9/4 300/9/4
f 301/9/4 302/9/4 303/9/4
f 303/9/4 302/9/4 304/9/4
f 305/10/4 306/10/4 307/10/4
f 307/10/4 306/10/4 308/10/4
f 309/9/4 310/9/4 311/9/4
f 311/9/4 310/9/4 312/9/4
f 313/9/4 314/9/4 315/9/4
f 315/9/4 314/9/4 316/9/4
f 317/9/4 318/9/4 321/9/4
f 321/9/4 318/9/4 322/9/4
f 319/7/4 320/7/4 323/7/4
f 323/7/4 320/7/4 324/7/4
f 324/7/4 325/7/4 329/7/4
f 329/7/4 325/7/4 330/7/4
f 326/9/4 327/9/4 331/9/4
f 331/9/4 327/9/4 332/9/4
f 328/7/4 329/7/4 333/7/4
f 333/7/4 329/7/4 334/7/4
f 335/9/4 336/9/4 339/9/4
f 339/9/4 336/9/4 340/9/4
f 337/8/4 338/8/4 341/8/4
f 341/8/4 338/8/4 342/8/4
f 343/6/4 344/6/4 346/6/4
f 344/4/4 345/4/4 347/4/4
f 346/6/4 344/6/4 347/6/4
f 347/4/4 345/4/4 348/4/4
f 351/6/5 350/6/5 349/6/5
f 352/6/5 350/6/5 351/6/5
f 355/1/5 354/1/5 353/1/5
f 356/1/5 354/1/5 355/1/5
f 359/8/5 358/8/5 357/8/5
f 360/8/5 358/8/5 359/8/5
f 365/8/5 362/8/5 361/8/5
f 366/8/5 362/8/5 365/8/5
f 367/8/5 364/8/5 363/8/5
f 368/8/5 364/8/5 367/8/5
f 369/7/5 366/7/5 365/7/5
f 370/7/5 366/7/5 369/7/5
f 371/7/5 368/7/5 367/7/5
f 372/7/5 368/7/5 371/7/5
f 377/7/5 374/7/5 373/7/5
f 378/7/5 374/7/5 377/7/5
f 379/7/5 376/7/5 375/7/5
f 380/7/5 376/7/5 379/7/5
f 381/8/5 379/8/5 378/8/5
f 382/8/5 379/8/5 381/8/5
f 385/7/5 384/7/5 383/7/5
f 386/7/5 384/7/5 385/7/5
f 387/8/5 386/8/5 385/8/5
f 388/8/5 386/8/5 387/8/5
f 389/7/5 388/7/5 387/7/5
f 390/7/5 388/7/5 389/7/5
f 391/8/5 390/8/5 389/8/5
f 392/8/5 390/8/5 391/8/5
f 393/7/5 392/7/5 391/7/5
f 394/7/5 392/7/5 393/7/5
f 395/4/6 396/4/6 397/4/6
f 397/4/6 396/4/6 398/4/6
f 395/4/6 397/4/6 399/4/6
f 398/4/6 396/4/6 400/4/6
f 400/4/6 396/4/6 401/4/6
f 401/4/6 396/4/6 402/4/6
f 402/4/6 396/4/6 403/4/6
f 399/4/6 400/4/6 404/4/6
f 401/4/6 402/4/6 405/4/6
f 405/4/6 402/4/6 406/4/6
f 406/4/6 402/4/6 407/4/6
f 407/4/6 402/4/6 408/4/6
f 408/4/6 402/4/6 409/4/6
f 409/4/6 402/4/6 410/4/6
f 403/4/6 396/4/6 411/4/6
f 404/4/6 405/4/6 412/4/6
f 405/4/6 406/4/6 412/4/6
f 406/3/6 407/3/6 412/3/6
f 407/4/6 408/4/6 413/4/6
f 412/3/6 407/3/6 413/3/6
f 409/4/6 410/4/6 414/4/6
f 410/4/6 411/4/6 414/4/6
f 411/4/6 396/4/6 415/4/6
f 414/4/6 411/4/6 415/4/6
f 415/4/6 396/4/6 416/4/6
f 413/4/6 408/4/6 417/4/6
f 412/4/6 413/4/6 417/4/6
f 408/3/6 409/3/6 418/3/6
f 417/4/6 408/4/6 418/4/6
f 409/4/6 414/4/6 419/4/6
f 418/3/6 409/3/6 419/3/6
f 414/3/6 415/3/6 420/3/6
f 419/4/6 414/4/6 420/4/6
f 420/3/6 415/3/6 421/3/6
f 416/4/6 396/4/6 422/4/6
f 404/4/6 412/4/6 423/4/6
f 412/4/6 417/4/6 423/4/6
f 423/4/6 417/4/6 424/4/6
f 424/4/6 417/4/6 425/4/6
f 425/4/6 417/4/6 426/4/6
f 417/3/6 418/3/6 427/3/6
f 426/4/6 417/4/6 427/4/6
f 420/4/6 421/4/6 428/4/6
f 427/3/6 418/3/6 428/3/6
f 418/4/6 419/4/6 428/4/6
f 421/4/6 422/4/6 428/4/6
f 419/4/6 420/4/6 428/4/6
f 428/4/6 422/4/6 429/4/6
f 429/4/6 422/4/6 430/4/6
f 399/4/6 404/4/6 431/4/6
f 404/4/6 423/4/6 431/4/6
f 431/4/6 423/4/6 432/4/6
f 424/4/6 425/4/6 433/4/6
f 433/4/6 425/4/6 434/4/6
f 425/3/6 426/3/6 435/3/6
f 434/4/6 425/4/6 435/4/6
f 426/4/6 427/4/6 436/4/6
f 435/3/6 426/3/6 436/3/6
f 428/4/6 429/4/6 436/4/6
f 427/4/6 428/4/6 436/4/6
f 436/4/6 429/4/6 437/4/6
f 429/3/6 430/3/6 438/3/6
f 437/4/6 429/4/6 438/4/6
f 430/4/6 422/4/6 439/4/6
f 438/3/6 430/3/6 439/3/6
f 439/4/6 422/4/6 440/4/6
f 434/4/6 435/4/6 441/4/6
f 436/4/6 437/4/6 441/4/6
f 435/4/6 436/4/6 441/4/6
f 441/4/6 437/4/6 442/4/6
f 439/3/6 440/3/6 443/3/6
f 438/4/6 439/4/6 443/4/6
f 440/4/6 422/4/6 444/4/6
f 443/3/6 440/3/6 444/3/6
f 399/4/6 431/4/6 445/4/6
f 432/4/6 433/4/6 446/4/6
f 446/4/6 433/4/6 447/4/6
f 434/4/6 441/4/6 448/4/6
f 441/3/6 442/3/6 449/3/6
f 448/4/6 441/4/6 449/4/6
f 442/4/6 437/4/6 450/4/6
f 449/3/6 442/3/6 450/3/6
f 437/3/6 438/3/6 451/3/6
f 450/4/6 437/4/6 451/4/6
f 438/4/6 443/4/6 452/4/6
f 451/3/6 438/3/6 452/3/6
f 443/4/6 444/4/6 452/4/6
f 452/4/6 444/4/6 453/4/6
f 444/4/6 422/4/6 454/4/6
f 453/4/6 444/4/6 454/4/6
f 422/4/6 396/4/6 455/4/6
f 454/4/6 422/4/6 455/4/6
f 449/4/6 450/4/6 456/4/6
f 448/4/6 449/4/6 456/4/6
f 447/4/6 448/4/6 456/4/6
f 445/4/6 446/4/6 456/4/6
f 399/4/6 445/4/6 456/4/6
f 446/4/6 447/4/6 456/4/6
f 456/4/6 450/4/6 457/4/6
f 457/4/6 450/4/6 458/4/6
f 458/4/6 450/4/6 459/4/6
f 450/3/6 451/3/6 460/3/6
f 459/4/6 450/4/6 460/4/6
f 451/4/6 452/4/6 461/4/6
f 460/3/6 451/3/6 461/3/6
f 453/4/6 454/4/6 462/4/6
f 455/4/6 396/4/6 463/4/6
f 459/4/6 460/4/6 464/4/6
f 460/4/6 461/4/6 464/4/6
f 461/4/6 452/4/6 465/4/6
f 464/4/6 461/4/6 465/4/6
f 452/3/6 453/3/6 466/3/6
f 465/4/6 452/4/6 466/4/6
f 462/4/6 463/4/6 467/4/6
f 466/3/6 453/3/6 467/3/6
f 453/4/6 462/4/6 467/4/6
f 399/4/6 456/4/6 468/4/6
f 457/4/6 458/4/6 469/4/6
f 469/4/6 458/4/6 470/4/6
f 459/4/6 464/4/6 471/4/6
f 464/3/6 465/3/6 472/3/6
f 471/4/6 464/4/6 472/4/6
f 465/4/6 466/4/6 473/4/6
f 472/3/6 465/3/6 473/3/6
f 466/4/6 467/4/6 473/4/6
f 473/4/6 467/4/6 474/4/6
f 467/4/6 463/4/6 475/4/6
f 474/4/6 467/4/6 475/4/6
f 468/4/6 469/4/6 476/4/6
f 471/4/6 472/4/6 477/4/6
f 470/4/6 471/4/6 477/4/6
f 472/4/6 473/4/6 477/4/6
f 473/4/6 474/4/6 477/4/6
f 474/3/6 475/3/6 478/3/6
f 477/4/6 474/4/6 478/4/6
f 475/4/6 463/4/6 479/4/6
f 478/3/6 475/3/6 479/3/6
f 395/4/6 399/4/6 480/4/6
f 468/4/6 476/4/6 480/4/6
f 478/4/6 479/4/6 480/4/6
f 399/4/6 468/4/6 480/4/6
f 476/4/6 477/4/6 480/4/6
f 477/4/6 478/4/6 480/4/6
f 479/4/6 463/4/6 481/4/6
f 480/4/6 479/4/6 481/4/6
f 463/4/6 396/4/6 481/4/6
f 482/9/6 483/9/6 484/9/6
f 484/9/6 483/9/6 485/9/6
f 485/5/6 486/5/6 487/5/6
f 487/5/6 486/5/6 488/5/6
f 489/9/6 490/9/6 491/9/6
f 491/9/6 490/9/6 492/9/6
f 493/9/6 494/9/6 497/9/6
f 497/9/6 494/9/6 498/9/6
f 495/9/6 496/9/6 499/9/6
f 499/9/6 496/9/6 500/9/6
f 501/9/6 502/9/6 505/9/6
f 505/9/6 502/9/6 506/9/6
f 503/9/6 504/9/6 507/9/6
f 507/9/6 504/9/6 508/9/6
f 506/9/6 507/9/6 509/9/6
f 509/9/6 507/9/6 510/9/6
f 511/2/6 512/2/6 513/2/6
f 513/2/6 512/2/6 514/2/6
f 515/10/6 516/10/6 517/10/6
f 517/10/6 516/10/6 518/10/6
f 519/8/6 520/8/6 522/8/6
f 522/8/6 520/8/6 523/8/6
f 521/7/6 522/7/6 525/7/6
f 525/7/6 522/7/6 526/7/6
f 523/7/6 524/7/6 527/7/6
f 527/7/6 524/7/6 528/7/6
f 525/8/6 526/8/6 529/8/6
f 529/8/6 526/8/6 530/8/6
f 527/8/6 528/8/6 531/8/6
f 531/8/6 528/8/6 532/8/6
f 517/1/6 518/1/6 533/1/6
f 533/1/6 518/1/6 534/1/6
f 529/7/6 530/7/6 535/7/6
f 535/7/6 530/7/6 536/7/6
f 531/7/6 532/7/6 537/7/6
f 537/7/6 532/7/6 538/7/6
f 533/10/6 534/10/6 539/10/6
f 539/10/6 534/10/6 540/10/6
f 535/8/6 536/8/6 541/8/6
f 541/8/6 536/8/6 542/8/6
f 537/8/6 538/8/6 543/8/6
f 543/8/6 538/8/6 544/8/6
f 541/7/6 542/7/6 545/7/6
f 545/7/6 542/7/6 546/7/6
f 543/7/6 544/7/6 547/7/6
f 547/7/6 544/7/6 548/7/6
f 546/8/6 547/8/6 549/8/6
f 549/8/6 547/8/6 550/8/6
f 551/7/6 552/7/6 553/7/6
f 553/7/6 552/7/6 554/7/6
f 553/8/6 554/8/6 555/8/6
f 555/8/6 554/8/6 556/8/6
f 555/7/6 556/7/6 557/7/6
f 557/7/6 556/7/6 558/7/6
f 557/8/6 558/8/6 559/8/6
f 559/8/6 558/8/6 560/8/6
f 559/7/6 560/7/6 561/7/6
f 561/7/6 560/7/6 562/7/6
