# MagicaVoxel @ Ephtracy

# group
o 

# material
mtllib Mountain_angle_1.mtl
usemtl palette

# normals
vn -1 0 0
vn 1 0 0
vn 0 0 1
vn 0 0 -1
vn 0 -1 0
vn 0 1 0

# texcoords
vt 0.185547 0.5
vt 0.302734 0.5
vt 0.708984 0.5
vt 0.744141 0.5
vt 0.958984 0.5
vt 0.978516 0.5

# verts
v -0.8 0 0.8
v -0.8 0 -0.8
v -0.8 0.2 0.8
v -0.8 0.2 -0.8
v -0.1 0.2 0.1
v -0.1 0.2 -0.8
v -0.1 0.5 0.1
v -0.1 0.5 0
v -0.1 0.6 -0.1
v -0.1 0.6 -0.2
v -0.1 0.6 -0.3
v -0.1 0.6 -0.4
v -0.1 0.7 0
v -0.1 0.7 -0.1
v -0.1 0.7 -0.2
v -0.1 0.7 -0.3
v -0.1 0.7 -0.4
v -0.1 0.7 -0.8
v 0 0.5 0.1
v 0 0.5 0
v 0 0.6 0.1
v 0 0.6 0
v 0 0.6 -0.1
v 0 0.6 -0.2
v 0 0.6 -0.3
v 0 0.6 -0.4
v 0 0.7 0
v 0 0.7 -0.1
v 0 0.7 -0.2
v 0 0.7 -0.3
v 0 0.7 -0.4
v 0 0.7 -0.8
v 0 1 0
v 0 1 -0.1
v 0 1.1 -0.1
v 0 1.1 -0.6
v 0 1.2 -0.6
v 0 1.2 -0.8
v 0.1 1 0
v 0.1 1 -0.1
v 0.1 1.1 0
v 0.1 1.1 -0.1
v 0.1 1.1 -0.6
v 0.1 1.2 -0.6
v 0.1 1.2 -0.8
v 0.1 1.4 -0.1
v 0.1 1.4 -0.2
v 0.1 1.5 -0.2
v 0.1 1.5 -0.3
v 0.1 1.6 -0.3
v 0.1 1.6 -0.5
v 0.1 1.7 -0.5
v 0.1 1.7 -0.8
v 0.2 1.4 -0.1
v 0.2 1.4 -0.2
v 0.2 1.5 -0.2
v 0.2 1.5 -0.3
v 0.2 1.6 -0.1
v 0.2 1.6 -0.2
v 0.2 1.6 -0.3
v 0.2 1.6 -0.5
v 0.2 1.7 -0.5
v 0.2 1.7 -0.8
v 0.2 1.8 -0.2
v 0.2 1.8 -0.3
v 0.2 2.1 -0.4
v 0.2 2.1 -0.6
v 0.2 2.2 -0.3
v 0.2 2.2 -0.4
v 0.2 2.2 -0.6
v 0.2 2.2 -0.8
v 0.3 0.6 0.1
v 0.3 0.6 0
v 0.3 0.7 0.1
v 0.3 0.7 0
v 0.3 1.1 0
v 0.3 1.1 -0.1
v 0.3 1.2 0
v 0.3 1.2 -0.1
v 0.3 1.8 -0.2
v 0.3 1.8 -0.3
v 0.3 2.1 -0.4
v 0.3 2.1 -0.6
v 0.3 2.2 -0.2
v 0.3 2.2 -0.3
v 0.3 2.2 -0.4
v 0.3 2.2 -0.6
v 0.3 2.2 -0.8
v 0.3 2.4 -0.6
v 0.3 2.4 -0.7
v 0.3 2.5 -0.3
v 0.3 2.5 -0.4
v 0.3 2.5 -0.7
v 0.3 2.5 -0.8
v 0.3 2.6 -0.5
v 0.3 2.6 -0.6
v 0.3 2.7 -0.4
v 0.3 2.7 -0.5
v 0.4 2.4 -0.6
v 0.4 2.4 -0.7
v 0.4 2.5 -0.3
v 0.4 2.5 -0.4
v 0.4 2.5 -0.7
v 0.4 2.5 -0.8
v 0.4 2.6 -0.5
v 0.4 2.6 -0.6
v 0.4 2.7 -0.3
v 0.4 2.7 -0.4
v 0.4 2.7 -0.5
v 0.4 2.7 -0.6
v 0.4 2.7 -0.7
v 0.4 2.8 -0.5
v 0.4 2.8 -0.6
v 0.4 2.8 -0.7
v 0.4 2.8 -0.8
v 0.4 2.9 -0.4
v 0.4 2.9 -0.5
v 0.4 2.9 -0.7
v 0.4 2.9 -0.8
v 0.4 3 -0.5
v 0.4 3 -0.7
v 0.5 0.6 0.1
v 0.5 0.6 0
v 0.5 0.7 0.1
v 0.5 0.7 0
v 0.5 1.3 -0.1
v 0.5 1.3 -0.2
v 0.5 1.4 -0.1
v 0.5 1.4 -0.2
v 0.5 1.6 -0.1
v 0.5 1.6 -0.2
v 0.5 1.7 -0.1
v 0.5 1.7 -0.2
v 0.5 2.4 -0.3
v 0.5 2.4 -0.4
v 0.5 2.5 -0.3
v 0.5 2.5 -0.4
v 0.5 2.9 -0.4
v 0.5 2.9 -0.5
v 0.5 2.9 -0.7
v 0.5 2.9 -0.8
v 0.5 3 -0.4
v 0.5 3 -0.5
v 0.5 3 -0.7
v 0.5 3.1 -0.5
v 0.5 3.1 -0.8
v 0.6 3.1 -0.6
v 0.6 3.1 -0.8
v 0.6 3.2 -0.6
v 0.6 3.2 -0.8
v 0.4 0.6 0.1
v 0.4 0.6 0
v 0.4 0.7 0.1
v 0.4 0.7 0
v 0.4 1.3 -0.1
v 0.4 1.3 -0.2
v 0.4 1.4 -0.1
v 0.4 1.4 -0.2
v 0.4 2.4 -0.3
v 0.4 2.4 -0.4
v 0.4 2.5 -0.3
v 0.4 2.5 -0.4
v 0.6 2.1 -0.2
v 0.6 2.1 -0.3
v 0.6 2.2 -0.2
v 0.6 2.2 -0.3
v 0.7 1.8 -0.2
v 0.7 1.8 -0.3
v 0.7 1.9 -0.2
v 0.7 1.9 -0.3
v 0.7 2 -0.2
v 0.7 2 -0.3
v 0.7 2.1 -0.2
v 0.7 2.1 -0.3
v 0.7 2.6 -0.3
v 0.7 2.6 -0.4
v 0.7 2.7 -0.3
v 0.7 2.7 -0.4
v 0.7 2.9 -0.4
v 0.7 2.9 -0.5
v 0.7 3 -0.4
v 0.7 3 -0.5
v 0.7 3.1 -0.6
v 0.7 3.1 -0.7
v 0.7 3.2 -0.6
v 0.7 3.2 -0.7
v 0.8 0 0.8
v 0.8 0 -0.8
v 0.8 0.2 0.8
v 0.8 0.2 0.1
v 0.8 0.2 -0.8
v 0.8 0.7 0.1
v 0.8 0.7 0
v 0.8 1.2 0
v 0.8 1.2 -0.1
v 0.8 1.7 -0.1
v 0.8 1.7 -0.2
v 0.8 1.8 -0.2
v 0.8 1.8 -0.3
v 0.8 1.9 -0.2
v 0.8 1.9 -0.3
v 0.8 2 -0.2
v 0.8 2 -0.3
v 0.8 2.6 -0.3
v 0.8 2.6 -0.4
v 0.8 2.8 -0.4
v 0.8 2.8 -0.8
v 0.8 2.9 -0.4
v 0.8 2.9 -0.5
v 0.8 3.1 -0.5
v 0.8 3.1 -0.7
v 0.8 3.2 -0.7
v 0.8 3.2 -0.8
v -0.8 0 0.8
v -0.8 0.2 0.8
v 0.8 0 0.8
v 0.8 0.2 0.8
v -0.1 0.2 0.1
v -0.1 0.5 0.1
v 0 0.5 0.1
v 0 0.6 0.1
v 0.3 0.6 0.1
v 0.3 0.7 0.1
v 0.4 0.6 0.1
v 0.4 0.7 0.1
v 0.5 0.6 0.1
v 0.5 0.7 0.1
v 0.8 0.2 0.1
v 0.8 0.7 0.1
v -0.1 0.5 0
v -0.1 0.7 0
v 0 0.5 0
v 0 0.6 0
v 0 0.7 0
v 0 1 0
v 0.1 1 0
v 0.1 1.1 0
v 0.3 0.6 0
v 0.3 0.7 0
v 0.3 1.1 0
v 0.3 1.2 0
v 0.4 0.6 0
v 0.4 0.7 0
v 0.5 0.6 0
v 0.5 0.7 0
v 0.8 0.7 0
v 0.8 1.2 0
v 0 1 -0.1
v 0 1.1 -0.1
v 0.1 1 -0.1
v 0.1 1.1 -0.1
v 0.1 1.4 -0.1
v 0.2 1.4 -0.1
v 0.2 1.6 -0.1
v 0.3 1.1 -0.1
v 0.3 1.2 -0.1
v 0.4 1.3 -0.1
v 0.4 1.4 -0.1
v 0.5 1.3 -0.1
v 0.5 1.4 -0.1
v 0.5 1.6 -0.1
v 0.5 1.7 -0.1
v 0.8 1.2 -0.1
v 0.8 1.7 -0.1
v -0.1 0.6 -0.2
v -0.1 0.7 -0.2
v 0 0.6 -0.2
v 0 0.7 -0.2
v 0.1 1.4 -0.2
v 0.1 1.5 -0.2
v 0.2 1.4 -0.2
v 0.2 1.5 -0.2
v 0.2 1.6 -0.2
v 0.2 1.8 -0.2
v 0.3 1.8 -0.2
v 0.3 2.2 -0.2
v 0.4 1.3 -0.2
v 0.4 1.4 -0.2
v 0.5 1.3 -0.2
v 0.5 1.4 -0.2
v 0.5 1.6 -0.2
v 0.5 1.7 -0.2
v 0.6 2.1 -0.2
v 0.6 2.2 -0.2
v 0.7 1.8 -0.2
v 0.7 1.9 -0.2
v 0.7 2 -0.2
v 0.7 2.1 -0.2
v 0.8 1.7 -0.2
v 0.8 1.8 -0.2
v 0.8 1.9 -0.2
v 0.8 2 -0.2
v 0.1 1.5 -0.3
v 0.1 1.6 -0.3
v 0.2 1.5 -0.3
v 0.2 1.6 -0.3
v 0.2 1.8 -0.3
v 0.2 2.2 -0.3
v 0.3 1.8 -0.3
v 0.3 2.2 -0.3
v 0.3 2.5 -0.3
v 0.4 2.4 -0.3
v 0.4 2.5 -0.3
v 0.4 2.7 -0.3
v 0.5 2.4 -0.3
v 0.5 2.5 -0.3
v 0.6 2.1 -0.3
v 0.6 2.2 -0.3
v 0.7 1.8 -0.3
v 0.7 1.9 -0.3
v 0.7 2 -0.3
v 0.7 2.1 -0.3
v 0.7 2.6 -0.3
v 0.7 2.7 -0.3
v 0.8 1.8 -0.3
v 0.8 1.9 -0.3
v 0.8 2 -0.3
v 0.8 2.6 -0.3
v -0.1 0.6 -0.4
v -0.1 0.7 -0.4
v 0 0.6 -0.4
v 0 0.7 -0.4
v 0.3 2.5 -0.4
v 0.3 2.7 -0.4
v 0.4 2.4 -0.4
v 0.4 2.5 -0.4
v 0.4 2.7 -0.4
v 0.4 2.9 -0.4
v 0.5 2.4 -0.4
v 0.5 2.5 -0.4
v 0.5 2.7 -0.4
v 0.5 2.8 -0.4
v 0.5 2.9 -0.4
v 0.5 3 -0.4
v 0.6 2.7 -0.4
v 0.6 2.8 -0.4
v 0.7 2.6 -0.4
v 0.7 2.7 -0.4
v 0.7 2.8 -0.4
v 0.7 2.9 -0.4
v 0.7 3 -0.4
v 0.8 2.6 -0.4
v 0.8 2.8 -0.4
v 0.8 2.9 -0.4
v 0.1 1.6 -0.5
v 0.1 1.7 -0.5
v 0.2 1.6 -0.5
v 0.2 1.7 -0.5
v 0.4 2.9 -0.5
v 0.4 3 -0.5
v 0.5 2.9 -0.5
v 0.5 3 -0.5
v 0.5 3.1 -0.5
v 0.7 2.9 -0.5
v 0.7 3 -0.5
v 0.8 2.9 -0.5
v 0.8 3.1 -0.5
v 0 1.1 -0.6
v 0 1.2 -0.6
v 0.1 1.1 -0.6
v 0.1 1.2 -0.6
v 0.2 2.1 -0.6
v 0.2 2.2 -0.6
v 0.3 2.1 -0.6
v 0.3 2.2 -0.6
v 0.6 3.1 -0.6
v 0.6 3.2 -0.6
v 0.7 3.1 -0.6
v 0.7 3.2 -0.6
v 0.3 2.4 -0.7
v 0.3 2.5 -0.7
v 0.4 2.4 -0.7
v 0.4 2.5 -0.7
v 0.7 3.1 -0.7
v 0.7 3.2 -0.7
v 0.8 3.1 -0.7
v 0.8 3.2 -0.7
v -0.1 0.6 -0.1
v -0.1 0.7 -0.1
v 0 0.6 -0.1
v 0 0.7 -0.1
v -0.1 0.6 -0.3
v -0.1 0.7 -0.3
v 0 0.6 -0.3
v 0 0.7 -0.3
v 0.2 2.1 -0.4
v 0.2 2.2 -0.4
v 0.3 2.1 -0.4
v 0.3 2.2 -0.4
v 0.3 2.6 -0.5
v 0.3 2.7 -0.5
v 0.4 2.6 -0.5
v 0.4 2.7 -0.5
v 0.3 2.4 -0.6
v 0.3 2.6 -0.6
v 0.4 2.4 -0.6
v 0.4 2.6 -0.6
v 0.4 2.9 -0.7
v 0.4 3 -0.7
v 0.5 2.9 -0.7
v 0.5 3 -0.7
v -0.8 0 -0.8
v -0.8 0.2 -0.8
v -0.1 0.2 -0.8
v -0.1 0.7 -0.8
v 0 0.7 -0.8
v 0 1.2 -0.8
v 0.1 1.2 -0.8
v 0.1 1.7 -0.8
v 0.2 1.7 -0.8
v 0.2 2.2 -0.8
v 0.3 2.2 -0.8
v 0.3 2.5 -0.8
v 0.4 2.5 -0.8
v 0.4 2.8 -0.8
v 0.4 2.9 -0.8
v 0.5 2.9 -0.8
v 0.5 3.1 -0.8
v 0.6 3.1 -0.8
v 0.6 3.2 -0.8
v 0.8 0 -0.8
v 0.8 0.2 -0.8
v 0.8 2.8 -0.8
v 0.8 3.2 -0.8
v -0.8 0 0.8
v 0.8 0 0.8
v -0.8 0 -0.8
v 0.8 0 -0.8
v 0.4 1.4 -0.1
v 0.5 1.4 -0.1
v 0.4 1.4 -0.2
v 0.5 1.4 -0.2
v 0.7 1.9 -0.2
v 0.8 1.9 -0.2
v 0.7 1.9 -0.3
v 0.8 1.9 -0.3
v 0.4 2.5 -0.3
v 0.5 2.5 -0.3
v 0.4 2.5 -0.4
v 0.5 2.5 -0.4
v -0.8 0.2 0.8
v 0.8 0.2 0.8
v -0.5 0.2 0.5
v -0.4 0.2 0.5
v 0.5 0.2 0.5
v 0.6 0.2 0.5
v -0.5 0.2 0.4
v -0.4 0.2 0.4
v -0.3 0.2 0.4
v 0.4 0.2 0.4
v 0.5 0.2 0.4
v 0.6 0.2 0.4
v -0.5 0.2 0.3
v -0.4 0.2 0.3
v -0.3 0.2 0.3
v 0.4 0.2 0.3
v 0.5 0.2 0.3
v 0.6 0.2 0.3
v -0.1 0.2 0.1
v 0.8 0.2 0.1
v -0.6 0.2 -0.4
v -0.5 0.2 -0.4
v -0.6 0.2 -0.5
v -0.5 0.2 -0.5
v -0.4 0.2 -0.5
v -0.6 0.2 -0.6
v -0.5 0.2 -0.6
v -0.4 0.2 -0.6
v -0.8 0.2 -0.8
v -0.1 0.2 -0.8
v -0.1 0.5 0.1
v 0 0.5 0.1
v -0.1 0.5 0
v 0 0.5 0
v 0 0.6 0.1
v 0.3 0.6 0.1
v 0.4 0.6 0.1
v 0.5 0.6 0.1
v 0 0.6 0
v 0.3 0.6 0
v 0.4 0.6 0
v 0.5 0.6 0
v -0.1 0.6 -0.1
v 0 0.6 -0.1
v -0.1 0.6 -0.2
v 0 0.6 -0.2
v -0.1 0.6 -0.3
v 0 0.6 -0.3
v -0.1 0.6 -0.4
v 0 0.6 -0.4
v 0.3 0.7 0.1
v 0.4 0.7 0.1
v 0.5 0.7 0.1
v 0.8 0.7 0.1
v -0.1 0.7 0
v 0 0.7 0
v 0.3 0.7 0
v 0.4 0.7 0
v 0.5 0.7 0
v 0.8 0.7 0
v -0.1 0.7 -0.1
v 0 0.7 -0.1
v -0.1 0.7 -0.2
v 0 0.7 -0.2
v -0.1 0.7 -0.3
v 0 0.7 -0.3
v -0.1 0.7 -0.4
v 0 0.7 -0.4
v -0.1 0.7 -0.8
v 0 0.7 -0.8
v 0 1 0
v 0.1 1 0
v 0 1 -0.1
v 0.1 1 -0.1
v 0.1 1.1 0
v 0.3 1.1 0
v 0 1.1 -0.1
v 0.1 1.1 -0.1
v 0.3 1.1 -0.1
v 0 1.1 -0.6
v 0.1 1.1 -0.6
v 0.3 1.2 0
v 0.8 1.2 0
v 0.3 1.2 -0.1
v 0.8 1.2 -0.1
v 0 1.2 -0.6
v 0.1 1.2 -0.6
v 0 1.2 -0.8
v 0.1 1.2 -0.8
v 0.4 1.3 -0.1
v 0.5 1.3 -0.1
v 0.4 1.3 -0.2
v 0.5 1.3 -0.2
v 0.1 1.4 -0.1
v 0.2 1.4 -0.1
v 0.1 1.4 -0.2
v 0.2 1.4 -0.2
v 0.1 1.5 -0.2
v 0.2 1.5 -0.2
v 0.1 1.5 -0.3
v 0.2 1.5 -0.3
v 0.2 1.6 -0.1
v 0.5 1.6 -0.1
v 0.2 1.6 -0.2
v 0.5 1.6 -0.2
v 0.1 1.6 -0.3
v 0.2 1.6 -0.3
v 0.1 1.6 -0.5
v 0.2 1.6 -0.5
v 0.5 1.7 -0.1
v 0.8 1.7 -0.1
v 0.5 1.7 -0.2
v 0.8 1.7 -0.2
v 0.1 1.7 -0.5
v 0.2 1.7 -0.5
v 0.1 1.7 -0.8
v 0.2 1.7 -0.8
v 0.2 1.8 -0.2
v 0.3 1.8 -0.2
v 0.7 1.8 -0.2
v 0.8 1.8 -0.2
v 0.2 1.8 -0.3
v 0.3 1.8 -0.3
v 0.7 1.8 -0.3
v 0.8 1.8 -0.3
v 0.7 2 -0.2
v 0.8 2 -0.2
v 0.7 2 -0.3
v 0.8 2 -0.3
v 0.6 2.1 -0.2
v 0.7 2.1 -0.2
v 0.6 2.1 -0.3
v 0.7 2.1 -0.3
v 0.2 2.1 -0.4
v 0.3 2.1 -0.4
v 0.2 2.1 -0.6
v 0.3 2.1 -0.6
v 0.3 2.2 -0.2
v 0.6 2.2 -0.2
v 0.2 2.2 -0.3
v 0.3 2.2 -0.3
v 0.6 2.2 -0.3
v 0.2 2.2 -0.4
v 0.3 2.2 -0.4
v 0.2 2.2 -0.6
v 0.3 2.2 -0.6
v 0.2 2.2 -0.8
v 0.3 2.2 -0.8
v 0.4 2.4 -0.3
v 0.5 2.4 -0.3
v 0.4 2.4 -0.4
v 0.5 2.4 -0.4
v 0.3 2.4 -0.6
v 0.4 2.4 -0.6
v 0.3 2.4 -0.7
v 0.4 2.4 -0.7
v 0.3 2.5 -0.3
v 0.4 2.5 -0.3
v 0.3 2.5 -0.4
v 0.4 2.5 -0.4
v 0.3 2.5 -0.7
v 0.4 2.5 -0.7
v 0.3 2.5 -0.8
v 0.4 2.5 -0.8
v 0.7 2.6 -0.3
v 0.8 2.6 -0.3
v 0.7 2.6 -0.4
v 0.8 2.6 -0.4
v 0.3 2.6 -0.5
v 0.4 2.6 -0.5
v 0.3 2.6 -0.6
v 0.4 2.6 -0.6
v 0.4 2.7 -0.3
v 0.7 2.7 -0.3
v 0.3 2.7 -0.4
v 0.4 2.7 -0.4
v 0.5 2.7 -0.4
v 0.6 2.7 -0.4
v 0.7 2.7 -0.4
v 0.3 2.7 -0.5
v 0.4 2.7 -0.5
v 0.4 2.9 -0.4
v 0.5 2.9 -0.4
v 0.7 2.9 -0.4
v 0.8 2.9 -0.4
v 0.4 2.9 -0.5
v 0.5 2.9 -0.5
v 0.7 2.9 -0.5
v 0.8 2.9 -0.5
v 0.4 2.9 -0.7
v 0.5 2.9 -0.7
v 0.4 2.9 -0.8
v 0.5 2.9 -0.8
v 0.5 3 -0.4
v 0.7 3 -0.4
v 0.4 3 -0.5
v 0.5 3 -0.5
v 0.7 3 -0.5
v 0.4 3 -0.7
v 0.5 3 -0.7
v 0.5 3.1 -0.5
v 0.8 3.1 -0.5
v 0.6 3.1 -0.6
v 0.7 3.1 -0.6
v 0.7 3.1 -0.7
v 0.8 3.1 -0.7
v 0.5 3.1 -0.8
v 0.6 3.1 -0.8
v 0.6 3.2 -0.6
v 0.7 3.2 -0.6
v 0.7 3.2 -0.7
v 0.8 3.2 -0.7
v 0.6 3.2 -0.8
v 0.8 3.2 -0.8

# faces
f 3/2/1 2/2/1 1/2/1
f 4/2/1 2/2/1 3/2/1
f 7/6/1 6/6/1 5/6/1
f 8/6/1 6/6/1 7/6/1
f 9/6/1 6/6/1 8/6/1
f 10/6/1 6/6/1 9/6/1
f 11/6/1 6/6/1 10/6/1
f 12/6/1 6/6/1 11/6/1
f 13/6/1 9/6/1 8/6/1
f 14/6/1 9/6/1 13/6/1
f 15/6/1 11/6/1 10/6/1
f 16/6/1 11/6/1 15/6/1
f 17/6/1 6/6/1 12/6/1
f 18/6/1 6/6/1 17/6/1
f 21/6/1 20/6/1 19/6/1
f 22/6/1 20/6/1 21/6/1
f 28/6/1 24/6/1 23/6/1
f 29/6/1 24/6/1 28/6/1
f 30/6/1 26/6/1 25/6/1
f 31/6/1 26/6/1 30/6/1
f 33/6/1 29/6/1 28/6/1
f 33/6/1 32/6/1 31/6/1
f 33/6/1 31/6/1 30/6/1
f 33/6/1 30/6/1 29/6/1
f 33/6/1 28/6/1 27/6/1
f 34/6/1 32/6/1 33/6/1
f 35/6/1 32/6/1 34/6/1
f 36/6/1 32/6/1 35/6/1
f 37/6/1 32/6/1 36/6/1
f 38/6/1 32/6/1 37/6/1
f 41/6/1 40/6/1 39/6/1
f 42/6/1 40/6/1 41/6/1
f 44/6/1 43/6/1 42/6/1
f 46/6/1 44/6/1 42/6/1
f 46/6/1 45/6/1 44/6/1
f 47/6/1 45/6/1 46/6/1
f 48/6/1 45/6/1 47/6/1
f 49/6/1 45/6/1 48/6/1
f 50/6/1 45/6/1 49/6/1
f 51/6/1 45/6/1 50/6/1
f 52/6/1 45/6/1 51/6/1
f 53/6/1 45/6/1 52/6/1
f 56/6/1 55/6/1 54/6/1
f 58/6/1 56/6/1 54/6/1
f 58/6/1 57/6/1 56/6/1
f 59/6/1 57/6/1 58/6/1
f 60/6/1 57/6/1 59/6/1
f 62/6/1 61/6/1 60/6/1
f 62/6/1 60/6/1 59/6/1
f 64/6/1 62/6/1 59/6/1
f 64/6/1 63/6/1 62/6/1
f 65/6/1 63/6/1 64/6/1
f 66/6/1 63/6/1 65/6/1
f 67/6/1 63/6/1 66/6/1
f 68/6/1 66/6/1 65/6/1
f 69/6/1 66/6/1 68/6/1
f 70/6/1 63/6/1 67/6/1
f 71/6/1 63/6/1 70/6/1
f 74/6/1 73/6/1 72/6/1
f 75/6/1 73/6/1 74/6/1
f 78/6/1 77/6/1 76/6/1
f 79/6/1 77/6/1 78/6/1
f 84/6/1 81/6/1 80/6/1
f 85/6/1 81/6/1 84/6/1
f 86/6/1 83/6/1 82/6/1
f 87/6/1 83/6/1 86/6/1
f 89/6/1 88/6/1 87/6/1
f 89/6/1 87/6/1 86/6/1
f 89/6/1 86/6/1 85/6/1
f 90/6/1 88/6/1 89/6/1
f 91/6/1 89/6/1 85/6/1
f 92/6/1 89/6/1 91/6/1
f 93/6/1 88/6/1 90/6/1
f 94/6/1 88/6/1 93/6/1
f 95/6/1 89/6/1 92/6/1
f 96/6/1 89/6/1 95/6/1
f 97/6/1 95/6/1 92/6/1
f 98/6/1 95/6/1 97/6/1
f 103/6/1 100/6/1 99/6/1
f 106/6/1 103/6/1 99/6/1
f 106/6/1 104/6/1 103/6/1
f 107/6/1 102/6/1 101/6/1
f 108/6/1 102/6/1 107/6/1
f 109/6/1 106/6/1 105/6/1
f 110/6/1 104/6/1 106/6/1
f 110/6/1 106/6/1 109/6/1
f 111/6/1 104/6/1 110/6/1
f 112/5/1 109/5/1 108/5/1
f 112/6/1 110/6/1 109/6/1
f 113/5/1 111/5/1 110/5/1
f 113/6/1 110/6/1 112/6/1
f 114/6/1 104/6/1 111/6/1
f 114/5/1 111/5/1 113/5/1
f 115/6/1 104/6/1 114/6/1
f 116/5/1 113/5/1 112/5/1
f 116/5/1 112/5/1 108/5/1
f 116/5/1 115/5/1 114/5/1
f 116/5/1 114/5/1 113/5/1
f 117/5/1 115/5/1 116/5/1
f 118/5/1 115/5/1 117/5/1
f 119/5/1 115/5/1 118/5/1
f 120/5/1 118/5/1 117/5/1
f 121/5/1 118/5/1 120/5/1
f 124/6/1 123/6/1 122/6/1
f 125/6/1 123/6/1 124/6/1
f 128/6/1 127/6/1 126/6/1
f 129/6/1 127/6/1 128/6/1
f 132/6/1 131/6/1 130/6/1
f 133/6/1 131/6/1 132/6/1
f 136/6/1 135/6/1 134/6/1
f 137/6/1 135/6/1 136/6/1
f 142/5/1 139/5/1 138/5/1
f 143/5/1 139/5/1 142/5/1
f 144/5/1 141/5/1 140/5/1
f 145/5/1 144/5/1 143/5/1
f 146/5/1 141/5/1 144/5/1
f 146/5/1 144/5/1 145/5/1
f 149/5/1 148/5/1 147/5/1
f 150/5/1 148/5/1 149/5/1
f 151/6/2 152/6/2 153/6/2
f 153/6/2 152/6/2 154/6/2
f 155/6/2 156/6/2 157/6/2
f 157/6/2 156/6/2 158/6/2
f 159/6/2 160/6/2 161/6/2
f 161/6/2 160/6/2 162/6/2
f 163/6/2 164/6/2 165/6/2
f 165/6/2 164/6/2 166/6/2
f 167/6/2 168/6/2 169/6/2
f 169/6/2 168/6/2 170/6/2
f 171/6/2 172/6/2 173/6/2
f 173/6/2 172/6/2 174/6/2
f 175/6/2 176/6/2 177/6/2
f 177/6/2 176/6/2 178/6/2
f 179/5/2 180/5/2 181/5/2
f 181/5/2 180/5/2 182/5/2
f 183/5/2 184/5/2 185/5/2
f 185/5/2 184/5/2 186/5/2
f 187/2/2 188/2/2 189/2/2
f 189/2/2 188/2/2 190/2/2
f 190/2/2 188/2/2 191/2/2
f 190/6/2 191/6/2 192/6/2
f 192/6/2 191/6/2 193/6/2
f 193/6/2 191/6/2 194/6/2
f 194/6/2 191/6/2 195/6/2
f 195/6/2 191/6/2 196/6/2
f 196/6/2 191/6/2 197/6/2
f 197/6/2 191/6/2 198/6/2
f 198/6/2 191/6/2 199/6/2
f 199/6/2 191/6/2 201/6/2
f 200/6/2 201/6/2 202/6/2
f 201/6/2 191/6/2 203/6/2
f 202/6/2 201/6/2 203/6/2
f 203/6/2 191/6/2 204/6/2
f 204/6/2 191/6/2 205/6/2
f 205/6/2 191/6/2 206/6/2
f 206/6/2 191/6/2 207/6/2
f 206/5/2 207/5/2 208/5/2
f 208/5/2 207/5/2 209/5/2
f 209/5/2 207/5/2 210/5/2
f 210/5/2 207/5/2 211/5/2
f 211/5/2 207/5/2 212/5/2
f 212/5/2 207/5/2 213/5/2
f 216/2/3 215/2/3 214/2/3
f 217/2/3 215/2/3 216/2/3
f 220/6/3 219/6/3 218/6/3
f 222/6/3 221/6/3 220/6/3
f 224/6/3 222/6/3 220/6/3
f 224/6/3 223/6/3 222/6/3
f 225/6/3 223/6/3 224/6/3
f 226/6/3 224/6/3 220/6/3
f 228/6/3 220/6/3 218/6/3
f 228/6/3 227/6/3 226/6/3
f 228/6/3 226/6/3 220/6/3
f 229/6/3 227/6/3 228/6/3
f 232/6/3 231/6/3 230/6/3
f 233/6/3 231/6/3 232/6/3
f 234/6/3 231/6/3 233/6/3
f 236/6/3 235/6/3 234/6/3
f 236/6/3 234/6/3 233/6/3
f 238/6/3 236/6/3 233/6/3
f 238/6/3 237/6/3 236/6/3
f 239/6/3 237/6/3 238/6/3
f 240/6/3 237/6/3 239/6/3
f 243/6/3 241/6/3 240/6/3
f 243/6/3 240/6/3 239/6/3
f 244/6/3 243/6/3 242/6/3
f 245/6/3 241/6/3 243/6/3
f 245/6/3 243/6/3 244/6/3
f 246/6/3 241/6/3 245/6/3
f 247/6/3 241/6/3 246/6/3
f 250/6/3 249/6/3 248/6/3
f 251/6/3 249/6/3 250/6/3
f 253/6/3 252/6/3 251/6/3
f 255/6/3 253/6/3 251/6/3
f 255/6/3 254/6/3 253/6/3
f 256/6/3 254/6/3 255/6/3
f 257/6/3 254/6/3 256/6/3
f 258/6/3 254/6/3 257/6/3
f 259/6/3 257/6/3 256/6/3
f 260/6/3 254/6/3 258/6/3
f 261/6/3 254/6/3 260/6/3
f 263/6/3 259/6/3 256/6/3
f 263/6/3 262/6/3 261/6/3
f 263/6/3 261/6/3 260/6/3
f 263/6/3 260/6/3 259/6/3
f 264/6/3 262/6/3 263/6/3
f 267/6/3 266/6/3 265/6/3
f 268/6/3 266/6/3 267/6/3
f 271/6/3 270/6/3 269/6/3
f 272/6/3 270/6/3 271/6/3
f 275/6/3 274/6/3 273/6/3
f 279/6/3 278/6/3 277/6/3
f 280/6/3 278/6/3 279/6/3
f 281/6/3 275/6/3 273/6/3
f 281/6/3 276/6/3 275/6/3
f 282/6/3 276/6/3 281/6/3
f 283/6/3 276/6/3 282/6/3
f 284/6/3 276/6/3 283/6/3
f 285/6/3 283/6/3 282/6/3
f 286/6/3 283/6/3 285/6/3
f 287/6/3 283/6/3 286/6/3
f 288/6/3 283/6/3 287/6/3
f 289/6/3 285/6/3 282/6/3
f 290/6/3 285/6/3 289/6/3
f 291/6/3 287/6/3 286/6/3
f 292/6/3 287/6/3 291/6/3
f 295/6/3 294/6/3 293/6/3
f 296/6/3 294/6/3 295/6/3
f 299/6/3 298/6/3 297/6/3
f 300/6/3 298/6/3 299/6/3
f 302/6/3 301/6/3 300/6/3
f 303/6/3 301/6/3 302/6/3
f 305/6/3 302/6/3 300/6/3
f 306/6/3 304/6/3 303/6/3
f 308/6/3 305/6/3 300/6/3
f 308/6/3 306/6/3 305/6/3
f 312/6/3 308/6/3 307/6/3
f 313/6/3 304/6/3 306/6/3
f 313/6/3 306/6/3 308/6/3
f 313/6/3 308/6/3 312/6/3
f 314/6/3 304/6/3 313/6/3
f 315/6/3 310/6/3 309/6/3
f 316/6/3 310/6/3 315/6/3
f 317/6/3 312/6/3 311/6/3
f 317/6/3 313/6/3 312/6/3
f 318/6/3 313/6/3 317/6/3
f 321/6/3 320/6/3 319/6/3
f 322/6/3 320/6/3 321/6/3
f 326/6/3 324/6/3 323/6/3
f 327/6/3 324/6/3 326/6/3
f 329/6/3 326/6/3 325/6/3
f 330/6/3 326/6/3 329/6/3
f 331/5/3 328/5/3 327/5/3
f 332/5/3 328/5/3 331/5/3
f 333/5/3 328/5/3 332/5/3
f 335/6/3 332/6/3 331/6/3
f 336/5/3 334/5/3 333/5/3
f 336/6/3 332/6/3 335/6/3
f 336/5/3 333/5/3 332/5/3
f 338/5/3 336/5/3 335/5/3
f 339/5/3 334/5/3 336/5/3
f 339/5/3 336/5/3 338/5/3
f 340/5/3 334/5/3 339/5/3
f 341/5/3 334/5/3 340/5/3
f 342/6/3 338/6/3 337/6/3
f 342/6/3 339/6/3 338/6/3
f 343/5/3 340/5/3 339/5/3
f 343/6/3 339/6/3 342/6/3
f 344/5/3 340/5/3 343/5/3
f 347/6/3 346/6/3 345/6/3
f 348/6/3 346/6/3 347/6/3
f 351/5/3 350/5/3 349/5/3
f 352/5/3 350/5/3 351/5/3
f 355/5/3 353/5/3 352/5/3
f 356/5/3 355/5/3 354/5/3
f 357/5/3 353/5/3 355/5/3
f 357/5/3 355/5/3 356/5/3
f 360/6/3 359/6/3 358/6/3
f 361/6/3 359/6/3 360/6/3
f 364/6/3 363/6/3 362/6/3
f 365/6/3 363/6/3 364/6/3
f 368/5/3 367/5/3 366/5/3
f 369/5/3 367/5/3 368/5/3
f 372/6/3 371/6/3 370/6/3
f 373/6/3 371/6/3 372/6/3
f 376/5/3 375/5/3 374/5/3
f 377/5/3 375/5/3 376/5/3
f 378/6/4 379/6/4 380/6/4
f 380/6/4 379/6/4 381/6/4
f 382/6/4 383/6/4 384/6/4
f 384/6/4 383/6/4 385/6/4
f 386/6/4 387/6/4 388/6/4
f 388/6/4 387/6/4 389/6/4
f 390/6/4 391/6/4 392/6/4
f 392/6/4 391/6/4 393/6/4
f 394/6/4 395/6/4 396/6/4
f 396/6/4 395/6/4 397/6/4
f 398/5/4 399/5/4 400/5/4
f 400/5/4 399/5/4 401/5/4
f 402/2/4 403/2/4 404/2/4
f 404/6/4 405/6/4 406/6/4
f 406/6/4 407/6/4 408/6/4
f 408/6/4 409/6/4 410/6/4
f 410/6/4 411/6/4 412/6/4
f 412/6/4 413/6/4 414/6/4
f 415/5/4 416/5/4 417/5/4
f 417/5/4 418/5/4 419/5/4
f 402/2/4 404/2/4 421/2/4
f 404/6/4 406/6/4 422/6/4
f 421/2/4 404/2/4 422/2/4
f 406/6/4 408/6/4 422/6/4
f 408/6/4 410/6/4 422/6/4
f 410/6/4 412/6/4 422/6/4
f 414/6/4 415/6/4 422/6/4
f 412/6/4 414/6/4 422/6/4
f 419/5/4 420/5/4 423/5/4
f 422/6/4 415/6/4 423/6/4
f 417/5/4 419/5/4 423/5/4
f 415/5/4 417/5/4 423/5/4
f 423/5/4 420/5/4 424/5/4
f 427/2/5 426/2/5 425/2/5
f 428/2/5 426/2/5 427/2/5
f 431/6/5 430/6/5 429/6/5
f 432/6/5 430/6/5 431/6/5
f 435/6/5 434/6/5 433/6/5
f 436/6/5 434/6/5 435/6/5
f 439/6/5 438/6/5 437/6/5
f 440/6/5 438/6/5 439/6/5
f 441/2/6 442/2/6 443/2/6
f 443/2/6 442/2/6 444/2/6
f 444/2/6 442/2/6 445/2/6
f 445/2/6 442/2/6 446/2/6
f 441/2/6 443/2/6 447/2/6
f 443/4/6 444/4/6 447/4/6
f 444/2/6 445/2/6 448/2/6
f 447/4/6 444/4/6 448/4/6
f 448/2/6 445/2/6 449/2/6
f 449/2/6 445/2/6 450/2/6
f 445/4/6 446/4/6 451/4/6
f 450/2/6 445/2/6 451/2/6
f 446/2/6 442/2/6 452/2/6
f 451/4/6 446/4/6 452/4/6
f 441/2/6 447/2/6 453/2/6
f 447/1/6 448/1/6 453/1/6
f 448/4/6 449/4/6 454/4/6
f 453/1/6 448/1/6 454/1/6
f 449/2/6 450/2/6 455/2/6
f 454/4/6 449/4/6 455/4/6
f 450/4/6 451/4/6 456/4/6
f 455/2/6 450/2/6 456/2/6
f 451/3/6 452/3/6 457/3/6
f 456/4/6 451/4/6 457/4/6
f 452/2/6 442/2/6 458/2/6
f 457/3/6 452/3/6 458/3/6
f 454/2/6 455/2/6 459/2/6
f 453/2/6 454/2/6 459/2/6
f 457/2/6 458/2/6 459/2/6
f 456/2/6 457/2/6 459/2/6
f 455/2/6 456/2/6 459/2/6
f 458/2/6 442/2/6 460/2/6
f 459/2/6 458/2/6 460/2/6
f 453/2/6 459/2/6 461/2/6
f 441/2/6 453/2/6 461/2/6
f 461/2/6 459/2/6 462/2/6
f 441/2/6 461/2/6 463/2/6
f 461/4/6 462/4/6 463/4/6
f 462/2/6 459/2/6 464/2/6
f 463/4/6 462/4/6 464/4/6
f 464/2/6 459/2/6 465/2/6
f 441/2/6 463/2/6 466/2/6
f 463/3/6 464/3/6 466/3/6
f 464/4/6 465/4/6 467/4/6
f 466/3/6 464/3/6 467/3/6
f 465/2/6 459/2/6 468/2/6
f 467/4/6 465/4/6 468/4/6
f 466/2/6 467/2/6 469/2/6
f 441/2/6 466/2/6 469/2/6
f 467/2/6 468/2/6 469/2/6
f 468/2/6 459/2/6 470/2/6
f 469/2/6 468/2/6 470/2/6
f 471/6/6 472/6/6 473/6/6
f 473/6/6 472/6/6 474/6/6
f 475/6/6 476/6/6 479/6/6
f 479/6/6 476/6/6 480/6/6
f 477/6/6 478/6/6 481/6/6
f 481/6/6 478/6/6 482/6/6
f 483/6/6 484/6/6 485/6/6
f 485/6/6 484/6/6 486/6/6
f 487/6/6 488/6/6 489/6/6
f 489/6/6 488/6/6 490/6/6
f 491/6/6 492/6/6 497/6/6
f 497/6/6 492/6/6 498/6/6
f 493/6/6 494/6/6 499/6/6
f 499/6/6 494/6/6 500/6/6
f 495/6/6 496/6/6 501/6/6
f 501/6/6 496/6/6 502/6/6
f 503/6/6 504/6/6 505/6/6
f 505/6/6 504/6/6 506/6/6
f 507/6/6 508/6/6 509/6/6
f 509/6/6 508/6/6 510/6/6
f 511/6/6 512/6/6 513/6/6
f 513/6/6 512/6/6 514/6/6
f 515/6/6 516/6/6 518/6/6
f 518/6/6 516/6/6 519/6/6
f 517/6/6 518/6/6 520/6/6
f 520/6/6 518/6/6 521/6/6
f 522/6/6 523/6/6 524/6/6
f 524/6/6 523/6/6 525/6/6
f 526/6/6 527/6/6 528/6/6
f 528/6/6 527/6/6 529/6/6
f 530/6/6 531/6/6 532/6/6
f 532/6/6 531/6/6 533/6/6
f 534/6/6 535/6/6 536/6/6
f 536/6/6 535/6/6 537/6/6
f 538/6/6 539/6/6 540/6/6
f 540/6/6 539/6/6 541/6/6
f 542/6/6 543/6/6 544/6/6
f 544/6/6 543/6/6 545/6/6
f 546/6/6 547/6/6 548/6/6
f 548/6/6 547/6/6 549/6/6
f 550/6/6 551/6/6 552/6/6
f 552/6/6 551/6/6 553/6/6
f 554/6/6 555/6/6 556/6/6
f 556/6/6 555/6/6 557/6/6
f 558/6/6 559/6/6 562/6/6
f 562/6/6 559/6/6 563/6/6
f 560/6/6 561/6/6 564/6/6
f 564/6/6 561/6/6 565/6/6
f 566/6/6 567/6/6 568/6/6
f 568/6/6 567/6/6 569/6/6
f 570/6/6 571/6/6 572/6/6
f 572/6/6 571/6/6 573/6/6
f 574/6/6 575/6/6 576/6/6
f 576/6/6 575/6/6 577/6/6
f 578/6/6 579/6/6 581/6/6
f 581/6/6 579/6/6 582/6/6
f 580/6/6 581/6/6 583/6/6
f 583/6/6 581/6/6 584/6/6
f 585/6/6 586/6/6 587/6/6
f 587/6/6 586/6/6 588/6/6
f 589/6/6 590/6/6 591/6/6
f 591/6/6 590/6/6 592/6/6
f 593/6/6 594/6/6 595/6/6
f 595/6/6 594/6/6 596/6/6
f 597/6/6 598/6/6 599/6/6
f 599/6/6 598/6/6 600/6/6
f 601/6/6 602/6/6 603/6/6
f 603/6/6 602/6/6 604/6/6
f 605/6/6 606/6/6 607/6/6
f 607/6/6 606/6/6 608/6/6
f 609/6/6 610/6/6 611/6/6
f 611/6/6 610/6/6 612/6/6
f 613/6/6 614/6/6 616/6/6
f 616/6/6 614/6/6 617/6/6
f 617/6/6 614/6/6 618/6/6
f 618/6/6 614/6/6 619/6/6
f 615/6/6 616/6/6 620/6/6
f 620/6/6 616/6/6 621/6/6
f 622/5/6 623/5/6 626/5/6
f 626/5/6 623/5/6 627/5/6
f 624/5/6 625/5/6 628/5/6
f 628/5/6 625/5/6 629/5/6
f 630/5/6 631/5/6 632/5/6
f 632/5/6 631/5/6 633/5/6
f 634/5/6 635/5/6 637/5/6
f 637/5/6 635/5/6 638/5/6
f 636/5/6 637/5/6 639/5/6
f 639/5/6 637/5/6 640/5/6
f 641/5/6 642/5/6 643/5/6
f 643/5/6 642/5/6 644/5/6
f 644/5/6 642/5/6 645/5/6
f 645/5/6 642/5/6 646/5/6
f 641/5/6 643/5/6 647/5/6
f 647/5/6 643/5/6 648/5/6
f 649/5/6 650/5/6 651/5/6
f 649/5/6 651/5/6 653/5/6
f 651/5/6 652/5/6 653/5/6
f 653/5/6 652/5/6 654/5/6
