# MagicaVoxel @ Ephtracy

# group
o 

# material
mtllib Mountain_river_2.mtl
usemtl palette

# normals
vn -1 0 0
vn 1 0 0
vn 0 0 1
vn 0 0 -1
vn 0 -1 0
vn 0 1 0

# texcoords
vt 0.181641 0.5
vt 0.302734 0.5
vt 0.341797 0.5
vt 0.587891 0.5
vt 0.607422 0.5
vt 0.654297 0.5
vt 0.958984 0.5
vt 0.978516 0.5

# verts
v -0.8 0 0.8
v -0.8 0 -0.8
v -0.8 0.2 0.8
v -0.8 0.2 0.1
v -0.8 0.2 -0.8
v -0.8 0.7 0.1
v -0.8 0.7 0
v -0.8 1.2 0
v -0.8 1.2 -0.1
v -0.8 1.7 -0.1
v -0.8 1.7 -0.2
v -0.8 2.2 -0.2
v -0.8 2.2 -0.3
v -0.8 2.7 -0.3
v -0.8 2.7 -0.4
v -0.8 2.7 -0.5
v -0.8 2.7 -0.6
v -0.8 2.7 -0.7
v -0.8 2.8 -0.5
v -0.8 2.8 -0.6
v -0.8 2.8 -0.7
v -0.8 2.8 -0.8
v -0.8 3 -0.4
v -0.8 3 -0.5
v -0.8 3.1 -0.5
v -0.8 3.1 -0.6
v -0.8 3.2 -0.6
v -0.8 3.2 -0.8
v 0 0.5 0.1
v 0 0.5 0
v 0 0.6 0.1
v 0 0.6 0
v 0.1 0.1 -0.6
v 0.1 0.1 -0.7
v 0.1 0.2 -0.6
v 0.1 0.2 -0.7
v 0.2 0.1 0.8
v 0.2 0.1 0.7
v 0.2 0.2 0.8
v 0.2 0.2 0.7
v 0.2 0.3 -0.6
v 0.2 0.3 -0.7
v 0.2 0.4 -0.5
v 0.2 0.4 -0.6
v 0.2 0.5 0.1
v 0.2 0.5 0
v 0.2 0.5 -0.5
v 0.2 0.5 -0.7
v 0.2 0.6 0.1
v 0.2 0.6 0
v 0.3 0.1 0.7
v 0.3 0.1 0.5
v 0.3 0.1 -0.6
v 0.3 0.1 -0.7
v 0.3 0.2 0.7
v 0.3 0.2 0.5
v 0.3 0.2 -0.6
v 0.3 0.2 -0.7
v 0.4 0.1 0.5
v 0.4 0.1 0.3
v 0.4 0.1 -0.2
v 0.4 0.1 -0.6
v 0.4 0.2 0.5
v 0.4 0.2 0.3
v 0.4 0.2 -0.2
v 0.4 0.2 -0.6
v 0.4 0.2 -0.7
v 0.4 0.4 0
v 0.4 0.4 -0.6
v 0.4 0.4 -0.7
v 0.4 0.5 0
v 0.4 0.5 -0.6
v 0.5 0.1 0.3
v 0.5 0.1 0.1
v 0.5 0.1 -0.2
v 0.5 0.2 0.3
v 0.5 0.2 0.1
v 0.5 0.2 -0.2
v 0.5 0.3 0
v 0.5 0.3 -0.6
v 0.5 0.4 0.1
v 0.5 0.4 0
v 0.5 0.4 -0.6
v 0.5 0.5 0.1
v 0.5 0.5 0
v 0.6 0.2 0.1
v 0.6 0.2 -0.6
v 0.6 0.3 0
v 0.6 0.3 -0.6
v 0.6 0.4 0.1
v 0.6 0.4 0
v -0.3 0.1 0.4
v -0.3 0.1 0.1
v -0.3 0.1 -0.3
v -0.3 0.2 0.4
v -0.3 0.2 0.1
v -0.3 0.2 -0.3
v -0.3 0.2 -0.6
v -0.3 0.3 0
v -0.3 0.3 -0.6
v -0.3 0.4 0.1
v -0.3 0.4 0
v -0.2 0.1 0.8
v -0.2 0.1 0.4
v -0.2 0.1 -0.3
v -0.2 0.1 -0.6
v -0.2 0.2 0.8
v -0.2 0.2 0.4
v -0.2 0.2 -0.3
v -0.2 0.2 -0.6
v -0.2 0.2 -0.7
v -0.2 0.3 0
v -0.2 0.3 -0.6
v -0.2 0.3 -0.7
v -0.2 0.4 0.1
v -0.2 0.4 0
v -0.2 0.4 -0.6
v -0.2 0.5 0.1
v -0.2 0.5 0
v -0.1 0.4 0
v -0.1 0.4 -0.6
v -0.1 0.5 0.1
v -0.1 0.5 0
v -0.1 0.5 -0.6
v -0.1 0.6 0.1
v -0.1 0.6 0
v 0 0.1 -0.6
v 0 0.1 -0.7
v 0 0.2 -0.6
v 0 0.2 -0.7
v 0 0.3 -0.6
v 0 0.3 -0.7
v 0 0.4 -0.6
v 0 0.4 -0.7
v 0.1 0.4 -0.6
v 0.1 0.4 -0.7
v 0.1 0.5 0.1
v 0.1 0.5 0
v 0.1 0.5 -0.6
v 0.1 0.5 -0.7
v 0.1 0.6 0.1
v 0.1 0.6 0
v 0.2 0.1 -0.6
v 0.2 0.1 -0.7
v 0.2 0.2 -0.6
v 0.2 0.2 -0.7
v 0.3 0.3 -0.6
v 0.3 0.3 -0.7
v 0.3 0.4 -0.5
v 0.3 0.4 -0.6
v 0.3 0.4 -0.7
v 0.3 0.5 -0.5
v 0.3 0.5 -0.6
v 0.8 0 0.8
v 0.8 0 -0.8
v 0.8 0.2 0.8
v 0.8 0.2 0.1
v 0.8 0.2 -0.8
v 0.8 0.7 0.1
v 0.8 0.7 0
v 0.8 1.2 0
v 0.8 1.2 -0.1
v 0.8 1.7 -0.1
v 0.8 1.7 -0.2
v 0.8 2.2 -0.2
v 0.8 2.2 -0.3
v 0.8 2.6 -0.6
v 0.8 2.6 -0.7
v 0.8 2.7 -0.3
v 0.8 2.7 -0.4
v 0.8 2.7 -0.6
v 0.8 2.7 -0.7
v 0.8 2.7 -0.8
v 0.8 3 -0.4
v 0.8 3 -0.5
v 0.8 3.1 -0.5
v 0.8 3.1 -0.6
v 0.8 3.2 -0.6
v 0.8 3.2 -0.8
v -0.8 0 0.8
v -0.8 0.2 0.8
v -0.3 0.1 0.8
v -0.3 0.2 0.8
v -0.2 0 0.8
v -0.2 0.1 0.8
v -0.2 0.2 0.8
v 0.2 0 0.8
v 0.2 0.1 0.8
v 0.2 0.2 0.8
v 0.3 0.1 0.8
v 0.3 0.2 0.8
v 0.8 0 0.8
v 0.8 0.2 0.8
v -0.8 0.2 0.1
v -0.8 0.7 0.1
v -0.4 0.2 0.1
v -0.3 0.2 0.1
v -0.3 0.4 0.1
v -0.2 0.4 0.1
v -0.2 0.5 0.1
v -0.1 0.5 0.1
v -0.1 0.6 0.1
v 0 0.5 0.1
v 0 0.6 0.1
v 0.1 0.5 0.1
v 0.1 0.6 0.1
v 0.2 0.5 0.1
v 0.2 0.6 0.1
v 0.5 0.4 0.1
v 0.5 0.5 0.1
v 0.6 0.2 0.1
v 0.6 0.4 0.1
v 0.8 0.2 0.1
v 0.8 0.7 0.1
v -0.8 0.7 0
v -0.8 1.2 0
v -0.3 0.3 0
v -0.3 0.4 0
v -0.2 0.3 0
v -0.2 0.4 0
v -0.2 0.5 0
v -0.1 0.4 0
v -0.1 0.5 0
v -0.1 0.6 0
v 0 0.5 0
v 0 0.6 0
v 0.1 0.5 0
v 0.1 0.6 0
v 0.2 0.5 0
v 0.2 0.6 0
v 0.4 0.4 0
v 0.4 0.5 0
v 0.5 0.3 0
v 0.5 0.4 0
v 0.5 0.5 0
v 0.6 0.3 0
v 0.6 0.4 0
v 0.8 0.7 0
v 0.8 1.2 0
v -0.8 1.2 -0.1
v -0.8 1.7 -0.1
v 0.8 1.2 -0.1
v 0.8 1.7 -0.1
v -0.8 1.7 -0.2
v -0.8 2.2 -0.2
v 0.4 0.1 -0.2
v 0.4 0.2 -0.2
v 0.5 0.1 -0.2
v 0.5 0.2 -0.2
v 0.8 1.7 -0.2
v 0.8 2.2 -0.2
v -0.8 2.2 -0.3
v -0.8 2.7 -0.3
v -0.6 2.6 -0.3
v -0.6 2.7 -0.3
v -0.5 2.6 -0.3
v -0.5 2.7 -0.3
v -0.4 2.6 -0.3
v -0.4 2.7 -0.3
v -0.3 0.1 -0.3
v -0.3 0.2 -0.3
v -0.2 0.1 -0.3
v -0.2 0.2 -0.3
v -0.1 2.6 -0.3
v -0.1 2.7 -0.3
v 0.1 2.6 -0.3
v 0.1 2.7 -0.3
v 0.3 2.6 -0.3
v 0.3 2.7 -0.3
v 0.6 2.6 -0.3
v 0.6 2.7 -0.3
v 0.7 2.6 -0.3
v 0.7 2.7 -0.3
v 0.8 2.2 -0.3
v 0.8 2.7 -0.3
v -0.8 2.7 -0.4
v -0.8 3 -0.4
v -0.7 2.7 -0.4
v -0.7 2.8 -0.4
v -0.6 2.7 -0.4
v -0.5 2.7 -0.4
v -0.5 2.8 -0.4
v -0.4 2.7 -0.4
v -0.3 2.7 -0.4
v -0.3 2.8 -0.4
v -0.1 2.7 -0.4
v -0.1 2.8 -0.4
v 0.1 2.7 -0.4
v 0.2 2.7 -0.4
v 0.2 2.8 -0.4
v 0.3 2.7 -0.4
v 0.3 2.8 -0.4
v 0.4 2.7 -0.4
v 0.4 2.8 -0.4
v 0.6 2.7 -0.4
v 0.6 2.8 -0.4
v 0.7 2.7 -0.4
v 0.8 2.7 -0.4
v 0.8 3 -0.4
v -0.8 3 -0.5
v -0.8 3.1 -0.5
v 0.2 0.4 -0.5
v 0.2 0.5 -0.5
v 0.3 0.4 -0.5
v 0.3 0.5 -0.5
v 0.8 3 -0.5
v 0.8 3.1 -0.5
v -0.8 3.1 -0.6
v -0.8 3.2 -0.6
v -0.3 0.2 -0.6
v -0.3 0.3 -0.6
v -0.2 0.1 -0.6
v -0.2 0.2 -0.6
v -0.2 0.3 -0.6
v -0.2 0.4 -0.6
v -0.1 0.4 -0.6
v -0.1 0.5 -0.6
v 0 0.1 -0.6
v 0 0.2 -0.6
v 0 0.3 -0.6
v 0 0.4 -0.6
v 0.1 0.1 -0.6
v 0.1 0.2 -0.6
v 0.1 0.4 -0.6
v 0.1 0.5 -0.6
v 0.2 0.1 -0.6
v 0.2 0.2 -0.6
v 0.2 0.3 -0.6
v 0.2 0.4 -0.6
v 0.3 0.1 -0.6
v 0.3 0.2 -0.6
v 0.3 0.3 -0.6
v 0.3 0.4 -0.6
v 0.3 0.5 -0.6
v 0.4 0.1 -0.6
v 0.4 0.2 -0.6
v 0.4 0.4 -0.6
v 0.4 0.5 -0.6
v 0.5 0.3 -0.6
v 0.5 0.4 -0.6
v 0.6 0.2 -0.6
v 0.6 0.3 -0.6
v 0.8 3.1 -0.6
v 0.8 3.2 -0.6
v -0.2 0.2 -0.7
v -0.2 0.3 -0.7
v 0 0.1 -0.7
v 0 0.2 -0.7
v 0 0.3 -0.7
v 0 0.4 -0.7
v 0.1 0.1 -0.7
v 0.1 0.2 -0.7
v 0.1 0.4 -0.7
v 0.1 0.5 -0.7
v 0.2 0.1 -0.7
v 0.2 0.2 -0.7
v 0.2 0.3 -0.7
v 0.2 0.5 -0.7
v 0.3 0.1 -0.7
v 0.3 0.2 -0.7
v 0.3 0.3 -0.7
v 0.3 0.4 -0.7
v 0.4 0.2 -0.7
v 0.4 0.4 -0.7
v 0.2 0.1 0.7
v 0.2 0.2 0.7
v 0.3 0.1 0.7
v 0.3 0.2 0.7
v 0.3 0.1 0.5
v 0.3 0.2 0.5
v 0.4 0.1 0.5
v 0.4 0.2 0.5
v -0.3 0.1 0.4
v -0.3 0.2 0.4
v -0.2 0.1 0.4
v -0.2 0.2 0.4
v 0.4 0.1 0.3
v 0.4 0.2 0.3
v 0.5 0.1 0.3
v 0.5 0.2 0.3
v -0.8 0 -0.8
v -0.8 0.2 -0.8
v -0.8 2.8 -0.8
v -0.8 3.2 -0.8
v 0.7 2.7 -0.8
v 0.7 2.8 -0.8
v 0.8 0 -0.8
v 0.8 0.2 -0.8
v 0.8 2.7 -0.8
v 0.8 3.2 -0.8
v -0.8 0 0.8
v -0.2 0 0.8
v 0.2 0 0.8
v 0.8 0 0.8
v 0.2 0 0.7
v 0.3 0 0.7
v 0.3 0 0.5
v 0.4 0 0.5
v -0.3 0 0.4
v -0.2 0 0.4
v 0.4 0 0.3
v 0.5 0 0.3
v -0.3 0 -0.7
v 0.5 0 -0.7
v -0.8 0 -0.8
v 0.8 0 -0.8
v -0.3 0.3 0
v -0.2 0.3 0
v 0.5 0.3 0
v 0.6 0.3 0
v -0.3 0.3 -0.6
v -0.2 0.3 -0.6
v 0 0.3 -0.6
v 0.2 0.3 -0.6
v 0.3 0.3 -0.6
v 0.5 0.3 -0.6
v 0.6 0.3 -0.6
v -0.2 0.3 -0.7
v 0 0.3 -0.7
v 0.2 0.3 -0.7
v 0.3 0.3 -0.7
v -0.3 0.4 0.1
v -0.2 0.4 0.1
v 0.5 0.4 0.1
v 0.6 0.4 0.1
v -0.3 0.4 0
v -0.2 0.4 0
v -0.1 0.4 0
v 0.4 0.4 0
v 0.5 0.4 0
v 0.6 0.4 0
v 0.2 0.4 -0.5
v 0.3 0.4 -0.5
v -0.2 0.4 -0.6
v -0.1 0.4 -0.6
v 0 0.4 -0.6
v 0.1 0.4 -0.6
v 0.2 0.4 -0.6
v 0.3 0.4 -0.6
v 0.4 0.4 -0.6
v 0.5 0.4 -0.6
v 0 0.4 -0.7
v 0.1 0.4 -0.7
v 0.3 0.4 -0.7
v 0.4 0.4 -0.7
v -0.2 0.5 0.1
v -0.1 0.5 0.1
v 0 0.5 0.1
v 0.1 0.5 0.1
v 0.2 0.5 0.1
v 0.5 0.5 0.1
v -0.2 0.5 0
v -0.1 0.5 0
v 0 0.5 0
v 0.1 0.5 0
v 0.2 0.5 0
v 0.4 0.5 0
v 0.5 0.5 0
v 0.2 0.5 -0.5
v 0.3 0.5 -0.5
v -0.1 0.5 -0.6
v 0.1 0.5 -0.6
v 0.3 0.5 -0.6
v 0.4 0.5 -0.6
v 0.1 0.5 -0.7
v 0.2 0.5 -0.7
v -0.1 0.6 0.1
v 0 0.6 0.1
v 0.1 0.6 0.1
v 0.2 0.6 0.1
v -0.1 0.6 0
v 0 0.6 0
v 0.1 0.6 0
v 0.2 0.6 0
v -0.2 0.1 0.8
v 0.2 0.1 0.8
v 0.2 0.1 0.7
v 0.3 0.1 0.7
v 0.3 0.1 0.5
v 0.4 0.1 0.5
v -0.3 0.1 0.4
v -0.2 0.1 0.4
v 0.4 0.1 0.3
v 0.5 0.1 0.3
v -0.3 0.1 0.1
v 0.5 0.1 0.1
v 0.4 0.1 -0.2
v 0.5 0.1 -0.2
v -0.3 0.1 -0.3
v -0.2 0.1 -0.3
v -0.2 0.1 -0.6
v 0 0.1 -0.6
v 0.1 0.1 -0.6
v 0.2 0.1 -0.6
v 0.3 0.1 -0.6
v 0.4 0.1 -0.6
v 0 0.1 -0.7
v 0.1 0.1 -0.7
v 0.2 0.1 -0.7
v 0.3 0.1 -0.7
v -0.8 0.2 0.8
v -0.3 0.2 0.8
v -0.2 0.2 0.8
v 0.2 0.2 0.8
v 0.3 0.2 0.8
v 0.8 0.2 0.8
v 0.2 0.2 0.7
v 0.3 0.2 0.7
v 0.4 0.2 0.7
v -0.4 0.2 0.5
v -0.3 0.2 0.5
v 0.3 0.2 0.5
v 0.4 0.2 0.5
v 0.5 0.2 0.5
v -0.7 0.2 0.4
v -0.6 0.2 0.4
v -0.4 0.2 0.4
v -0.3 0.2 0.4
v -0.2 0.2 0.4
v -0.7 0.2 0.3
v -0.6 0.2 0.3
v -0.5 0.2 0.3
v 0.4 0.2 0.3
v 0.5 0.2 0.3
v 0.6 0.2 0.3
v -0.7 0.2 0.2
v -0.6 0.2 0.2
v -0.5 0.2 0.2
v -0.8 0.2 0.1
v -0.4 0.2 0.1
v -0.3 0.2 0.1
v 0.5 0.2 0.1
v 0.6 0.2 0.1
v 0.8 0.2 0.1
v 0.4 0.2 -0.2
v 0.5 0.2 -0.2
v -0.3 0.2 -0.3
v -0.2 0.2 -0.3
v -0.3 0.2 -0.6
v -0.2 0.2 -0.6
v 0 0.2 -0.6
v 0.1 0.2 -0.6
v 0.2 0.2 -0.6
v 0.3 0.2 -0.6
v 0.4 0.2 -0.6
v 0.6 0.2 -0.6
v -0.2 0.2 -0.7
v 0 0.2 -0.7
v 0.1 0.2 -0.7
v 0.2 0.2 -0.7
v 0.3 0.2 -0.7
v 0.4 0.2 -0.7
v -0.8 0.7 0.1
v 0.8 0.7 0.1
v -0.8 0.7 0
v 0.8 0.7 0
v -0.8 1.2 0
v 0.8 1.2 0
v -0.8 1.2 -0.1
v 0.8 1.2 -0.1
v -0.8 1.7 -0.1
v 0.8 1.7 -0.1
v -0.8 1.7 -0.2
v 0.8 1.7 -0.2
v -0.8 2.2 -0.2
v 0.8 2.2 -0.2
v -0.8 2.2 -0.3
v 0.8 2.2 -0.3
v -0.8 2.7 -0.3
v -0.6 2.7 -0.3
v -0.5 2.7 -0.3
v -0.4 2.7 -0.3
v -0.1 2.7 -0.3
v 0.1 2.7 -0.3
v 0.3 2.7 -0.3
v 0.6 2.7 -0.3
v 0.7 2.7 -0.3
v 0.8 2.7 -0.3
v -0.8 2.7 -0.4
v -0.7 2.7 -0.4
v -0.6 2.7 -0.4
v -0.5 2.7 -0.4
v -0.4 2.7 -0.4
v -0.3 2.7 -0.4
v -0.1 2.7 -0.4
v 0.1 2.7 -0.4
v 0.2 2.7 -0.4
v 0.3 2.7 -0.4
v 0.4 2.7 -0.4
v 0.6 2.7 -0.4
v 0.7 2.7 -0.4
v 0.8 2.7 -0.4
v -0.8 3 -0.4
v 0.8 3 -0.4
v -0.8 3 -0.5
v 0.8 3 -0.5
v -0.8 3.1 -0.5
v 0.8 3.1 -0.5
v -0.8 3.1 -0.6
v 0.8 3.1 -0.6
v -0.8 3.2 -0.6
v 0.8 3.2 -0.6
v -0.8 3.2 -0.8
v 0.8 3.2 -0.8

# faces
f 3/2/1 2/2/1 1/2/1
f 4/2/1 2/2/1 3/2/1
f 5/2/1 2/2/1 4/2/1
f 6/8/1 5/8/1 4/8/1
f 7/8/1 5/8/1 6/8/1
f 8/8/1 5/8/1 7/8/1
f 9/8/1 5/8/1 8/8/1
f 10/8/1 5/8/1 9/8/1
f 11/8/1 5/8/1 10/8/1
f 12/8/1 5/8/1 11/8/1
f 13/8/1 5/8/1 12/8/1
f 14/8/1 5/8/1 13/8/1
f 15/8/1 5/8/1 14/8/1
f 16/8/1 5/8/1 15/8/1
f 17/8/1 5/8/1 16/8/1
f 18/8/1 5/8/1 17/8/1
f 19/7/1 16/7/1 15/7/1
f 19/8/1 17/8/1 16/8/1
f 20/7/1 18/7/1 17/7/1
f 20/8/1 17/8/1 19/8/1
f 21/8/1 5/8/1 18/8/1
f 21/7/1 18/7/1 20/7/1
f 22/8/1 5/8/1 21/8/1
f 23/7/1 20/7/1 19/7/1
f 23/7/1 19/7/1 15/7/1
f 23/7/1 22/7/1 21/7/1
f 23/7/1 21/7/1 20/7/1
f 24/7/1 22/7/1 23/7/1
f 25/7/1 22/7/1 24/7/1
f 26/7/1 22/7/1 25/7/1
f 27/7/1 22/7/1 26/7/1
f 28/7/1 22/7/1 27/7/1
f 31/8/1 30/8/1 29/8/1
f 32/8/1 30/8/1 31/8/1
f 35/8/1 34/8/1 33/8/1
f 36/8/1 34/8/1 35/8/1
f 39/3/1 38/3/1 37/3/1
f 40/3/1 38/3/1 39/3/1
f 44/8/1 42/8/1 41/8/1
f 47/8/1 44/8/1 43/8/1
f 48/8/1 42/8/1 44/8/1
f 48/8/1 44/8/1 47/8/1
f 49/8/1 46/8/1 45/8/1
f 50/8/1 46/8/1 49/8/1
f 55/3/1 52/3/1 51/3/1
f 56/3/1 52/3/1 55/3/1
f 57/8/1 54/8/1 53/8/1
f 58/8/1 54/8/1 57/8/1
f 63/3/1 60/3/1 59/3/1
f 64/3/1 60/3/1 63/3/1
f 65/8/1 62/8/1 61/8/1
f 66/8/1 62/8/1 65/8/1
f 69/8/1 67/8/1 66/8/1
f 70/8/1 67/8/1 69/8/1
f 71/8/1 69/8/1 68/8/1
f 72/8/1 69/8/1 71/8/1
f 76/3/1 74/3/1 73/3/1
f 77/8/1 75/8/1 74/8/1
f 77/3/1 74/3/1 76/3/1
f 78/8/1 75/8/1 77/8/1
f 82/8/1 80/8/1 79/8/1
f 83/8/1 80/8/1 82/8/1
f 84/8/1 82/8/1 81/8/1
f 85/8/1 82/8/1 84/8/1
f 88/8/1 87/8/1 86/8/1
f 89/8/1 87/8/1 88/8/1
f 90/8/1 88/8/1 86/8/1
f 91/8/1 88/8/1 90/8/1
f 92/3/2 93/3/2 95/3/2
f 93/8/2 94/8/2 96/8/2
f 95/3/2 93/3/2 96/3/2
f 96/8/2 94/8/2 97/8/2
f 97/8/2 98/8/2 99/8/2
f 96/8/2 97/8/2 99/8/2
f 99/8/2 98/8/2 100/8/2
f 96/8/2 99/8/2 101/8/2
f 101/8/2 99/8/2 102/8/2
f 103/3/2 104/3/2 107/3/2
f 107/3/2 104/3/2 108/3/2
f 105/8/2 106/8/2 109/8/2
f 109/8/2 106/8/2 110/8/2
f 110/8/2 111/8/2 113/8/2
f 113/8/2 111/8/2 114/8/2
f 112/8/2 113/8/2 116/8/2
f 116/8/2 113/8/2 117/8/2
f 115/8/2 116/8/2 118/8/2
f 118/8/2 116/8/2 119/8/2
f 120/8/2 121/8/2 123/8/2
f 123/8/2 121/8/2 124/8/2
f 122/8/2 123/8/2 125/8/2
f 125/8/2 123/8/2 126/8/2
f 127/8/2 128/8/2 129/8/2
f 129/8/2 128/8/2 130/8/2
f 131/8/2 132/8/2 133/8/2
f 133/8/2 132/8/2 134/8/2
f 135/8/2 136/8/2 139/8/2
f 139/8/2 136/8/2 140/8/2
f 137/8/2 138/8/2 141/8/2
f 141/8/2 138/8/2 142/8/2
f 143/8/2 144/8/2 145/8/2
f 145/8/2 144/8/2 146/8/2
f 147/8/2 148/8/2 150/8/2
f 150/8/2 148/8/2 151/8/2
f 149/8/2 150/8/2 152/8/2
f 152/8/2 150/8/2 153/8/2
f 154/2/2 155/2/2 156/2/2
f 156/2/2 155/2/2 157/2/2
f 157/2/2 155/2/2 158/2/2
f 157/8/2 158/8/2 159/8/2
f 159/8/2 158/8/2 160/8/2
f 160/8/2 158/8/2 161/8/2
f 161/8/2 158/8/2 162/8/2
f 162/8/2 158/8/2 163/8/2
f 163/8/2 158/8/2 164/8/2
f 164/8/2 158/8/2 165/8/2
f 165/8/2 158/8/2 166/8/2
f 166/8/2 158/8/2 167/8/2
f 167/8/2 158/8/2 168/8/2
f 166/8/2 167/8/2 169/8/2
f 169/8/2 167/8/2 170/8/2
f 167/7/2 168/7/2 171/7/2
f 170/8/2 167/8/2 171/8/2
f 168/8/2 158/8/2 172/8/2
f 171/7/2 168/7/2 172/7/2
f 172/8/2 158/8/2 173/8/2
f 170/7/2 171/7/2 174/7/2
f 172/7/2 173/7/2 174/7/2
f 171/7/2 172/7/2 174/7/2
f 174/7/2 173/7/2 175/7/2
f 175/7/2 173/7/2 176/7/2
f 176/7/2 173/7/2 177/7/2
f 177/7/2 173/7/2 178/7/2
f 178/7/2 173/7/2 179/7/2
f 182/2/3 181/2/3 180/2/3
f 183/2/3 181/2/3 182/2/3
f 184/2/3 182/2/3 180/2/3
f 185/3/3 183/3/3 182/3/3
f 185/2/3 182/2/3 184/2/3
f 186/3/3 183/3/3 185/3/3
f 187/4/3 185/4/3 184/4/3
f 188/4/3 185/4/3 187/4/3
f 190/2/3 188/2/3 187/2/3
f 190/3/3 189/3/3 188/3/3
f 191/3/3 189/3/3 190/3/3
f 192/2/3 190/2/3 187/2/3
f 192/2/3 191/2/3 190/2/3
f 193/2/3 191/2/3 192/2/3
f 196/8/3 195/8/3 194/8/3
f 197/8/3 195/8/3 196/8/3
f 198/8/3 195/8/3 197/8/3
f 199/8/3 195/8/3 198/8/3
f 200/8/3 195/8/3 199/8/3
f 201/8/3 195/8/3 200/8/3
f 202/8/3 195/8/3 201/8/3
f 204/8/3 195/8/3 202/8/3
f 205/8/3 204/8/3 203/8/3
f 206/8/3 195/8/3 204/8/3
f 206/8/3 204/8/3 205/8/3
f 208/8/3 195/8/3 206/8/3
f 210/8/3 208/8/3 207/8/3
f 212/8/3 210/8/3 209/8/3
f 213/8/3 212/8/3 211/8/3
f 214/8/3 195/8/3 208/8/3
f 214/8/3 212/8/3 213/8/3
f 214/8/3 208/8/3 210/8/3
f 214/8/3 210/8/3 212/8/3
f 219/8/3 218/8/3 217/8/3
f 220/8/3 218/8/3 219/8/3
f 222/8/3 221/8/3 220/8/3
f 223/8/3 221/8/3 222/8/3
f 225/8/3 224/8/3 223/8/3
f 226/8/3 224/8/3 225/8/3
f 229/8/3 228/8/3 227/8/3
f 230/8/3 228/8/3 229/8/3
f 234/8/3 232/8/3 231/8/3
f 235/8/3 232/8/3 234/8/3
f 236/8/3 234/8/3 233/8/3
f 237/8/3 234/8/3 236/8/3
f 238/8/3 216/8/3 215/8/3
f 239/8/3 216/8/3 238/8/3
f 242/8/3 241/8/3 240/8/3
f 243/8/3 241/8/3 242/8/3
f 248/8/3 247/8/3 246/8/3
f 249/8/3 247/8/3 248/8/3
f 250/8/3 245/8/3 244/8/3
f 251/8/3 245/8/3 250/8/3
f 254/8/3 253/8/3 252/8/3
f 255/8/3 253/8/3 254/8/3
f 256/8/3 254/8/3 252/8/3
f 256/7/3 255/7/3 254/7/3
f 257/7/3 255/7/3 256/7/3
f 258/8/3 256/8/3 252/8/3
f 258/8/3 257/8/3 256/8/3
f 259/8/3 257/8/3 258/8/3
f 262/8/3 261/8/3 260/8/3
f 263/8/3 261/8/3 262/8/3
f 264/8/3 258/8/3 252/8/3
f 264/7/3 259/7/3 258/7/3
f 265/7/3 259/7/3 264/7/3
f 266/8/3 264/8/3 252/8/3
f 266/8/3 265/8/3 264/8/3
f 267/8/3 265/8/3 266/8/3
f 268/8/3 266/8/3 252/8/3
f 268/7/3 267/7/3 266/7/3
f 269/7/3 267/7/3 268/7/3
f 270/8/3 268/8/3 252/8/3
f 270/8/3 269/8/3 268/8/3
f 271/8/3 269/8/3 270/8/3
f 272/8/3 270/8/3 252/8/3
f 272/7/3 271/7/3 270/7/3
f 273/7/3 271/7/3 272/7/3
f 274/8/3 272/8/3 252/8/3
f 274/8/3 273/8/3 272/8/3
f 275/8/3 273/8/3 274/8/3
f 278/7/3 277/7/3 276/7/3
f 279/7/3 277/7/3 278/7/3
f 280/8/3 279/8/3 278/8/3
f 281/8/3 279/8/3 280/8/3
f 282/7/3 277/7/3 279/7/3
f 282/8/3 279/8/3 281/8/3
f 283/7/3 282/7/3 281/7/3
f 284/7/3 282/7/3 283/7/3
f 285/7/3 277/7/3 282/7/3
f 285/7/3 282/7/3 284/7/3
f 286/8/3 285/8/3 284/8/3
f 287/7/3 277/7/3 285/7/3
f 287/8/3 285/8/3 286/8/3
f 288/7/3 287/7/3 286/7/3
f 289/7/3 287/7/3 288/7/3
f 290/7/3 277/7/3 287/7/3
f 290/7/3 287/7/3 289/7/3
f 291/8/3 290/8/3 289/8/3
f 292/7/3 277/7/3 290/7/3
f 292/8/3 290/8/3 291/8/3
f 293/7/3 292/7/3 291/7/3
f 294/7/3 277/7/3 292/7/3
f 294/7/3 292/7/3 293/7/3
f 295/8/3 294/8/3 293/8/3
f 296/7/3 277/7/3 294/7/3
f 296/8/3 294/8/3 295/8/3
f 297/7/3 296/7/3 295/7/3
f 298/7/3 296/7/3 297/7/3
f 299/7/3 277/7/3 296/7/3
f 299/7/3 296/7/3 298/7/3
f 304/8/3 303/8/3 302/8/3
f 305/8/3 303/8/3 304/8/3
f 306/7/3 301/7/3 300/7/3
f 307/7/3 301/7/3 306/7/3
f 313/8/3 311/8/3 310/8/3
f 314/8/3 311/8/3 313/8/3
f 316/8/3 315/8/3 314/8/3
f 318/8/3 313/8/3 312/8/3
f 319/8/3 313/8/3 318/8/3
f 320/8/3 317/8/3 316/8/3
f 320/8/3 316/8/3 314/8/3
f 321/8/3 317/8/3 320/8/3
f 324/8/3 317/8/3 321/8/3
f 325/8/3 317/8/3 324/8/3
f 326/8/3 323/8/3 322/8/3
f 327/8/3 323/8/3 326/8/3
f 332/8/3 329/8/3 328/8/3
f 333/8/3 329/8/3 332/8/3
f 335/8/3 331/8/3 330/8/3
f 336/8/3 331/8/3 335/8/3
f 337/8/3 334/8/3 333/8/3
f 338/8/3 334/8/3 337/8/3
f 339/8/3 337/8/3 336/8/3
f 340/8/3 337/8/3 339/8/3
f 341/8/3 339/8/3 336/8/3
f 342/8/3 339/8/3 341/8/3
f 343/7/3 309/7/3 308/7/3
f 344/7/3 309/7/3 343/7/3
f 348/8/3 346/8/3 345/8/3
f 349/8/3 346/8/3 348/8/3
f 351/2/3 348/2/3 347/2/3
f 352/8/3 350/8/3 349/8/3
f 352/2/3 348/2/3 351/2/3
f 352/8/3 349/8/3 348/8/3
f 353/8/3 350/8/3 352/8/3
f 356/8/3 354/8/3 353/8/3
f 356/8/3 353/8/3 352/8/3
f 357/8/3 354/8/3 356/8/3
f 358/8/3 354/8/3 357/8/3
f 359/2/3 356/2/3 355/2/3
f 360/8/3 357/8/3 356/8/3
f 360/2/3 356/2/3 359/2/3
f 361/8/3 357/8/3 360/8/3
f 363/8/3 362/8/3 361/8/3
f 363/8/3 361/8/3 360/8/3
f 364/8/3 362/8/3 363/8/3
f 365/3/4 366/3/4 367/3/4
f 367/3/4 366/3/4 368/3/4
f 369/3/4 370/3/4 371/3/4
f 371/3/4 370/3/4 372/3/4
f 373/3/4 374/3/4 375/3/4
f 375/3/4 374/3/4 376/3/4
f 377/3/4 378/3/4 379/3/4
f 379/3/4 378/3/4 380/3/4
f 382/8/4 383/8/4 385/8/4
f 383/7/4 384/7/4 386/7/4
f 385/8/4 383/8/4 386/8/4
f 381/2/4 382/2/4 387/2/4
f 382/8/4 385/8/4 388/8/4
f 387/2/4 382/2/4 388/2/4
f 385/7/4 386/7/4 389/7/4
f 388/8/4 385/8/4 389/8/4
f 386/7/4 384/7/4 390/7/4
f 389/7/4 386/7/4 390/7/4
f 395/4/5 393/4/5 392/4/5
f 395/2/5 394/2/5 393/2/5
f 396/2/5 394/2/5 395/2/5
f 397/4/5 396/4/5 395/4/5
f 397/2/5 394/2/5 396/2/5
f 398/2/5 394/2/5 397/2/5
f 399/2/5 392/2/5 391/2/5
f 400/4/5 395/4/5 392/4/5
f 400/2/5 392/2/5 399/2/5
f 400/4/5 397/4/5 395/4/5
f 400/4/5 398/4/5 397/4/5
f 401/2/5 394/2/5 398/2/5
f 401/4/5 398/4/5 400/4/5
f 401/4/5 400/4/5 399/4/5
f 402/2/5 394/2/5 401/2/5
f 403/2/5 399/2/5 391/2/5
f 403/4/5 401/4/5 399/4/5
f 403/4/5 402/4/5 401/4/5
f 404/2/5 394/2/5 402/2/5
f 404/4/5 402/4/5 403/4/5
f 405/2/5 403/2/5 391/2/5
f 405/2/5 404/2/5 403/2/5
f 406/2/5 394/2/5 404/2/5
f 406/2/5 404/2/5 405/2/5
f 411/8/5 408/8/5 407/8/5
f 412/8/5 408/8/5 411/8/5
f 416/8/5 410/8/5 409/8/5
f 417/8/5 410/8/5 416/8/5
f 418/8/5 413/8/5 412/8/5
f 419/8/5 413/8/5 418/8/5
f 420/8/5 415/8/5 414/8/5
f 421/8/5 415/8/5 420/8/5
f 426/8/5 423/8/5 422/8/5
f 427/8/5 423/8/5 426/8/5
f 430/8/5 425/8/5 424/8/5
f 431/8/5 425/8/5 430/8/5
f 434/8/5 428/8/5 427/8/5
f 435/8/5 428/8/5 434/8/5
f 438/8/5 433/8/5 432/8/5
f 439/8/5 433/8/5 438/8/5
f 440/8/5 430/8/5 429/8/5
f 441/8/5 430/8/5 440/8/5
f 442/8/5 437/8/5 436/8/5
f 443/8/5 437/8/5 442/8/5
f 444/8/5 440/8/5 439/8/5
f 445/8/5 440/8/5 444/8/5
f 452/8/5 447/8/5 446/8/5
f 453/8/5 447/8/5 452/8/5
f 454/8/5 449/8/5 448/8/5
f 455/8/5 449/8/5 454/8/5
f 456/8/5 451/8/5 450/8/5
f 457/8/5 451/8/5 456/8/5
f 458/8/5 451/8/5 457/8/5
f 459/8/5 455/8/5 454/8/5
f 459/8/5 457/8/5 456/8/5
f 459/8/5 456/8/5 455/8/5
f 459/8/5 454/8/5 453/8/5
f 460/8/5 457/8/5 459/8/5
f 461/8/5 459/8/5 453/8/5
f 462/8/5 459/8/5 461/8/5
f 463/8/5 457/8/5 460/8/5
f 464/8/5 457/8/5 463/8/5
f 465/8/5 459/8/5 462/8/5
f 466/8/5 459/8/5 465/8/5
f 471/8/5 468/8/5 467/8/5
f 472/8/5 468/8/5 471/8/5
f 473/8/5 470/8/5 469/8/5
f 474/8/5 470/8/5 473/8/5
f 475/4/6 476/4/6 477/4/6
f 477/4/6 478/4/6 479/4/6
f 475/4/6 477/4/6 482/4/6
f 479/4/6 480/4/6 482/4/6
f 477/4/6 479/4/6 482/4/6
f 482/4/6 480/4/6 483/4/6
f 481/4/6 482/4/6 483/4/6
f 481/4/6 483/4/6 485/4/6
f 483/4/6 484/4/6 485/4/6
f 485/4/6 484/4/6 486/4/6
f 485/4/6 486/4/6 487/4/6
f 487/4/6 486/4/6 488/4/6
f 485/4/6 487/4/6 489/4/6
f 489/4/6 487/4/6 490/4/6
f 490/4/6 487/4/6 491/4/6
f 491/4/6 487/4/6 492/4/6
f 492/4/6 487/4/6 493/4/6
f 493/4/6 487/4/6 494/4/6
f 494/4/6 487/4/6 495/4/6
f 495/4/6 487/4/6 496/4/6
f 492/4/6 493/4/6 497/4/6
f 497/4/6 493/4/6 498/4/6
f 494/4/6 495/4/6 499/4/6
f 499/4/6 495/4/6 500/4/6
f 504/3/6 505/3/6 507/3/6
f 505/2/6 506/2/6 508/2/6
f 507/3/6 505/3/6 508/3/6
f 508/2/6 506/2/6 509/2/6
f 501/2/6 502/2/6 510/2/6
f 502/3/6 503/3/6 511/3/6
f 510/2/6 502/2/6 511/2/6
f 508/3/6 509/3/6 512/3/6
f 509/2/6 506/2/6 513/2/6
f 512/3/6 509/3/6 513/3/6
f 513/2/6 506/2/6 514/2/6
f 501/2/6 510/2/6 515/2/6
f 515/2/6 510/2/6 516/2/6
f 510/6/6 511/6/6 517/6/6
f 516/2/6 510/2/6 517/2/6
f 511/3/6 503/3/6 518/3/6
f 517/6/6 511/6/6 518/6/6
f 518/3/6 503/3/6 519/3/6
f 515/5/6 516/5/6 520/5/6
f 501/2/6 515/2/6 520/2/6
f 516/2/6 517/2/6 521/2/6
f 520/5/6 516/5/6 521/5/6
f 521/2/6 517/2/6 522/2/6
f 513/3/6 514/3/6 523/3/6
f 514/2/6 506/2/6 524/2/6
f 523/3/6 514/3/6 524/3/6
f 524/2/6 506/2/6 525/2/6
f 501/2/6 520/2/6 526/2/6
f 520/1/6 521/1/6 526/1/6
f 521/5/6 522/5/6 527/5/6
f 526/1/6 521/1/6 527/1/6
f 522/2/6 517/2/6 528/2/6
f 527/5/6 522/5/6 528/5/6
f 526/2/6 527/2/6 529/2/6
f 501/2/6 526/2/6 529/2/6
f 527/2/6 528/2/6 529/2/6
f 528/2/6 517/2/6 530/2/6
f 529/2/6 528/2/6 530/2/6
f 517/3/6 518/3/6 530/3/6
f 530/3/6 518/3/6 531/3/6
f 524/3/6 525/3/6 532/3/6
f 525/2/6 506/2/6 533/2/6
f 532/3/6 525/3/6 533/3/6
f 533/2/6 506/2/6 534/2/6
f 532/8/6 533/8/6 536/8/6
f 537/8/6 538/8/6 539/8/6
f 539/8/6 538/8/6 540/8/6
f 535/8/6 536/8/6 545/8/6
f 536/8/6 533/8/6 546/8/6
f 545/8/6 536/8/6 546/8/6
f 540/8/6 541/8/6 547/8/6
f 547/8/6 541/8/6 548/8/6
f 542/8/6 543/8/6 549/8/6
f 549/8/6 543/8/6 550/8/6
f 544/8/6 545/8/6 551/8/6
f 551/8/6 545/8/6 552/8/6
f 553/8/6 554/8/6 555/8/6
f 555/8/6 554/8/6 556/8/6
f 557/8/6 558/8/6 559/8/6
f 559/8/6 558/8/6 560/8/6
f 561/8/6 562/8/6 563/8/6
f 563/8/6 562/8/6 564/8/6
f 565/8/6 566/8/6 567/8/6
f 567/8/6 566/8/6 568/8/6
f 569/8/6 570/8/6 579/8/6
f 579/8/6 570/8/6 580/8/6
f 570/7/6 571/7/6 581/7/6
f 580/8/6 570/8/6 581/8/6
f 571/8/6 572/8/6 582/8/6
f 581/7/6 571/7/6 582/7/6
f 572/7/6 573/7/6 583/7/6
f 582/8/6 572/8/6 583/8/6
f 583/7/6 573/7/6 584/7/6
f 573/8/6 574/8/6 585/8/6
f 584/7/6 573/7/6 585/7/6
f 574/7/6 575/7/6 586/7/6
f 585/8/6 574/8/6 586/8/6
f 586/7/6 575/7/6 587/7/6
f 575/8/6 576/8/6 588/8/6
f 587/7/6 575/7/6 588/7/6
f 588/8/6 576/8/6 589/8/6
f 576/7/6 577/7/6 590/7/6
f 589/8/6 576/8/6 590/8/6
f 577/8/6 578/8/6 591/8/6
f 590/7/6 577/7/6 591/7/6
f 591/8/6 578/8/6 592/8/6
f 593/7/6 594/7/6 595/7/6
f 595/7/6 594/7/6 596/7/6
f 597/7/6 598/7/6 599/7/6
f 599/7/6 598/7/6 600/7/6
f 601/7/6 602/7/6 603/7/6
f 603/7/6 602/7/6 604/7/6
