# MagicaVoxel @ Ephtracy

# group
o 

# material
mtllib River_2.mtl
usemtl palette

# normals
vn -1 0 0
vn 1 0 0
vn 0 0 1
vn 0 0 -1
vn 0 -1 0
vn 0 1 0

# texcoords
vt 0.181641 0.5
vt 0.302734 0.5
vt 0.341797 0.5
vt 0.435547 0.5
vt 0.462891 0.5
vt 0.587891 0.5

# verts
v -0.8 0 0.8
v -0.8 0 0.2
v -0.8 0 -0.2
v -0.8 0 -0.8
v -0.8 0.1 0.3
v -0.8 0.1 0.2
v -0.8 0.1 -0.2
v -0.8 0.1 -0.3
v -0.8 0.2 0.8
v -0.8 0.2 0.3
v -0.8 0.2 0.2
v -0.8 0.2 -0.2
v -0.8 0.2 -0.3
v -0.8 0.2 -0.8
v 0.8 0 0.8
v 0.8 0 0.2
v 0.8 0 -0.2
v 0.8 0 -0.8
v 0.8 0.1 0.3
v 0.8 0.1 0.2
v 0.8 0.1 -0.2
v 0.8 0.1 -0.3
v 0.8 0.2 0.8
v 0.8 0.2 0.3
v 0.8 0.2 0.2
v 0.8 0.2 -0.2
v 0.8 0.2 -0.3
v 0.8 0.2 -0.8
v -0.8 0 0.8
v -0.8 0.2 0.8
v 0.8 0 0.8
v 0.8 0.2 0.8
v -0.8 0.1 -0.2
v -0.8 0.2 -0.2
v 0.8 0.1 -0.2
v 0.8 0.2 -0.2
v -0.8 0.1 0.2
v -0.8 0.2 0.2
v 0.8 0.1 0.2
v 0.8 0.2 0.2
v -0.8 0 -0.8
v -0.8 0.2 -0.8
v 0.8 0 -0.8
v 0.8 0.2 -0.8
v -0.8 0 0.8
v 0.8 0 0.8
v -0.8 0 0.2
v 0.8 0 0.2
v -0.8 0 -0.2
v 0.8 0 -0.2
v -0.8 0 -0.8
v 0.8 0 -0.8
v -0.8 0.1 0.2
v 0.8 0.1 0.2
v -0.8 0.1 -0.2
v 0.8 0.1 -0.2
v -0.8 0.2 0.8
v 0.8 0.2 0.8
v 0.6 0.2 0.7
v 0.7 0.2 0.7
v -0.1 0.2 0.6
v 0 0.2 0.6
v 0.1 0.2 0.6
v 0.5 0.2 0.6
v 0.6 0.2 0.6
v 0.7 0.2 0.6
v -0.6 0.2 0.5
v -0.5 0.2 0.5
v -0.4 0.2 0.5
v -0.1 0.2 0.5
v 0 0.2 0.5
v 0.1 0.2 0.5
v 0.5 0.2 0.5
v 0.6 0.2 0.5
v 0.7 0.2 0.5
v -0.6 0.2 0.4
v -0.5 0.2 0.4
v -0.4 0.2 0.4
v 0 0.2 0.4
v 0.1 0.2 0.4
v -0.8 0.2 0.3
v -0.5 0.2 0.3
v -0.4 0.2 0.3
v 0.8 0.2 0.3
v -0.8 0.2 0.2
v 0.8 0.2 0.2
v -0.8 0.2 -0.2
v 0.8 0.2 -0.2
v -0.8 0.2 -0.3
v 0.8 0.2 -0.3
v 0.4 0.2 -0.4
v 0.5 0.2 -0.4
v 0.6 0.2 -0.4
v -0.1 0.2 -0.5
v 0 0.2 -0.5
v 0.4 0.2 -0.5
v 0.5 0.2 -0.5
v 0.6 0.2 -0.5
v -0.2 0.2 -0.6
v -0.1 0.2 -0.6
v 0 0.2 -0.6
v 0.5 0.2 -0.6
v 0.6 0.2 -0.6
v -0.2 0.2 -0.7
v -0.1 0.2 -0.7
v 0 0.2 -0.7
v -0.8 0.2 -0.8
v 0.8 0.2 -0.8

# faces
f 5/2/1 2/2/1 1/2/1
f 6/6/1 3/6/1 2/6/1
f 6/2/1 2/2/1 5/2/1
f 7/2/1 4/2/1 3/2/1
f 7/6/1 3/6/1 6/6/1
f 8/2/1 4/2/1 7/2/1
f 9/2/1 5/2/1 1/2/1
f 10/3/1 6/3/1 5/3/1
f 10/2/1 5/2/1 9/2/1
f 11/3/1 6/3/1 10/3/1
f 12/3/1 8/3/1 7/3/1
f 13/2/1 4/2/1 8/2/1
f 13/3/1 8/3/1 12/3/1
f 14/2/1 4/2/1 13/2/1
f 15/2/2 16/2/2 19/2/2
f 16/6/2 17/6/2 20/6/2
f 19/2/2 16/2/2 20/2/2
f 17/2/2 18/2/2 21/2/2
f 20/6/2 17/6/2 21/6/2
f 21/2/2 18/2/2 22/2/2
f 15/2/2 19/2/2 23/2/2
f 19/3/2 20/3/2 24/3/2
f 23/2/2 19/2/2 24/2/2
f 24/3/2 20/3/2 25/3/2
f 21/3/2 22/3/2 26/3/2
f 22/2/2 18/2/2 27/2/2
f 26/3/2 22/3/2 27/3/2
f 27/2/2 18/2/2 28/2/2
f 31/2/3 30/2/3 29/2/3
f 32/2/3 30/2/3 31/2/3
f 35/3/3 34/3/3 33/3/3
f 36/3/3 34/3/3 35/3/3
f 37/3/4 38/3/4 39/3/4
f 39/3/4 38/3/4 40/3/4
f 41/2/4 42/2/4 43/2/4
f 43/2/4 42/2/4 44/2/4
f 47/2/5 46/2/5 45/2/5
f 48/2/5 46/2/5 47/2/5
f 49/6/5 48/6/5 47/6/5
f 50/6/5 48/6/5 49/6/5
f 51/2/5 50/2/5 49/2/5
f 52/2/5 50/2/5 51/2/5
f 53/6/6 54/6/6 55/6/6
f 55/6/6 54/6/6 56/6/6
f 57/2/6 58/2/6 59/2/6
f 59/2/6 58/2/6 60/2/6
f 57/2/6 59/2/6 61/2/6
f 61/2/6 59/2/6 62/2/6
f 62/2/6 59/2/6 63/2/6
f 63/2/6 59/2/6 64/2/6
f 59/5/6 60/5/6 65/5/6
f 64/2/6 59/2/6 65/2/6
f 60/2/6 58/2/6 66/2/6
f 65/5/6 60/5/6 66/5/6
f 57/2/6 61/2/6 67/2/6
f 67/2/6 61/2/6 68/2/6
f 68/2/6 61/2/6 69/2/6
f 61/5/6 62/5/6 70/5/6
f 69/2/6 61/2/6 70/2/6
f 62/1/6 63/1/6 71/1/6
f 70/5/6 62/5/6 71/5/6
f 63/2/6 64/2/6 72/2/6
f 71/1/6 63/1/6 72/1/6
f 64/5/6 65/5/6 73/5/6
f 72/2/6 64/2/6 73/2/6
f 65/4/6 66/4/6 74/4/6
f 73/5/6 65/5/6 74/5/6
f 66/2/6 58/2/6 75/2/6
f 74/4/6 66/4/6 75/4/6
f 57/2/6 67/2/6 76/2/6
f 67/5/6 68/5/6 76/5/6
f 68/1/6 69/1/6 77/1/6
f 76/5/6 68/5/6 77/5/6
f 70/2/6 71/2/6 78/2/6
f 77/1/6 69/1/6 78/1/6
f 69/2/6 70/2/6 78/2/6
f 71/5/6 72/5/6 79/5/6
f 78/2/6 71/2/6 79/2/6
f 73/2/6 74/2/6 80/2/6
f 79/5/6 72/5/6 80/5/6
f 74/2/6 75/2/6 80/2/6
f 72/2/6 73/2/6 80/2/6
f 76/2/6 77/2/6 81/2/6
f 57/2/6 76/2/6 81/2/6
f 77/5/6 78/5/6 82/5/6
f 81/2/6 77/2/6 82/2/6
f 78/2/6 79/2/6 83/2/6
f 82/5/6 78/5/6 83/5/6
f 79/2/6 80/2/6 83/2/6
f 80/2/6 75/2/6 84/2/6
f 83/2/6 80/2/6 84/2/6
f 75/2/6 58/2/6 84/2/6
f 82/3/6 83/3/6 85/3/6
f 81/3/6 82/3/6 85/3/6
f 83/3/6 84/3/6 85/3/6
f 85/3/6 84/3/6 86/3/6
f 87/3/6 88/3/6 89/3/6
f 89/3/6 88/3/6 90/3/6
f 89/2/6 90/2/6 91/2/6
f 91/2/6 90/2/6 92/2/6
f 92/2/6 90/2/6 93/2/6
f 89/2/6 91/2/6 94/2/6
f 94/2/6 91/2/6 95/2/6
f 91/5/6 92/5/6 96/5/6
f 95/2/6 91/2/6 96/2/6
f 92/1/6 93/1/6 97/1/6
f 96/5/6 92/5/6 97/5/6
f 93/2/6 90/2/6 98/2/6
f 97/1/6 93/1/6 98/1/6
f 89/2/6 94/2/6 99/2/6
f 94/5/6 95/5/6 100/5/6
f 99/2/6 94/2/6 100/2/6
f 96/2/6 97/2/6 101/2/6
f 100/5/6 95/5/6 101/5/6
f 95/2/6 96/2/6 101/2/6
f 97/5/6 98/5/6 102/5/6
f 101/2/6 97/2/6 102/2/6
f 98/2/6 90/2/6 103/2/6
f 102/5/6 98/5/6 103/5/6
f 99/5/6 100/5/6 104/5/6
f 89/2/6 99/2/6 104/2/6
f 100/4/6 101/4/6 105/4/6
f 104/5/6 100/5/6 105/5/6
f 102/2/6 103/2/6 106/2/6
f 105/4/6 101/4/6 106/4/6
f 101/2/6 102/2/6 106/2/6
f 104/2/6 105/2/6 107/2/6
f 89/2/6 104/2/6 107/2/6
f 105/2/6 106/2/6 107/2/6
f 103/2/6 90/2/6 108/2/6
f 107/2/6 106/2/6 108/2/6
f 106/2/6 103/2/6 108/2/6
