# MagicaVoxel @ Ephtracy

# group
o 

# material
mtllib Road_X_turn_1.mtl
usemtl palette

# normals
vn -1 0 0
vn 1 0 0
vn 0 0 1
vn 0 0 -1
vn 0 -1 0
vn 0 1 0

# texcoords
vt 0.0410156 0.5
vt 0.162109 0.5
vt 0.302734 0.5
vt 0.341797 0.5
vt 0.361328 0.5
vt 0.369141 0.5
vt 0.373047 0.5
vt 0.462891 0.5
vt 0.466797 0.5
vt 0.537109 0.5
vt 0.748047 0.5

# verts
v -0.8 0 0.8
v -0.8 0 -0.8
v -0.8 0.1 0.2
v -0.8 0.1 0.1
v -0.8 0.1 -0.1
v -0.8 0.1 -0.2
v -0.8 0.2 0.8
v -0.8 0.2 0.2
v -0.8 0.2 0.1
v -0.8 0.2 -0.1
v -0.8 0.2 -0.2
v -0.8 0.2 -0.8
v -0.7 0.2 0.7
v -0.7 0.2 0.5
v -0.7 0.2 -0.4
v -0.7 0.2 -0.5
v -0.7 0.2 -0.6
v -0.7 0.3 0.6
v -0.7 0.3 0.5
v -0.7 0.3 -0.4
v -0.7 0.3 -0.5
v -0.7 0.3 -0.6
v -0.7 0.4 0.7
v -0.7 0.4 0.6
v -0.6 0.5 -0.5
v -0.6 0.5 -0.6
v -0.6 0.6 -0.5
v -0.6 0.6 -0.6
v -0.5 0.2 0.6
v -0.5 0.2 0.5
v -0.5 0.2 -0.4
v -0.5 0.2 -0.5
v -0.5 0.2 -0.6
v -0.5 0.3 0.6
v -0.5 0.3 0.5
v -0.5 0.3 -0.4
v -0.5 0.3 -0.5
v -0.5 0.5 -0.4
v -0.5 0.5 -0.5
v -0.5 0.5 -0.6
v -0.5 0.5 -0.7
v -0.5 0.6 -0.4
v -0.5 0.6 -0.5
v -0.5 0.6 -0.6
v -0.5 0.6 -0.7
v -0.5 0.7 -0.5
v -0.5 0.7 -0.6
v -0.4 0.2 0.3
v -0.4 0.2 0.2
v -0.4 0.3 0.3
v -0.4 0.3 0.2
v -0.4 0.3 -0.4
v -0.4 0.3 -0.5
v -0.4 0.4 -0.4
v -0.4 0.4 -0.5
v 0.2 0.2 0.4
v 0.2 0.2 0.3
v 0.2 0.3 0.4
v 0.2 0.3 0.3
v 0.3 0.3 0.4
v 0.3 0.3 0.3
v 0.3 0.4 0.4
v 0.3 0.4 0.3
v 0.4 0.2 0.7
v 0.4 0.2 0.6
v 0.4 0.2 0.5
v 0.4 0.2 -0.6
v 0.4 0.2 -0.7
v 0.4 0.3 0.7
v 0.4 0.3 0.6
v 0.4 0.3 0.5
v 0.4 0.4 -0.6
v 0.4 0.4 -0.7
v 0.5 0.2 -0.3
v 0.5 0.2 -0.4
v 0.5 0.4 -0.3
v 0.5 0.4 -0.4
v 0.6 0.2 0.5
v 0.6 0.2 0.4
v 0.6 0.2 0.3
v 0.6 0.2 -0.2
v 0.6 0.2 -0.3
v 0.6 0.3 0.5
v 0.6 0.3 0.4
v 0.6 0.3 0.3
v 0.6 0.3 -0.2
v 0.6 0.3 -0.3
v -0.6 0.2 0.6
v -0.6 0.2 0.5
v -0.6 0.2 -0.4
v -0.6 0.2 -0.5
v -0.6 0.2 -0.6
v -0.6 0.3 0.7
v -0.6 0.3 0.6
v -0.6 0.3 0.5
v -0.6 0.3 -0.4
v -0.6 0.3 -0.5
v -0.6 0.3 -0.6
v -0.6 0.4 0.7
v -0.6 0.4 0.6
v -0.5 0.2 0.7
v -0.5 0.2 0.6
v -0.5 0.3 0.7
v -0.5 0.3 0.6
v -0.4 0.2 0.6
v -0.4 0.2 0.5
v -0.4 0.2 -0.5
v -0.4 0.2 -0.6
v -0.4 0.3 0.6
v -0.4 0.3 0.5
v -0.4 0.4 -0.5
v -0.4 0.5 -0.4
v -0.4 0.5 -0.5
v -0.4 0.5 -0.6
v -0.4 0.5 -0.7
v -0.4 0.6 -0.4
v -0.4 0.6 -0.5
v -0.4 0.6 -0.6
v -0.4 0.6 -0.7
v -0.4 0.7 -0.5
v -0.4 0.7 -0.6
v -0.3 0.2 0.3
v -0.3 0.2 0.2
v -0.3 0.2 -0.4
v -0.3 0.2 -0.5
v -0.3 0.3 0.3
v -0.3 0.3 0.2
v -0.3 0.4 -0.4
v -0.3 0.4 -0.5
v -0.3 0.5 -0.5
v -0.3 0.5 -0.6
v -0.3 0.6 -0.5
v -0.3 0.6 -0.6
v 0.4 0.2 0.4
v 0.4 0.2 0.3
v 0.4 0.4 0.4
v 0.4 0.4 0.3
v 0.5 0.2 0.7
v 0.5 0.2 0.6
v 0.5 0.2 0.5
v 0.5 0.3 0.7
v 0.5 0.3 0.6
v 0.5 0.3 0.5
v 0.5 0.3 -0.6
v 0.5 0.3 -0.7
v 0.5 0.4 -0.6
v 0.5 0.4 -0.7
v 0.6 0.2 -0.3
v 0.6 0.2 -0.4
v 0.6 0.2 -0.6
v 0.6 0.2 -0.7
v 0.6 0.3 -0.3
v 0.6 0.3 -0.6
v 0.6 0.3 -0.7
v 0.6 0.4 -0.3
v 0.6 0.4 -0.4
v 0.7 0.2 0.5
v 0.7 0.2 0.4
v 0.7 0.2 0.3
v 0.7 0.2 -0.2
v 0.7 0.2 -0.3
v 0.7 0.3 0.5
v 0.7 0.3 0.4
v 0.7 0.3 0.3
v 0.7 0.3 -0.2
v 0.7 0.3 -0.3
v 0.8 0 0.8
v 0.8 0 -0.8
v 0.8 0.1 0.2
v 0.8 0.1 0.1
v 0.8 0.1 -0.1
v 0.8 0.1 -0.2
v 0.8 0.2 0.8
v 0.8 0.2 0.2
v 0.8 0.2 0.1
v 0.8 0.2 -0.1
v 0.8 0.2 -0.2
v 0.8 0.2 -0.8
v -0.8 0 0.8
v -0.8 0.2 0.8
v -0.2 0.1 0.8
v -0.2 0.2 0.8
v -0.1 0.1 0.8
v -0.1 0.2 0.8
v 0.1 0.1 0.8
v 0.1 0.2 0.8
v 0.2 0.1 0.8
v 0.2 0.2 0.8
v 0.8 0 0.8
v 0.8 0.2 0.8
v -0.7 0.2 0.7
v -0.7 0.4 0.7
v -0.6 0.3 0.7
v -0.6 0.4 0.7
v -0.5 0.2 0.7
v -0.5 0.3 0.7
v 0.4 0.2 0.7
v 0.4 0.3 0.7
v 0.5 0.2 0.7
v 0.5 0.3 0.7
v -0.5 0.2 0.6
v -0.5 0.3 0.6
v -0.4 0.2 0.6
v -0.4 0.3 0.6
v 0.6 0.2 0.5
v 0.6 0.3 0.5
v 0.7 0.2 0.5
v 0.7 0.3 0.5
v 0.2 0.2 0.4
v 0.2 0.3 0.4
v 0.3 0.3 0.4
v 0.3 0.4 0.4
v 0.4 0.2 0.4
v 0.4 0.4 0.4
v -0.4 0.2 0.3
v -0.4 0.3 0.3
v -0.3 0.2 0.3
v -0.3 0.3 0.3
v 0.6 0.2 -0.2
v 0.6 0.3 -0.2
v 0.7 0.2 -0.2
v 0.7 0.3 -0.2
v 0.5 0.2 -0.3
v 0.5 0.4 -0.3
v 0.6 0.2 -0.3
v 0.6 0.3 -0.3
v 0.6 0.4 -0.3
v -0.7 0.2 -0.4
v -0.7 0.3 -0.4
v -0.6 0.2 -0.4
v -0.6 0.3 -0.4
v -0.5 0.2 -0.4
v -0.5 0.3 -0.4
v -0.5 0.5 -0.4
v -0.5 0.6 -0.4
v -0.4 0.3 -0.4
v -0.4 0.4 -0.4
v -0.4 0.5 -0.4
v -0.4 0.6 -0.4
v -0.3 0.2 -0.4
v -0.3 0.4 -0.4
v -0.6 0.5 -0.5
v -0.6 0.6 -0.5
v -0.5 0.3 -0.5
v -0.5 0.5 -0.5
v -0.5 0.6 -0.5
v -0.5 0.7 -0.5
v -0.4 0.3 -0.5
v -0.4 0.4 -0.5
v -0.4 0.5 -0.5
v -0.4 0.6 -0.5
v -0.4 0.7 -0.5
v -0.3 0.5 -0.5
v -0.3 0.6 -0.5
v 0.4 0.2 -0.6
v 0.4 0.4 -0.6
v 0.5 0.3 -0.6
v 0.5 0.4 -0.6
v 0.6 0.2 -0.6
v 0.6 0.3 -0.6
v -0.7 0.3 0.6
v -0.7 0.4 0.6
v -0.6 0.2 0.6
v -0.6 0.3 0.6
v -0.6 0.4 0.6
v -0.5 0.2 0.6
v -0.5 0.3 0.6
v -0.7 0.2 0.5
v -0.7 0.3 0.5
v -0.6 0.2 0.5
v -0.6 0.3 0.5
v -0.5 0.2 0.5
v -0.5 0.3 0.5
v -0.4 0.2 0.5
v -0.4 0.3 0.5
v 0.4 0.2 0.5
v 0.4 0.3 0.5
v 0.5 0.2 0.5
v 0.5 0.3 0.5
v 0.2 0.2 0.3
v 0.2 0.3 0.3
v 0.3 0.3 0.3
v 0.3 0.4 0.3
v 0.4 0.2 0.3
v 0.4 0.4 0.3
v 0.6 0.2 0.3
v 0.6 0.3 0.3
v 0.7 0.2 0.3
v 0.7 0.3 0.3
v -0.4 0.2 0.2
v -0.4 0.3 0.2
v -0.3 0.2 0.2
v -0.3 0.3 0.2
v 0.6 0.2 -0.3
v 0.6 0.3 -0.3
v 0.7 0.2 -0.3
v 0.7 0.3 -0.3
v 0.5 0.2 -0.4
v 0.5 0.4 -0.4
v 0.6 0.2 -0.4
v 0.6 0.4 -0.4
v -0.4 0.2 -0.5
v -0.4 0.4 -0.5
v -0.3 0.2 -0.5
v -0.3 0.4 -0.5
v -0.7 0.2 -0.6
v -0.7 0.3 -0.6
v -0.6 0.2 -0.6
v -0.6 0.3 -0.6
v -0.6 0.5 -0.6
v -0.6 0.6 -0.6
v -0.5 0.2 -0.6
v -0.5 0.5 -0.6
v -0.5 0.6 -0.6
v -0.5 0.7 -0.6
v -0.4 0.2 -0.6
v -0.4 0.5 -0.6
v -0.4 0.6 -0.6
v -0.4 0.7 -0.6
v -0.3 0.5 -0.6
v -0.3 0.6 -0.6
v -0.5 0.5 -0.7
v -0.5 0.6 -0.7
v -0.4 0.5 -0.7
v -0.4 0.6 -0.7
v 0.4 0.2 -0.7
v 0.4 0.4 -0.7
v 0.5 0.3 -0.7
v 0.5 0.4 -0.7
v 0.6 0.2 -0.7
v 0.6 0.3 -0.7
v -0.8 0 -0.8
v -0.8 0.2 -0.8
v -0.2 0.1 -0.8
v -0.2 0.2 -0.8
v -0.1 0.1 -0.8
v -0.1 0.2 -0.8
v 0.1 0.1 -0.8
v 0.1 0.2 -0.8
v 0.2 0.1 -0.8
v 0.2 0.2 -0.8
v 0.8 0 -0.8
v 0.8 0.2 -0.8
v -0.8 0 0.8
v 0.8 0 0.8
v -0.8 0 -0.8
v 0.8 0 -0.8
v -0.5 0.5 -0.4
v -0.4 0.5 -0.4
v -0.6 0.5 -0.5
v -0.5 0.5 -0.5
v -0.4 0.5 -0.5
v -0.3 0.5 -0.5
v -0.6 0.5 -0.6
v -0.5 0.5 -0.6
v -0.4 0.5 -0.6
v -0.3 0.5 -0.6
v -0.5 0.5 -0.7
v -0.4 0.5 -0.7
v -0.8 0.2 0.8
v -0.2 0.2 0.8
v -0.1 0.2 0.8
v 0.1 0.2 0.8
v 0.2 0.2 0.8
v 0.8 0.2 0.8
v -0.7 0.2 0.7
v -0.5 0.2 0.7
v -0.3 0.2 0.7
v -0.2 0.2 0.7
v -0.1 0.2 0.7
v 0.1 0.2 0.7
v 0.2 0.2 0.7
v 0.3 0.2 0.7
v 0.4 0.2 0.7
v 0.5 0.2 0.7
v -0.6 0.2 0.6
v -0.5 0.2 0.6
v -0.4 0.2 0.6
v -0.2 0.2 0.6
v -0.1 0.2 0.6
v 0.1 0.2 0.6
v 0.2 0.2 0.6
v 0.4 0.2 0.6
v 0.5 0.2 0.6
v -0.7 0.2 0.5
v -0.6 0.2 0.5
v -0.5 0.2 0.5
v -0.4 0.2 0.5
v -0.2 0.2 0.5
v -0.1 0.2 0.5
v 0.1 0.2 0.5
v 0.2 0.2 0.5
v 0.3 0.2 0.5
v 0.4 0.2 0.5
v 0.5 0.2 0.5
v 0.6 0.2 0.5
v 0.7 0.2 0.5
v -0.3 0.2 0.4
v -0.2 0.2 0.4
v -0.1 0.2 0.4
v 0.2 0.2 0.4
v 0.4 0.2 0.4
v 0.6 0.2 0.4
v 0.7 0.2 0.4
v -0.7 0.2 0.3
v -0.4 0.2 0.3
v -0.3 0.2 0.3
v -0.1 0.2 0.3
v 0 0.2 0.3
v 0.1 0.2 0.3
v 0.2 0.2 0.3
v 0.4 0.2 0.3
v 0.5 0.2 0.3
v 0.6 0.2 0.3
v 0.7 0.2 0.3
v -0.8 0.2 0.2
v -0.7 0.2 0.2
v -0.6 0.2 0.2
v -0.5 0.2 0.2
v -0.4 0.2 0.2
v -0.3 0.2 0.2
v -0.2 0.2 0.2
v -0.1 0.2 0.2
v 0 0.2 0.2
v 0.2 0.2 0.2
v 0.3 0.2 0.2
v 0.4 0.2 0.2
v 0.5 0.2 0.2
v 0.8 0.2 0.2
v -0.8 0.2 0.1
v -0.7 0.2 0.1
v -0.6 0.2 0.1
v -0.5 0.2 0.1
v -0.4 0.2 0.1
v -0.2 0.2 0.1
v 0.3 0.2 0.1
v 0.4 0.2 0.1
v 0.5 0.2 0.1
v 0.8 0.2 0.1
v -0.8 0.2 -0.1
v -0.7 0.2 -0.1
v -0.6 0.2 -0.1
v -0.5 0.2 -0.1
v -0.4 0.2 -0.1
v 0.5 0.2 -0.1
v 0.6 0.2 -0.1
v 0.8 0.2 -0.1
v -0.8 0.2 -0.2
v -0.7 0.2 -0.2
v -0.6 0.2 -0.2
v -0.5 0.2 -0.2
v -0.4 0.2 -0.2
v -0.3 0.2 -0.2
v -0.2 0.2 -0.2
v 0.2 0.2 -0.2
v 0.3 0.2 -0.2
v 0.5 0.2 -0.2
v 0.6 0.2 -0.2
v 0.7 0.2 -0.2
v 0.8 0.2 -0.2
v -0.7 0.2 -0.3
v -0.5 0.2 -0.3
v -0.4 0.2 -0.3
v -0.3 0.2 -0.3
v -0.2 0.2 -0.3
v 0.2 0.2 -0.3
v 0.3 0.2 -0.3
v 0.5 0.2 -0.3
v 0.6 0.2 -0.3
v 0.7 0.2 -0.3
v -0.7 0.2 -0.4
v -0.6 0.2 -0.4
v -0.5 0.2 -0.4
v -0.3 0.2 -0.4
v -0.2 0.2 -0.4
v -0.1 0.2 -0.4
v 0.1 0.2 -0.4
v 0.2 0.2 -0.4
v 0.5 0.2 -0.4
v 0.6 0.2 -0.4
v -0.7 0.2 -0.5
v -0.6 0.2 -0.5
v -0.5 0.2 -0.5
v -0.4 0.2 -0.5
v -0.3 0.2 -0.5
v 0.1 0.2 -0.5
v 0.2 0.2 -0.5
v -0.7 0.2 -0.6
v -0.6 0.2 -0.6
v -0.5 0.2 -0.6
v -0.4 0.2 -0.6
v -0.1 0.2 -0.6
v 0 0.2 -0.6
v 0.4 0.2 -0.6
v 0.6 0.2 -0.6
v -0.1 0.2 -0.7
v 0 0.2 -0.7
v 0.1 0.2 -0.7
v 0.2 0.2 -0.7
v 0.3 0.2 -0.7
v 0.4 0.2 -0.7
v 0.6 0.2 -0.7
v -0.8 0.2 -0.8
v -0.2 0.2 -0.8
v -0.1 0.2 -0.8
v 0.1 0.2 -0.8
v 0.2 0.2 -0.8
v 0.8 0.2 -0.8
v -0.6 0.3 0.7
v -0.5 0.3 0.7
v 0.4 0.3 0.7
v 0.5 0.3 0.7
v -0.7 0.3 0.6
v -0.6 0.3 0.6
v -0.5 0.3 0.6
v -0.4 0.3 0.6
v 0.4 0.3 0.6
v 0.5 0.3 0.6
v -0.7 0.3 0.5
v -0.6 0.3 0.5
v -0.5 0.3 0.5
v -0.4 0.3 0.5
v 0.4 0.3 0.5
v 0.5 0.3 0.5
v 0.6 0.3 0.5
v 0.7 0.3 0.5
v 0.2 0.3 0.4
v 0.3 0.3 0.4
v 0.6 0.3 0.4
v 0.7 0.3 0.4
v -0.4 0.3 0.3
v -0.3 0.3 0.3
v 0.2 0.3 0.3
v 0.3 0.3 0.3
v 0.6 0.3 0.3
v 0.7 0.3 0.3
v -0.4 0.3 0.2
v -0.3 0.3 0.2
v 0.6 0.3 -0.2
v 0.7 0.3 -0.2
v 0.6 0.3 -0.3
v 0.7 0.3 -0.3
v -0.7 0.3 -0.4
v -0.6 0.3 -0.4
v -0.5 0.3 -0.4
v -0.4 0.3 -0.4
v -0.7 0.3 -0.5
v -0.6 0.3 -0.5
v -0.5 0.3 -0.5
v -0.4 0.3 -0.5
v -0.7 0.3 -0.6
v -0.6 0.3 -0.6
v 0.5 0.3 -0.6
v 0.6 0.3 -0.6
v 0.5 0.3 -0.7
v 0.6 0.3 -0.7
v -0.7 0.4 0.7
v -0.6 0.4 0.7
v -0.7 0.4 0.6
v -0.6 0.4 0.6
v 0.3 0.4 0.4
v 0.4 0.4 0.4
v 0.3 0.4 0.3
v 0.4 0.4 0.3
v 0.5 0.4 -0.3
v 0.6 0.4 -0.3
v -0.4 0.4 -0.4
v -0.3 0.4 -0.4
v 0.5 0.4 -0.4
v 0.6 0.4 -0.4
v -0.4 0.4 -0.5
v -0.3 0.4 -0.5
v 0.4 0.4 -0.6
v 0.5 0.4 -0.6
v 0.4 0.4 -0.7
v 0.5 0.4 -0.7
v -0.5 0.6 -0.4
v -0.4 0.6 -0.4
v -0.6 0.6 -0.5
v -0.5 0.6 -0.5
v -0.4 0.6 -0.5
v -0.3 0.6 -0.5
v -0.6 0.6 -0.6
v -0.5 0.6 -0.6
v -0.4 0.6 -0.6
v -0.3 0.6 -0.6
v -0.5 0.6 -0.7
v -0.4 0.6 -0.7
v -0.5 0.7 -0.5
v -0.4 0.7 -0.5
v -0.5 0.7 -0.6
v -0.4 0.7 -0.6

# faces
f 3/3/1 2/3/1 1/3/1
f 4/3/1 2/3/1 3/3/1
f 5/3/1 2/3/1 4/3/1
f 6/3/1 2/3/1 5/3/1
f 7/3/1 3/3/1 1/3/1
f 8/7/1 4/7/1 3/7/1
f 8/3/1 3/3/1 7/3/1
f 9/6/1 5/6/1 4/6/1
f 9/7/1 4/7/1 8/7/1
f 10/7/1 6/7/1 5/7/1
f 10/6/1 5/6/1 9/6/1
f 11/3/1 2/3/1 6/3/1
f 11/7/1 6/7/1 10/7/1
f 12/3/1 2/3/1 11/3/1
f 18/11/1 14/11/1 13/11/1
f 19/11/1 14/11/1 18/11/1
f 20/8/1 16/8/1 15/8/1
f 21/1/1 17/1/1 16/1/1
f 21/8/1 16/8/1 20/8/1
f 22/1/1 17/1/1 21/1/1
f 23/11/1 18/11/1 13/11/1
f 24/11/1 18/11/1 23/11/1
f 27/9/1 26/9/1 25/9/1
f 28/9/1 26/9/1 27/9/1
f 34/4/1 30/4/1 29/4/1
f 35/4/1 30/4/1 34/4/1
f 36/8/1 32/8/1 31/8/1
f 37/10/1 33/10/1 32/10/1
f 37/8/1 32/8/1 36/8/1
f 39/10/1 33/10/1 37/10/1
f 40/10/1 33/10/1 39/10/1
f 42/9/1 39/9/1 38/9/1
f 43/9/1 39/9/1 42/9/1
f 44/9/1 41/9/1 40/9/1
f 45/9/1 41/9/1 44/9/1
f 46/9/1 44/9/1 43/9/1
f 47/9/1 44/9/1 46/9/1
f 50/8/1 49/8/1 48/8/1
f 51/8/1 49/8/1 50/8/1
f 54/8/1 53/8/1 52/8/1
f 55/8/1 53/8/1 54/8/1
f 58/8/1 57/8/1 56/8/1
f 59/8/1 57/8/1 58/8/1
f 62/8/1 61/8/1 60/8/1
f 63/8/1 61/8/1 62/8/1
f 69/2/1 65/2/1 64/2/1
f 70/8/1 66/8/1 65/8/1
f 70/2/1 65/2/1 69/2/1
f 71/8/1 66/8/1 70/8/1
f 72/8/1 68/8/1 67/8/1
f 73/8/1 68/8/1 72/8/1
f 76/8/1 75/8/1 74/8/1
f 77/8/1 75/8/1 76/8/1
f 83/5/1 79/5/1 78/5/1
f 84/8/1 80/8/1 79/8/1
f 84/5/1 79/5/1 83/5/1
f 85/8/1 80/8/1 84/8/1
f 86/8/1 82/8/1 81/8/1
f 87/8/1 82/8/1 86/8/1
f 88/11/2 89/11/2 94/11/2
f 94/11/2 89/11/2 95/11/2
f 90/8/2 91/8/2 96/8/2
f 91/1/2 92/1/2 97/1/2
f 96/8/2 91/8/2 97/8/2
f 97/1/2 92/1/2 98/1/2
f 93/11/2 94/11/2 99/11/2
f 99/11/2 94/11/2 100/11/2
f 101/11/2 102/11/2 103/11/2
f 103/11/2 102/11/2 104/11/2
f 105/4/2 106/4/2 109/4/2
f 109/4/2 106/4/2 110/4/2
f 107/10/2 108/10/2 111/10/2
f 111/10/2 108/10/2 113/10/2
f 113/10/2 108/10/2 114/10/2
f 112/9/2 113/9/2 116/9/2
f 116/9/2 113/9/2 117/9/2
f 114/9/2 115/9/2 118/9/2
f 118/9/2 115/9/2 119/9/2
f 117/9/2 118/9/2 120/9/2
f 120/9/2 118/9/2 121/9/2
f 122/8/2 123/8/2 126/8/2
f 126/8/2 123/8/2 127/8/2
f 124/8/2 125/8/2 128/8/2
f 128/8/2 125/8/2 129/8/2
f 130/9/2 131/9/2 132/9/2
f 132/9/2 131/9/2 133/9/2
f 134/8/2 135/8/2 136/8/2
f 136/8/2 135/8/2 137/8/2
f 138/2/2 139/2/2 141/2/2
f 139/8/2 140/8/2 142/8/2
f 141/2/2 139/2/2 142/2/2
f 142/8/2 140/8/2 143/8/2
f 144/8/2 145/8/2 146/8/2
f 146/8/2 145/8/2 147/8/2
f 148/8/2 149/8/2 152/8/2
f 150/8/2 151/8/2 153/8/2
f 153/8/2 151/8/2 154/8/2
f 152/8/2 149/8/2 155/8/2
f 155/8/2 149/8/2 156/8/2
f 157/5/2 158/5/2 162/5/2
f 158/8/2 159/8/2 163/8/2
f 162/5/2 158/5/2 163/5/2
f 163/8/2 159/8/2 164/8/2
f 160/8/2 161/8/2 165/8/2
f 165/8/2 161/8/2 166/8/2
f 167/3/2 168/3/2 169/3/2
f 169/3/2 168/3/2 170/3/2
f 170/3/2 168/3/2 171/3/2
f 171/3/2 168/3/2 172/3/2
f 167/3/2 169/3/2 173/3/2
f 169/7/2 170/7/2 174/7/2
f 173/3/2 169/3/2 174/3/2
f 170/6/2 171/6/2 175/6/2
f 174/7/2 170/7/2 175/7/2
f 171/7/2 172/7/2 176/7/2
f 175/6/2 171/6/2 176/6/2
f 172/3/2 168/3/2 177/3/2
f 176/7/2 172/7/2 177/7/2
f 177/3/2 168/3/2 178/3/2
f 181/3/3 180/3/3 179/3/3
f 182/3/3 180/3/3 181/3/3
f 183/3/3 181/3/3 179/3/3
f 183/7/3 182/7/3 181/7/3
f 184/7/3 182/7/3 183/7/3
f 185/3/3 183/3/3 179/3/3
f 185/6/3 184/6/3 183/6/3
f 186/6/3 184/6/3 185/6/3
f 187/3/3 185/3/3 179/3/3
f 187/7/3 186/7/3 185/7/3
f 188/7/3 186/7/3 187/7/3
f 189/3/3 187/3/3 179/3/3
f 189/3/3 188/3/3 187/3/3
f 190/3/3 188/3/3 189/3/3
f 193/11/3 192/11/3 191/11/3
f 194/11/3 192/11/3 193/11/3
f 195/11/3 193/11/3 191/11/3
f 196/11/3 193/11/3 195/11/3
f 199/2/3 198/2/3 197/2/3
f 200/2/3 198/2/3 199/2/3
f 203/4/3 202/4/3 201/4/3
f 204/4/3 202/4/3 203/4/3
f 207/5/3 206/5/3 205/5/3
f 208/5/3 206/5/3 207/5/3
f 211/8/3 210/8/3 209/8/3
f 213/8/3 211/8/3 209/8/3
f 213/8/3 212/8/3 211/8/3
f 214/8/3 212/8/3 213/8/3
f 217/8/3 216/8/3 215/8/3
f 218/8/3 216/8/3 217/8/3
f 221/8/3 220/8/3 219/8/3
f 222/8/3 220/8/3 221/8/3
f 225/8/3 224/8/3 223/8/3
f 226/8/3 224/8/3 225/8/3
f 227/8/3 224/8/3 226/8/3
f 230/8/3 229/8/3 228/8/3
f 231/8/3 229/8/3 230/8/3
f 236/8/3 233/8/3 232/8/3
f 238/9/3 235/9/3 234/9/3
f 239/9/3 235/9/3 238/9/3
f 240/8/3 237/8/3 236/8/3
f 240/8/3 236/8/3 232/8/3
f 241/8/3 237/8/3 240/8/3
f 245/9/3 243/9/3 242/9/3
f 246/9/3 243/9/3 245/9/3
f 248/10/3 245/10/3 244/10/3
f 249/10/3 245/10/3 248/10/3
f 250/10/3 245/10/3 249/10/3
f 251/9/3 247/9/3 246/9/3
f 252/9/3 247/9/3 251/9/3
f 253/9/3 251/9/3 250/9/3
f 254/9/3 251/9/3 253/9/3
f 257/8/3 256/8/3 255/8/3
f 258/8/3 256/8/3 257/8/3
f 259/8/3 257/8/3 255/8/3
f 260/8/3 257/8/3 259/8/3
f 261/11/4 262/11/4 264/11/4
f 264/11/4 262/11/4 265/11/4
f 263/11/4 264/11/4 266/11/4
f 266/11/4 264/11/4 267/11/4
f 268/11/4 269/11/4 270/11/4
f 270/11/4 269/11/4 271/11/4
f 272/4/4 273/4/4 274/4/4
f 274/4/4 273/4/4 275/4/4
f 276/8/4 277/8/4 278/8/4
f 278/8/4 277/8/4 279/8/4
f 280/8/4 281/8/4 282/8/4
f 280/8/4 282/8/4 284/8/4
f 282/8/4 283/8/4 284/8/4
f 284/8/4 283/8/4 285/8/4
f 286/8/4 287/8/4 288/8/4
f 288/8/4 287/8/4 289/8/4
f 290/8/4 291/8/4 292/8/4
f 292/8/4 291/8/4 293/8/4
f 294/8/4 295/8/4 296/8/4
f 296/8/4 295/8/4 297/8/4
f 298/8/4 299/8/4 300/8/4
f 300/8/4 299/8/4 301/8/4
f 302/8/4 303/8/4 304/8/4
f 304/8/4 303/8/4 305/8/4
f 306/1/4 307/1/4 308/1/4
f 308/1/4 307/1/4 309/1/4
f 310/9/4 311/9/4 313/9/4
f 313/9/4 311/9/4 314/9/4
f 312/10/4 313/10/4 316/10/4
f 316/10/4 313/10/4 317/10/4
f 314/9/4 315/9/4 318/9/4
f 318/9/4 315/9/4 319/9/4
f 317/9/4 318/9/4 320/9/4
f 320/9/4 318/9/4 321/9/4
f 322/9/4 323/9/4 324/9/4
f 324/9/4 323/9/4 325/9/4
f 326/8/4 327/8/4 328/8/4
f 328/8/4 327/8/4 329/8/4
f 326/8/4 328/8/4 330/8/4
f 330/8/4 328/8/4 331/8/4
f 332/3/4 333/3/4 334/3/4
f 334/3/4 333/3/4 335/3/4
f 332/3/4 334/3/4 336/3/4
f 334/7/4 335/7/4 336/7/4
f 336/7/4 335/7/4 337/7/4
f 332/3/4 336/3/4 338/3/4
f 336/6/4 337/6/4 338/6/4
f 338/6/4 337/6/4 339/6/4
f 332/3/4 338/3/4 340/3/4
f 338/7/4 339/7/4 340/7/4
f 340/7/4 339/7/4 341/7/4
f 332/3/4 340/3/4 342/3/4
f 340/3/4 341/3/4 342/3/4
f 342/3/4 341/3/4 343/3/4
f 346/3/5 345/3/5 344/3/5
f 347/3/5 345/3/5 346/3/5
f 351/9/5 349/9/5 348/9/5
f 352/9/5 349/9/5 351/9/5
f 354/9/5 351/9/5 350/9/5
f 355/9/5 351/9/5 354/9/5
f 356/9/5 353/9/5 352/9/5
f 357/9/5 353/9/5 356/9/5
f 358/9/5 356/9/5 355/9/5
f 359/9/5 356/9/5 358/9/5
f 360/3/6 361/3/6 366/3/6
f 366/3/6 361/3/6 367/3/6
f 367/3/6 361/3/6 368/3/6
f 361/7/6 362/7/6 369/7/6
f 368/3/6 361/3/6 369/3/6
f 362/6/6 363/6/6 370/6/6
f 369/7/6 362/7/6 370/7/6
f 363/7/6 364/7/6 371/7/6
f 370/6/6 363/6/6 371/6/6
f 364/3/6 365/3/6 372/3/6
f 371/7/6 364/7/6 372/7/6
f 372/3/6 365/3/6 373/3/6
f 373/3/6 365/3/6 374/3/6
f 374/3/6 365/3/6 375/3/6
f 367/3/6 368/3/6 377/3/6
f 377/3/6 368/3/6 378/3/6
f 370/6/6 371/6/6 379/6/6
f 368/7/6 369/7/6 379/7/6
f 369/6/6 370/6/6 379/6/6
f 379/6/6 371/6/6 380/6/6
f 371/4/6 372/4/6 381/4/6
f 380/6/6 371/6/6 381/6/6
f 372/7/6 373/7/6 382/7/6
f 381/4/6 372/4/6 382/4/6
f 373/3/6 374/3/6 383/3/6
f 375/3/6 365/3/6 384/3/6
f 360/3/6 366/3/6 385/3/6
f 376/3/6 377/3/6 386/3/6
f 386/3/6 377/3/6 387/3/6
f 378/3/6 368/3/6 388/3/6
f 379/4/6 380/4/6 389/4/6
f 368/7/6 379/7/6 389/7/6
f 380/6/6 381/6/6 390/6/6
f 389/4/6 380/4/6 390/4/6
f 381/6/6 382/6/6 390/6/6
f 390/6/6 382/6/6 391/6/6
f 382/7/6 373/7/6 392/7/6
f 391/6/6 382/6/6 392/6/6
f 373/3/6 383/3/6 393/3/6
f 392/7/6 373/7/6 393/7/6
f 393/3/6 383/3/6 394/3/6
f 384/3/6 365/3/6 395/3/6
f 395/3/6 365/3/6 396/3/6
f 396/3/6 365/3/6 397/3/6
f 386/3/6 387/3/6 398/3/6
f 387/3/6 388/3/6 398/3/6
f 368/7/6 389/7/6 398/7/6
f 388/3/6 368/3/6 398/3/6
f 385/3/6 386/3/6 398/3/6
f 390/6/6 391/6/6 399/6/6
f 398/7/6 389/7/6 399/7/6
f 389/6/6 390/6/6 399/6/6
f 399/6/6 391/6/6 400/6/6
f 393/3/6 394/3/6 401/3/6
f 391/7/6 392/7/6 401/7/6
f 395/3/6 396/3/6 401/3/6
f 394/3/6 395/3/6 401/3/6
f 392/3/6 393/3/6 401/3/6
f 401/3/6 396/3/6 402/3/6
f 402/3/6 396/3/6 403/3/6
f 397/3/6 365/3/6 404/3/6
f 385/3/6 398/3/6 405/3/6
f 360/3/6 385/3/6 405/3/6
f 398/3/6 399/3/6 405/3/6
f 405/3/6 399/3/6 406/3/6
f 406/3/6 399/3/6 407/3/6
f 400/6/6 391/6/6 408/6/6
f 399/7/6 400/7/6 408/7/6
f 408/6/6 391/6/6 409/6/6
f 391/7/6 401/7/6 410/7/6
f 409/6/6 391/6/6 410/6/6
f 410/7/6 401/7/6 411/7/6
f 402/3/6 403/3/6 412/3/6
f 412/3/6 403/3/6 413/3/6
f 413/3/6 403/3/6 414/3/6
f 404/3/6 365/3/6 415/3/6
f 360/3/6 405/3/6 416/3/6
f 405/7/6 406/7/6 417/7/6
f 416/3/6 405/3/6 417/3/6
f 417/7/6 406/7/6 418/7/6
f 418/7/6 406/7/6 419/7/6
f 419/7/6 406/7/6 420/7/6
f 407/3/6 399/3/6 421/3/6
f 399/7/6 408/7/6 422/7/6
f 421/3/6 399/3/6 422/3/6
f 408/4/6 409/4/6 423/4/6
f 422/7/6 408/7/6 423/7/6
f 410/6/6 411/6/6 424/6/6
f 423/4/6 409/4/6 424/4/6
f 409/6/6 410/6/6 424/6/6
f 411/7/6 412/7/6 425/7/6
f 424/6/6 411/6/6 425/6/6
f 412/7/6 413/7/6 425/7/6
f 425/7/6 413/7/6 426/7/6
f 426/7/6 413/7/6 427/7/6
f 413/3/6 414/3/6 428/3/6
f 427/7/6 413/7/6 428/7/6
f 414/3/6 415/3/6 428/3/6
f 415/3/6 365/3/6 429/3/6
f 428/3/6 415/3/6 429/3/6
f 416/7/6 417/7/6 430/7/6
f 417/6/6 418/6/6 431/6/6
f 430/7/6 417/7/6 431/7/6
f 418/4/6 419/4/6 432/4/6
f 431/6/6 418/6/6 432/6/6
f 419/6/6 420/6/6 433/6/6
f 432/4/6 419/4/6 433/4/6
f 421/7/6 422/7/6 434/7/6
f 433/6/6 420/6/6 434/6/6
f 420/7/6 421/7/6 434/7/6
f 422/6/6 423/6/6 435/6/6
f 434/7/6 422/7/6 435/7/6
f 425/6/6 426/6/6 435/6/6
f 424/6/6 425/6/6 435/6/6
f 423/6/6 424/6/6 435/6/6
f 426/4/6 427/4/6 436/4/6
f 435/6/6 426/6/6 436/6/6
f 427/6/6 428/6/6 437/6/6
f 436/4/6 427/4/6 437/4/6
f 428/7/6 429/7/6 438/7/6
f 437/6/6 428/6/6 438/6/6
f 438/7/6 429/7/6 439/7/6
f 433/6/6 434/6/6 440/6/6
f 434/6/6 435/6/6 440/6/6
f 438/6/6 439/6/6 440/6/6
f 437/6/6 438/6/6 440/6/6
f 431/6/6 432/6/6 440/6/6
f 430/6/6 431/6/6 440/6/6
f 432/6/6 433/6/6 440/6/6
f 435/6/6 436/6/6 440/6/6
f 436/6/6 437/6/6 440/6/6
f 440/6/6 439/6/6 441/6/6
f 441/6/6 439/6/6 442/6/6
f 442/6/6 439/6/6 443/6/6
f 443/6/6 439/6/6 444/6/6
f 444/6/6 439/6/6 445/6/6
f 445/6/6 439/6/6 446/6/6
f 446/6/6 439/6/6 447/6/6
f 440/7/6 441/7/6 448/7/6
f 441/4/6 442/4/6 449/4/6
f 448/7/6 441/7/6 449/7/6
f 442/6/6 443/6/6 450/6/6
f 449/4/6 442/4/6 450/4/6
f 443/7/6 444/7/6 451/7/6
f 450/6/6 443/6/6 451/6/6
f 444/6/6 445/6/6 452/6/6
f 451/7/6 444/7/6 452/7/6
f 452/6/6 445/6/6 453/6/6
f 453/6/6 445/6/6 454/6/6
f 454/6/6 445/6/6 455/6/6
f 455/6/6 445/6/6 456/6/6
f 445/4/6 446/4/6 457/4/6
f 456/6/6 445/6/6 457/6/6
f 446/7/6 447/7/6 458/7/6
f 457/4/6 446/4/6 458/4/6
f 458/7/6 447/7/6 459/7/6
f 459/7/6 447/7/6 460/7/6
f 448/3/6 449/3/6 461/3/6
f 449/7/6 450/7/6 461/7/6
f 450/7/6 451/7/6 461/7/6
f 451/3/6 452/3/6 462/3/6
f 461/7/6 451/7/6 462/7/6
f 452/7/6 453/7/6 463/7/6
f 462/3/6 452/3/6 463/3/6
f 453/4/6 454/4/6 464/4/6
f 463/7/6 453/7/6 464/7/6
f 454/6/6 455/6/6 465/6/6
f 464/4/6 454/4/6 465/4/6
f 455/4/6 456/4/6 466/4/6
f 465/6/6 455/6/6 466/6/6
f 457/7/6 458/7/6 467/7/6
f 466/4/6 456/4/6 467/4/6
f 456/7/6 457/7/6 467/7/6
f 467/7/6 458/7/6 468/7/6
f 468/7/6 458/7/6 469/7/6
f 459/3/6 460/3/6 470/3/6
f 463/3/6 464/3/6 471/3/6
f 448/3/6 461/3/6 471/3/6
f 461/3/6 462/3/6 471/3/6
f 462/3/6 463/3/6 471/3/6
f 471/3/6 464/3/6 472/3/6
f 472/3/6 464/3/6 473/3/6
f 464/7/6 465/7/6 474/7/6
f 473/3/6 464/3/6 474/3/6
f 465/6/6 466/6/6 475/6/6
f 474/7/6 465/7/6 475/7/6
f 475/6/6 466/6/6 476/6/6
f 476/6/6 466/6/6 477/6/6
f 466/7/6 467/7/6 478/7/6
f 477/6/6 466/6/6 478/6/6
f 467/3/6 468/3/6 479/3/6
f 469/3/6 470/3/6 480/3/6
f 448/3/6 471/3/6 481/3/6
f 472/3/6 473/3/6 482/3/6
f 482/3/6 473/3/6 483/3/6
f 474/3/6 475/3/6 485/3/6
f 476/6/6 477/6/6 486/6/6
f 477/4/6 478/4/6 486/4/6
f 478/7/6 467/7/6 487/7/6
f 486/4/6 478/4/6 487/4/6
f 448/3/6 481/3/6 488/3/6
f 482/3/6 483/3/6 489/3/6
f 489/3/6 483/3/6 490/3/6
f 484/3/6 485/3/6 491/3/6
f 476/6/6 486/6/6 492/6/6
f 475/7/6 476/7/6 492/7/6
f 486/6/6 487/6/6 492/6/6
f 492/6/6 487/6/6 493/6/6
f 467/3/6 479/3/6 494/3/6
f 479/3/6 480/3/6 494/3/6
f 480/3/6 470/3/6 495/3/6
f 494/3/6 480/3/6 495/3/6
f 492/4/6 493/4/6 496/4/6
f 475/7/6 492/7/6 496/7/6
f 493/6/6 487/6/6 497/6/6
f 496/4/6 493/4/6 497/4/6
f 497/6/6 487/6/6 498/6/6
f 487/7/6 467/7/6 499/7/6
f 498/6/6 487/6/6 499/6/6
f 467/3/6 494/3/6 500/3/6
f 499/7/6 467/7/6 500/7/6
f 500/3/6 494/3/6 501/3/6
f 495/3/6 470/3/6 502/3/6
f 490/3/6 491/3/6 503/3/6
f 489/3/6 490/3/6 503/3/6
f 448/3/6 488/3/6 503/3/6
f 488/3/6 489/3/6 503/3/6
f 475/7/6 496/7/6 504/7/6
f 503/3/6 491/3/6 504/3/6
f 491/3/6 485/3/6 504/3/6
f 485/3/6 475/3/6 504/3/6
f 497/6/6 498/6/6 505/6/6
f 504/7/6 496/7/6 505/7/6
f 496/6/6 497/6/6 505/6/6
f 498/7/6 499/7/6 506/7/6
f 505/6/6 498/6/6 506/6/6
f 500/3/6 501/3/6 507/3/6
f 506/7/6 499/7/6 507/7/6
f 501/3/6 502/3/6 507/3/6
f 499/3/6 500/3/6 507/3/6
f 470/3/6 460/3/6 508/3/6
f 507/3/6 502/3/6 508/3/6
f 502/3/6 470/3/6 508/3/6
f 509/11/6 510/11/6 514/11/6
f 514/11/6 510/11/6 515/11/6
f 511/2/6 512/2/6 517/2/6
f 517/2/6 512/2/6 518/2/6
f 513/11/6 514/11/6 519/11/6
f 519/11/6 514/11/6 520/11/6
f 515/4/6 516/4/6 521/4/6
f 521/4/6 516/4/6 522/4/6
f 517/8/6 518/8/6 523/8/6
f 523/8/6 518/8/6 524/8/6
f 525/5/6 526/5/6 529/5/6
f 529/5/6 526/5/6 530/5/6
f 527/8/6 528/8/6 533/8/6
f 533/8/6 528/8/6 534/8/6
f 529/8/6 530/8/6 535/8/6
f 535/8/6 530/8/6 536/8/6
f 531/8/6 532/8/6 537/8/6
f 537/8/6 532/8/6 538/8/6
f 539/8/6 540/8/6 541/8/6
f 541/8/6 540/8/6 542/8/6
f 543/8/6 544/8/6 547/8/6
f 547/8/6 544/8/6 548/8/6
f 545/8/6 546/8/6 549/8/6
f 549/8/6 546/8/6 550/8/6
f 547/1/6 548/1/6 551/1/6
f 551/1/6 548/1/6 552/1/6
f 553/8/6 554/8/6 555/8/6
f 555/8/6 554/8/6 556/8/6
f 557/11/6 558/11/6 559/11/6
f 559/11/6 558/11/6 560/11/6
f 561/8/6 562/8/6 563/8/6
f 563/8/6 562/8/6 564/8/6
f 565/8/6 566/8/6 569/8/6
f 569/8/6 566/8/6 570/8/6
f 567/8/6 568/8/6 571/8/6
f 571/8/6 568/8/6 572/8/6
f 573/8/6 574/8/6 575/8/6
f 575/8/6 574/8/6 576/8/6
f 577/9/6 578/9/6 580/9/6
f 580/9/6 578/9/6 581/9/6
f 579/9/6 580/9/6 583/9/6
f 583/9/6 580/9/6 584/9/6
f 581/9/6 582/9/6 585/9/6
f 585/9/6 582/9/6 586/9/6
f 584/9/6 585/9/6 587/9/6
f 587/9/6 585/9/6 588/9/6
f 589/9/6 590/9/6 591/9/6
f 591/9/6 590/9/6 592/9/6
