# MagicaVoxel @ Ephtracy

# group
o 

# material
mtllib Road_forward_1.mtl
usemtl palette

# normals
vn -1 0 0
vn 1 0 0
vn 0 0 1
vn 0 0 -1
vn 0 -1 0
vn 0 1 0

# texcoords
vt 0.173828 0.5
vt 0.298828 0.5
vt 0.302734 0.5
vt 0.341797 0.5
vt 0.369141 0.5
vt 0.373047 0.5
vt 0.466797 0.5
vt 0.537109 0.5

# verts
v -0.8 0 0.8
v -0.8 0 -0.8
v -0.8 0.2 0.8
v -0.8 0.2 -0.8
v -0.6 0.2 0.4
v -0.6 0.2 0.2
v -0.6 0.3 0.4
v -0.6 0.3 0.3
v -0.6 0.4 0.3
v -0.6 0.4 0.2
v -0.5 0.2 -0.3
v -0.5 0.2 -0.6
v -0.5 0.3 -0.3
v -0.5 0.3 -0.4
v -0.5 0.3 -0.5
v -0.5 0.3 -0.6
v -0.5 0.4 -0.4
v -0.5 0.4 -0.5
v 0.4 0.2 0.3
v 0.4 0.2 0.1
v 0.4 0.4 0.3
v 0.4 0.4 0.1
v 0.4 0.5 -0.3
v 0.4 0.5 -0.5
v 0.4 0.6 -0.4
v 0.4 0.6 -0.5
v 0.4 0.7 -0.3
v 0.4 0.7 -0.4
v 0.5 0.2 0.5
v 0.5 0.2 0.4
v 0.5 0.2 -0.3
v 0.5 0.2 -0.4
v 0.5 0.3 0.5
v 0.5 0.3 0.4
v 0.5 0.5 -0.1
v 0.5 0.5 -0.3
v 0.5 0.5 -0.4
v 0.5 0.5 -0.5
v 0.5 0.5 -0.6
v 0.5 0.6 -0.1
v 0.5 0.6 -0.2
v 0.5 0.6 -0.4
v 0.5 0.6 -0.5
v 0.5 0.6 -0.6
v 0.5 0.7 -0.2
v 0.5 0.7 -0.3
v 0.5 0.7 -0.4
v 0.5 0.7 -0.5
v -0.5 0.2 0.4
v -0.5 0.2 0.2
v -0.5 0.3 0.4
v -0.5 0.3 0.3
v -0.5 0.4 0.3
v -0.5 0.4 0.2
v -0.4 0.2 -0.3
v -0.4 0.2 -0.4
v -0.4 0.2 -0.5
v -0.4 0.2 -0.6
v -0.4 0.3 -0.3
v -0.4 0.3 -0.4
v -0.4 0.3 -0.5
v -0.4 0.3 -0.6
v -0.4 0.4 -0.4
v -0.4 0.4 -0.5
v -0.3 0.2 -0.4
v -0.3 0.2 -0.5
v -0.3 0.3 -0.4
v -0.3 0.3 -0.5
v 0.6 0.2 0.5
v 0.6 0.2 0.4
v 0.6 0.2 0.3
v 0.6 0.2 0.1
v 0.6 0.2 -0.3
v 0.6 0.2 -0.4
v 0.6 0.3 0.5
v 0.6 0.3 0.4
v 0.6 0.4 0.3
v 0.6 0.4 0.1
v 0.6 0.5 -0.1
v 0.6 0.5 -0.2
v 0.6 0.5 -0.3
v 0.6 0.5 -0.4
v 0.6 0.5 -0.6
v 0.6 0.6 -0.1
v 0.6 0.6 -0.2
v 0.6 0.6 -0.3
v 0.6 0.6 -0.5
v 0.6 0.6 -0.6
v 0.6 0.7 -0.2
v 0.6 0.7 -0.3
v 0.6 0.7 -0.4
v 0.6 0.7 -0.5
v 0.7 0.5 -0.2
v 0.7 0.5 -0.4
v 0.7 0.6 -0.2
v 0.7 0.6 -0.3
v 0.7 0.7 -0.3
v 0.7 0.7 -0.4
v 0.8 0 0.8
v 0.8 0 -0.8
v 0.8 0.2 0.8
v 0.8 0.2 -0.8
v -0.8 0 0.8
v -0.8 0.2 0.8
v -0.2 0.1 0.8
v -0.2 0.2 0.8
v -0.1 0.1 0.8
v -0.1 0.2 0.8
v 0.1 0.1 0.8
v 0.1 0.2 0.8
v 0.2 0.1 0.8
v 0.2 0.2 0.8
v 0.8 0 0.8
v 0.8 0.2 0.8
v 0.5 0.2 0.5
v 0.5 0.3 0.5
v 0.6 0.2 0.5
v 0.6 0.3 0.5
v -0.6 0.2 0.4
v -0.6 0.3 0.4
v -0.5 0.2 0.4
v -0.5 0.3 0.4
v -0.6 0.3 0.3
v -0.6 0.4 0.3
v -0.5 0.3 0.3
v -0.5 0.4 0.3
v 0.4 0.2 0.3
v 0.4 0.4 0.3
v 0.6 0.2 0.3
v 0.6 0.4 0.3
v 0.5 0.5 -0.1
v 0.5 0.6 -0.1
v 0.6 0.5 -0.1
v 0.6 0.6 -0.1
v 0.5 0.6 -0.2
v 0.5 0.7 -0.2
v 0.6 0.5 -0.2
v 0.6 0.6 -0.2
v 0.6 0.7 -0.2
v 0.7 0.5 -0.2
v 0.7 0.6 -0.2
v -0.5 0.2 -0.3
v -0.5 0.3 -0.3
v -0.4 0.2 -0.3
v -0.4 0.3 -0.3
v 0.4 0.5 -0.3
v 0.4 0.7 -0.3
v 0.5 0.2 -0.3
v 0.5 0.5 -0.3
v 0.5 0.7 -0.3
v 0.6 0.2 -0.3
v 0.6 0.5 -0.3
v 0.6 0.6 -0.3
v 0.6 0.7 -0.3
v 0.7 0.6 -0.3
v 0.7 0.7 -0.3
v -0.5 0.3 -0.4
v -0.5 0.4 -0.4
v -0.4 0.2 -0.4
v -0.4 0.3 -0.4
v -0.4 0.4 -0.4
v -0.3 0.2 -0.4
v -0.3 0.3 -0.4
v 0.5 0.2 0.4
v 0.5 0.3 0.4
v 0.6 0.2 0.4
v 0.6 0.3 0.4
v -0.6 0.2 0.2
v -0.6 0.4 0.2
v -0.5 0.2 0.2
v -0.5 0.4 0.2
v 0.4 0.2 0.1
v 0.4 0.4 0.1
v 0.6 0.2 0.1
v 0.6 0.4 0.1
v 0.4 0.6 -0.4
v 0.4 0.7 -0.4
v 0.5 0.2 -0.4
v 0.5 0.5 -0.4
v 0.5 0.6 -0.4
v 0.5 0.7 -0.4
v 0.6 0.2 -0.4
v 0.6 0.5 -0.4
v 0.6 0.7 -0.4
v 0.7 0.5 -0.4
v 0.7 0.7 -0.4
v -0.5 0.3 -0.5
v -0.5 0.4 -0.5
v -0.4 0.2 -0.5
v -0.4 0.3 -0.5
v -0.4 0.4 -0.5
v -0.3 0.2 -0.5
v -0.3 0.3 -0.5
v 0.4 0.5 -0.5
v 0.4 0.6 -0.5
v 0.5 0.5 -0.5
v 0.5 0.6 -0.5
v 0.5 0.7 -0.5
v 0.6 0.6 -0.5
v 0.6 0.7 -0.5
v -0.5 0.2 -0.6
v -0.5 0.3 -0.6
v -0.4 0.2 -0.6
v -0.4 0.3 -0.6
v 0.5 0.5 -0.6
v 0.5 0.6 -0.6
v 0.6 0.5 -0.6
v 0.6 0.6 -0.6
v -0.8 0 -0.8
v -0.8 0.2 -0.8
v -0.2 0.1 -0.8
v -0.2 0.2 -0.8
v -0.1 0.1 -0.8
v -0.1 0.2 -0.8
v 0.1 0.1 -0.8
v 0.1 0.2 -0.8
v 0.2 0.1 -0.8
v 0.2 0.2 -0.8
v 0.8 0 -0.8
v 0.8 0.2 -0.8
v -0.8 0 0.8
v 0.8 0 0.8
v -0.8 0 -0.8
v 0.8 0 -0.8
v 0.5 0.5 -0.1
v 0.6 0.5 -0.1
v 0.6 0.5 -0.2
v 0.7 0.5 -0.2
v 0.4 0.5 -0.3
v 0.5 0.5 -0.3
v 0.6 0.5 -0.3
v 0.5 0.5 -0.4
v 0.6 0.5 -0.4
v 0.7 0.5 -0.4
v 0.4 0.5 -0.5
v 0.5 0.5 -0.5
v 0.5 0.5 -0.6
v 0.6 0.5 -0.6
v -0.8 0.2 0.8
v -0.2 0.2 0.8
v -0.1 0.2 0.8
v 0.1 0.2 0.8
v 0.2 0.2 0.8
v 0.8 0.2 0.8
v 0 0.2 0.7
v 0.1 0.2 0.7
v 0.2 0.2 0.7
v 0.3 0.2 0.7
v -0.2 0.2 0.6
v -0.1 0.2 0.6
v 0 0.2 0.6
v 0.1 0.2 0.6
v 0.2 0.2 0.6
v -0.3 0.2 0.5
v -0.2 0.2 0.5
v -0.1 0.2 0.5
v 0.1 0.2 0.5
v 0.2 0.2 0.5
v 0.5 0.2 0.5
v 0.6 0.2 0.5
v -0.6 0.2 0.4
v -0.5 0.2 0.4
v 0 0.2 0.4
v 0.1 0.2 0.4
v 0.2 0.2 0.4
v 0.5 0.2 0.4
v 0.6 0.2 0.4
v 0 0.2 0.3
v 0.1 0.2 0.3
v 0.2 0.2 0.3
v 0.3 0.2 0.3
v 0.4 0.2 0.3
v 0.6 0.2 0.3
v -0.6 0.2 0.2
v -0.5 0.2 0.2
v -0.3 0.2 0.2
v -0.2 0.2 0.2
v -0.1 0.2 0.2
v 0.1 0.2 0.2
v 0.2 0.2 0.2
v -0.2 0.2 0.1
v -0.1 0.2 0.1
v 0.1 0.2 0.1
v 0.2 0.2 0.1
v 0.4 0.2 0.1
v 0.6 0.2 0.1
v -0.2 0.2 0
v -0.1 0.2 0
v 0.2 0.2 0
v 0.3 0.2 0
v -0.3 0.2 -0.1
v -0.2 0.2 -0.1
v -0.1 0.2 -0.1
v 0 0.2 -0.1
v 0.1 0.2 -0.1
v 0.2 0.2 -0.1
v -0.3 0.2 -0.2
v -0.2 0.2 -0.2
v -0.1 0.2 -0.2
v 0 0.2 -0.2
v 0.1 0.2 -0.2
v 0.2 0.2 -0.2
v 0.3 0.2 -0.2
v -0.5 0.2 -0.3
v -0.4 0.2 -0.3
v -0.3 0.2 -0.3
v -0.2 0.2 -0.3
v -0.1 0.2 -0.3
v 0.2 0.2 -0.3
v 0.3 0.2 -0.3
v 0.5 0.2 -0.3
v 0.6 0.2 -0.3
v -0.4 0.2 -0.4
v -0.3 0.2 -0.4
v 0.1 0.2 -0.4
v 0.2 0.2 -0.4
v 0.3 0.2 -0.4
v 0.5 0.2 -0.4
v 0.6 0.2 -0.4
v -0.4 0.2 -0.5
v -0.3 0.2 -0.5
v -0.2 0.2 -0.5
v -0.1 0.2 -0.5
v 0.1 0.2 -0.5
v 0.2 0.2 -0.5
v -0.5 0.2 -0.6
v -0.4 0.2 -0.6
v -0.2 0.2 -0.6
v -0.1 0.2 -0.6
v 0 0.2 -0.6
v -0.1 0.2 -0.7
v 0 0.2 -0.7
v -0.8 0.2 -0.8
v -0.2 0.2 -0.8
v -0.1 0.2 -0.8
v 0.1 0.2 -0.8
v 0.2 0.2 -0.8
v 0.8 0.2 -0.8
v 0.5 0.3 0.5
v 0.6 0.3 0.5
v -0.6 0.3 0.4
v -0.5 0.3 0.4
v 0.5 0.3 0.4
v 0.6 0.3 0.4
v -0.6 0.3 0.3
v -0.5 0.3 0.3
v -0.5 0.3 -0.3
v -0.4 0.3 -0.3
v -0.5 0.3 -0.4
v -0.4 0.3 -0.4
v -0.3 0.3 -0.4
v -0.5 0.3 -0.5
v -0.4 0.3 -0.5
v -0.3 0.3 -0.5
v -0.5 0.3 -0.6
v -0.4 0.3 -0.6
v -0.6 0.4 0.3
v -0.5 0.4 0.3
v 0.4 0.4 0.3
v 0.6 0.4 0.3
v -0.6 0.4 0.2
v -0.5 0.4 0.2
v 0.4 0.4 0.1
v 0.6 0.4 0.1
v -0.5 0.4 -0.4
v -0.4 0.4 -0.4
v -0.5 0.4 -0.5
v -0.4 0.4 -0.5
v 0.5 0.6 -0.1
v 0.6 0.6 -0.1
v 0.5 0.6 -0.2
v 0.6 0.6 -0.2
v 0.7 0.6 -0.2
v 0.6 0.6 -0.3
v 0.7 0.6 -0.3
v 0.4 0.6 -0.4
v 0.5 0.6 -0.4
v 0.4 0.6 -0.5
v 0.5 0.6 -0.5
v 0.6 0.6 -0.5
v 0.5 0.6 -0.6
v 0.6 0.6 -0.6
v 0.5 0.7 -0.2
v 0.6 0.7 -0.2
v 0.4 0.7 -0.3
v 0.5 0.7 -0.3
v 0.6 0.7 -0.3
v 0.7 0.7 -0.3
v 0.4 0.7 -0.4
v 0.5 0.7 -0.4
v 0.6 0.7 -0.4
v 0.7 0.7 -0.4
v 0.5 0.7 -0.5
v 0.6 0.7 -0.5

# faces
f 3/3/1 2/3/1 1/3/1
f 4/3/1 2/3/1 3/3/1
f 7/7/1 6/7/1 5/7/1
f 8/7/1 6/7/1 7/7/1
f 9/7/1 6/7/1 8/7/1
f 10/7/1 6/7/1 9/7/1
f 13/7/1 12/7/1 11/7/1
f 14/7/1 12/7/1 13/7/1
f 15/7/1 12/7/1 14/7/1
f 16/7/1 12/7/1 15/7/1
f 17/7/1 15/7/1 14/7/1
f 18/7/1 15/7/1 17/7/1
f 21/1/1 20/1/1 19/1/1
f 22/1/1 20/1/1 21/1/1
f 25/7/1 24/7/1 23/7/1
f 26/7/1 24/7/1 25/7/1
f 27/7/1 25/7/1 23/7/1
f 28/7/1 25/7/1 27/7/1
f 33/1/1 30/1/1 29/1/1
f 34/1/1 30/1/1 33/1/1
f 36/8/1 32/8/1 31/8/1
f 37/8/1 32/8/1 36/8/1
f 40/7/1 36/7/1 35/7/1
f 41/7/1 36/7/1 40/7/1
f 43/7/1 39/7/1 38/7/1
f 44/7/1 39/7/1 43/7/1
f 45/7/1 36/7/1 41/7/1
f 46/7/1 36/7/1 45/7/1
f 47/7/1 43/7/1 42/7/1
f 48/7/1 43/7/1 47/7/1
f 49/7/2 50/7/2 51/7/2
f 51/7/2 50/7/2 52/7/2
f 52/7/2 50/7/2 53/7/2
f 53/7/2 50/7/2 54/7/2
f 55/7/2 56/7/2 59/7/2
f 59/7/2 56/7/2 60/7/2
f 57/7/2 58/7/2 61/7/2
f 61/7/2 58/7/2 62/7/2
f 60/7/2 61/7/2 63/7/2
f 63/7/2 61/7/2 64/7/2
f 65/7/2 66/7/2 67/7/2
f 67/7/2 66/7/2 68/7/2
f 69/1/2 70/1/2 75/1/2
f 75/1/2 70/1/2 76/1/2
f 71/1/2 72/1/2 77/1/2
f 77/1/2 72/1/2 78/1/2
f 73/8/2 74/8/2 81/8/2
f 81/8/2 74/8/2 82/8/2
f 79/7/2 80/7/2 84/7/2
f 84/7/2 80/7/2 85/7/2
f 82/7/2 83/7/2 87/7/2
f 87/7/2 83/7/2 88/7/2
f 85/7/2 86/7/2 89/7/2
f 89/7/2 86/7/2 90/7/2
f 82/7/2 87/7/2 91/7/2
f 91/7/2 87/7/2 92/7/2
f 93/7/2 94/7/2 95/7/2
f 95/7/2 94/7/2 96/7/2
f 96/7/2 94/7/2 97/7/2
f 97/7/2 94/7/2 98/7/2
f 99/3/2 100/3/2 101/3/2
f 101/3/2 100/3/2 102/3/2
f 105/3/3 104/3/3 103/3/3
f 106/3/3 104/3/3 105/3/3
f 107/3/3 105/3/3 103/3/3
f 107/6/3 106/6/3 105/6/3
f 108/6/3 106/6/3 107/6/3
f 109/3/3 107/3/3 103/3/3
f 109/5/3 108/5/3 107/5/3
f 110/5/3 108/5/3 109/5/3
f 111/3/3 109/3/3 103/3/3
f 111/6/3 110/6/3 109/6/3
f 112/6/3 110/6/3 111/6/3
f 113/3/3 111/3/3 103/3/3
f 113/3/3 112/3/3 111/3/3
f 114/3/3 112/3/3 113/3/3
f 117/1/3 116/1/3 115/1/3
f 118/1/3 116/1/3 117/1/3
f 121/7/3 120/7/3 119/7/3
f 122/7/3 120/7/3 121/7/3
f 125/7/3 124/7/3 123/7/3
f 126/7/3 124/7/3 125/7/3
f 129/1/3 128/1/3 127/1/3
f 130/1/3 128/1/3 129/1/3
f 133/7/3 132/7/3 131/7/3
f 134/7/3 132/7/3 133/7/3
f 138/7/3 136/7/3 135/7/3
f 139/7/3 136/7/3 138/7/3
f 140/7/3 138/7/3 137/7/3
f 141/7/3 138/7/3 140/7/3
f 144/7/3 143/7/3 142/7/3
f 145/7/3 143/7/3 144/7/3
f 149/7/3 147/7/3 146/7/3
f 150/7/3 147/7/3 149/7/3
f 151/8/3 149/8/3 148/8/3
f 152/8/3 149/8/3 151/8/3
f 155/7/3 154/7/3 153/7/3
f 156/7/3 154/7/3 155/7/3
f 160/7/3 158/7/3 157/7/3
f 161/7/3 158/7/3 160/7/3
f 162/7/3 160/7/3 159/7/3
f 163/7/3 160/7/3 162/7/3
f 164/1/4 165/1/4 166/1/4
f 166/1/4 165/1/4 167/1/4
f 168/7/4 169/7/4 170/7/4
f 170/7/4 169/7/4 171/7/4
f 172/1/4 173/1/4 174/1/4
f 174/1/4 173/1/4 175/1/4
f 176/7/4 177/7/4 180/7/4
f 180/7/4 177/7/4 181/7/4
f 178/8/4 179/8/4 182/8/4
f 182/8/4 179/8/4 183/8/4
f 183/7/4 184/7/4 185/7/4
f 185/7/4 184/7/4 186/7/4
f 187/7/4 188/7/4 190/7/4
f 190/7/4 188/7/4 191/7/4
f 189/7/4 190/7/4 192/7/4
f 192/7/4 190/7/4 193/7/4
f 194/7/4 195/7/4 196/7/4
f 196/7/4 195/7/4 197/7/4
f 197/7/4 198/7/4 199/7/4
f 199/7/4 198/7/4 200/7/4
f 201/7/4 202/7/4 203/7/4
f 203/7/4 202/7/4 204/7/4
f 205/7/4 206/7/4 207/7/4
f 207/7/4 206/7/4 208/7/4
f 209/3/4 210/3/4 211/3/4
f 211/3/4 210/3/4 212/3/4
f 209/3/4 211/3/4 213/3/4
f 211/6/4 212/6/4 213/6/4
f 213/6/4 212/6/4 214/6/4
f 209/3/4 213/3/4 215/3/4
f 213/5/4 214/5/4 215/5/4
f 215/5/4 214/5/4 216/5/4
f 209/3/4 215/3/4 217/3/4
f 215/6/4 216/6/4 217/6/4
f 217/6/4 216/6/4 218/6/4
f 209/3/4 217/3/4 219/3/4
f 217/3/4 218/3/4 219/3/4
f 219/3/4 218/3/4 220/3/4
f 223/3/5 222/3/5 221/3/5
f 224/3/5 222/3/5 223/3/5
f 227/7/5 226/7/5 225/7/5
f 230/7/5 227/7/5 225/7/5
f 230/7/5 228/7/5 227/7/5
f 231/7/5 228/7/5 230/7/5
f 232/7/5 230/7/5 229/7/5
f 233/7/5 228/7/5 231/7/5
f 234/7/5 228/7/5 233/7/5
f 235/7/5 232/7/5 229/7/5
f 235/7/5 233/7/5 232/7/5
f 236/7/5 233/7/5 235/7/5
f 237/7/5 233/7/5 236/7/5
f 238/7/5 233/7/5 237/7/5
f 241/5/6 242/5/6 245/5/6
f 242/6/6 243/6/6 246/6/6
f 245/5/6 242/5/6 246/5/6
f 243/3/6 244/3/6 247/3/6
f 246/6/6 243/6/6 247/6/6
f 247/3/6 244/3/6 248/3/6
f 239/3/6 240/3/6 249/3/6
f 240/6/6 241/6/6 249/6/6
f 241/5/6 245/5/6 250/5/6
f 249/6/6 241/6/6 250/6/6
f 245/4/6 246/4/6 251/4/6
f 250/5/6 245/5/6 251/5/6
f 247/6/6 248/6/6 252/6/6
f 251/4/6 246/4/6 252/4/6
f 246/6/6 247/6/6 252/6/6
f 252/6/6 248/6/6 253/6/6
f 239/3/6 249/3/6 254/3/6
f 249/4/6 250/4/6 255/4/6
f 254/3/6 249/3/6 255/3/6
f 250/5/6 251/5/6 256/5/6
f 255/4/6 250/4/6 256/4/6
f 251/5/6 252/5/6 256/5/6
f 252/4/6 253/4/6 257/4/6
f 256/5/6 252/5/6 257/5/6
f 253/6/6 248/6/6 258/6/6
f 257/4/6 253/4/6 258/4/6
f 248/3/6 244/3/6 259/3/6
f 259/3/6 244/3/6 260/3/6
f 239/3/6 254/3/6 261/3/6
f 261/3/6 254/3/6 262/3/6
f 256/5/6 257/5/6 263/5/6
f 255/5/6 256/5/6 263/5/6
f 257/5/6 258/5/6 263/5/6
f 263/5/6 258/5/6 264/5/6
f 258/6/6 248/6/6 265/6/6
f 264/5/6 258/5/6 265/5/6
f 248/3/6 259/3/6 266/3/6
f 260/3/6 244/3/6 267/3/6
f 263/4/6 264/4/6 268/4/6
f 255/5/6 263/5/6 268/5/6
f 264/6/6 265/6/6 269/6/6
f 268/4/6 264/4/6 269/4/6
f 265/6/6 248/6/6 270/6/6
f 269/6/6 265/6/6 270/6/6
f 266/3/6 267/3/6 271/3/6
f 270/6/6 248/6/6 271/6/6
f 248/3/6 266/3/6 271/3/6
f 271/3/6 267/3/6 272/3/6
f 267/3/6 244/3/6 273/3/6
f 272/3/6 267/3/6 273/3/6
f 239/3/6 261/3/6 274/3/6
f 262/3/6 254/3/6 275/3/6
f 254/6/6 255/6/6 276/6/6
f 275/3/6 254/3/6 276/3/6
f 255/5/6 268/5/6 277/5/6
f 276/6/6 255/6/6 277/6/6
f 268/5/6 269/5/6 277/5/6
f 277/5/6 269/5/6 278/5/6
f 269/6/6 270/6/6 279/6/6
f 278/5/6 269/5/6 279/5/6
f 271/3/6 272/3/6 280/3/6
f 279/6/6 270/6/6 280/6/6
f 270/3/6 271/3/6 280/3/6
f 277/6/6 278/6/6 281/6/6
f 274/3/6 275/3/6 281/3/6
f 275/3/6 276/3/6 281/3/6
f 276/3/6 277/3/6 281/3/6
f 279/5/6 280/5/6 282/5/6
f 281/6/6 278/6/6 282/6/6
f 278/5/6 279/5/6 282/5/6
f 282/5/6 280/5/6 283/5/6
f 280/3/6 272/3/6 284/3/6
f 283/5/6 280/5/6 284/5/6
f 284/3/6 272/3/6 285/3/6
f 273/3/6 244/3/6 286/3/6
f 274/3/6 281/3/6 287/3/6
f 281/4/6 282/4/6 287/4/6
f 282/5/6 283/5/6 288/5/6
f 287/4/6 282/4/6 288/4/6
f 285/3/6 286/3/6 289/3/6
f 284/3/6 285/3/6 289/3/6
f 283/6/6 284/6/6 289/6/6
f 289/3/6 286/3/6 290/3/6
f 274/3/6 287/3/6 291/3/6
f 287/6/6 288/6/6 292/6/6
f 291/3/6 287/3/6 292/3/6
f 288/5/6 283/5/6 293/5/6
f 292/6/6 288/6/6 293/6/6
f 293/5/6 283/5/6 294/5/6
f 283/6/6 289/6/6 295/6/6
f 294/5/6 283/5/6 295/5/6
f 289/6/6 290/6/6 295/6/6
f 295/6/6 290/6/6 296/6/6
f 291/6/6 292/6/6 297/6/6
f 274/3/6 291/3/6 297/3/6
f 292/6/6 293/6/6 297/6/6
f 297/6/6 293/6/6 298/6/6
f 293/4/6 294/4/6 299/4/6
f 298/6/6 293/6/6 299/6/6
f 294/5/6 295/5/6 300/5/6
f 299/4/6 294/4/6 300/4/6
f 295/4/6 296/4/6 301/4/6
f 300/5/6 295/5/6 301/5/6
f 296/6/6 290/6/6 302/6/6
f 301/4/6 296/4/6 302/4/6
f 290/3/6 286/3/6 303/3/6
f 302/6/6 290/6/6 303/6/6
f 274/3/6 297/3/6 304/3/6
f 304/3/6 297/3/6 305/3/6
f 297/4/6 298/4/6 306/4/6
f 305/3/6 297/3/6 306/3/6
f 298/6/6 299/6/6 307/6/6
f 306/4/6 298/4/6 307/4/6
f 301/5/6 302/5/6 308/5/6
f 307/6/6 299/6/6 308/6/6
f 300/5/6 301/5/6 308/5/6
f 299/5/6 300/5/6 308/5/6
f 302/4/6 303/4/6 309/4/6
f 308/5/6 302/5/6 309/5/6
f 303/3/6 286/3/6 310/3/6
f 309/4/6 303/4/6 310/4/6
f 310/3/6 286/3/6 311/3/6
f 286/3/6 244/3/6 312/3/6
f 311/3/6 286/3/6 312/3/6
f 305/3/6 306/3/6 313/3/6
f 306/6/6 307/6/6 314/6/6
f 313/3/6 306/3/6 314/3/6
f 307/5/6 308/5/6 315/5/6
f 308/5/6 309/5/6 315/5/6
f 309/6/6 310/6/6 316/6/6
f 315/5/6 309/5/6 316/5/6
f 310/3/6 311/3/6 317/3/6
f 316/6/6 310/6/6 317/6/6
f 317/3/6 311/3/6 318/3/6
f 312/3/6 244/3/6 319/3/6
f 314/6/6 307/6/6 321/6/6
f 307/5/6 315/5/6 322/5/6
f 321/6/6 307/6/6 322/6/6
f 322/5/6 315/5/6 323/5/6
f 315/4/6 316/4/6 324/4/6
f 323/5/6 315/5/6 324/5/6
f 317/3/6 318/3/6 325/3/6
f 324/4/6 316/4/6 325/4/6
f 318/3/6 319/3/6 325/3/6
f 316/3/6 317/3/6 325/3/6
f 274/3/6 304/3/6 326/3/6
f 320/3/6 321/3/6 327/3/6
f 321/3/6 322/3/6 327/3/6
f 322/4/6 323/4/6 328/4/6
f 327/3/6 322/3/6 328/3/6
f 323/5/6 324/5/6 329/5/6
f 328/4/6 323/4/6 329/4/6
f 329/5/6 324/5/6 330/5/6
f 328/6/6 329/6/6 331/6/6
f 329/4/6 330/4/6 331/4/6
f 330/5/6 324/5/6 332/5/6
f 331/4/6 330/4/6 332/4/6
f 239/3/6 274/3/6 333/3/6
f 326/3/6 327/3/6 333/3/6
f 327/3/6 328/3/6 333/3/6
f 274/3/6 326/3/6 333/3/6
f 328/6/6 331/6/6 334/6/6
f 333/3/6 328/3/6 334/3/6
f 331/5/6 332/5/6 335/5/6
f 334/6/6 331/6/6 335/6/6
f 332/5/6 324/5/6 336/5/6
f 335/5/6 332/5/6 336/5/6
f 324/6/6 325/6/6 336/6/6
f 325/3/6 319/3/6 337/3/6
f 336/6/6 325/6/6 337/6/6
f 319/3/6 244/3/6 338/3/6
f 337/3/6 319/3/6 338/3/6
f 339/1/6 340/1/6 343/1/6
f 343/1/6 340/1/6 344/1/6
f 341/7/6 342/7/6 345/7/6
f 345/7/6 342/7/6 346/7/6
f 347/7/6 348/7/6 349/7/6
f 349/7/6 348/7/6 350/7/6
f 350/7/6 351/7/6 353/7/6
f 353/7/6 351/7/6 354/7/6
f 352/7/6 353/7/6 355/7/6
f 355/7/6 353/7/6 356/7/6
f 357/7/6 358/7/6 361/7/6
f 361/7/6 358/7/6 362/7/6
f 359/1/6 360/1/6 363/1/6
f 363/1/6 360/1/6 364/1/6
f 365/7/6 366/7/6 367/7/6
f 367/7/6 366/7/6 368/7/6
f 369/7/6 370/7/6 371/7/6
f 371/7/6 370/7/6 372/7/6
f 372/7/6 373/7/6 374/7/6
f 374/7/6 373/7/6 375/7/6
f 376/7/6 377/7/6 378/7/6
f 378/7/6 377/7/6 379/7/6
f 379/7/6 380/7/6 381/7/6
f 381/7/6 380/7/6 382/7/6
f 383/7/6 384/7/6 386/7/6
f 386/7/6 384/7/6 387/7/6
f 385/7/6 386/7/6 389/7/6
f 387/7/6 388/7/6 389/7/6
f 386/7/6 387/7/6 389/7/6
f 389/7/6 388/7/6 390/7/6
f 390/7/6 388/7/6 391/7/6
f 391/7/6 388/7/6 392/7/6
f 390/7/6 391/7/6 393/7/6
f 393/7/6 391/7/6 394/7/6
