# MagicaVoxel @ Ephtracy

# group
o 

# material
mtllib Road_turn_1.mtl
usemtl palette

# normals
vn -1 0 0
vn 1 0 0
vn 0 0 1
vn 0 0 -1
vn 0 -1 0
vn 0 1 0

# texcoords
vt 0.302734 0.5
vt 0.341797 0.5
vt 0.369141 0.5
vt 0.373047 0.5
vt 0.537109 0.5
vt 0.607422 0.5
vt 0.748047 0.5

# verts
v -0.8 0 0.8
v -0.8 0 -0.8
v -0.8 0.1 0.2
v -0.8 0.1 0.1
v -0.8 0.1 -0.1
v -0.8 0.1 -0.2
v -0.8 0.2 0.8
v -0.8 0.2 0.2
v -0.8 0.2 0.1
v -0.8 0.2 -0.1
v -0.8 0.2 -0.2
v -0.8 0.2 -0.8
v -0.6 0.2 0.6
v -0.6 0.2 0.4
v -0.6 0.3 0.6
v -0.6 0.3 0.4
v -0.3 0.5 0.6
v -0.3 0.5 0.5
v -0.3 0.6 0.6
v -0.3 0.6 0.5
v -0.2 0.2 0.6
v -0.2 0.2 0.5
v -0.2 0.2 0.3
v -0.2 0.2 0.2
v -0.2 0.3 0.3
v -0.2 0.3 0.2
v -0.2 0.5 0.7
v -0.2 0.5 0.6
v -0.2 0.5 0.5
v -0.2 0.5 0.4
v -0.2 0.6 0.7
v -0.2 0.6 0.6
v -0.2 0.6 0.5
v -0.2 0.6 0.4
v -0.2 0.7 0.6
v -0.2 0.7 0.5
v 0 0.2 0.2
v 0 0.2 0
v 0 0.4 0.2
v 0 0.4 0
v 0.2 0.4 0.5
v 0.2 0.4 0.4
v 0.2 0.6 0.5
v 0.2 0.6 0.4
v 0.3 0.2 0.5
v 0.3 0.2 0.4
v 0.3 0.4 0.6
v 0.3 0.4 0.5
v 0.3 0.4 0.4
v 0.3 0.4 0.3
v 0.3 0.4 -0.1
v 0.3 0.4 -0.2
v 0.3 0.5 -0.1
v 0.3 0.5 -0.2
v 0.3 0.6 0.6
v 0.3 0.6 0.5
v 0.3 0.6 0.4
v 0.3 0.6 0.3
v 0.3 0.7 0.5
v 0.3 0.7 0.4
v 0.4 0.2 -0.1
v 0.4 0.2 -0.2
v 0.4 0.2 -0.5
v 0.4 0.2 -0.6
v 0.4 0.3 -0.5
v 0.4 0.3 -0.6
v 0.4 0.4 0
v 0.4 0.4 -0.1
v 0.4 0.4 -0.2
v 0.4 0.4 -0.3
v 0.4 0.5 0
v 0.4 0.5 -0.1
v 0.4 0.5 -0.2
v 0.4 0.5 -0.3
v 0.4 0.6 -0.1
v 0.4 0.6 -0.2
v 0.5 0.2 0.3
v 0.5 0.2 0.2
v 0.5 0.2 -0.6
v 0.5 0.2 -0.7
v 0.5 0.3 0.3
v 0.5 0.3 0.2
v 0.5 0.3 -0.5
v 0.5 0.3 -0.6
v 0.5 0.3 -0.7
v 0.5 0.4 -0.5
v 0.5 0.4 -0.6
v -0.5 0.2 0.6
v -0.5 0.2 0.5
v -0.5 0.3 0.6
v -0.5 0.3 0.5
v -0.4 0.2 0.5
v -0.4 0.2 0.4
v -0.4 0.3 0.5
v -0.4 0.3 0.4
v -0.1 0.2 0.6
v -0.1 0.2 0.5
v -0.1 0.2 0.3
v -0.1 0.2 0.2
v -0.1 0.3 0.3
v -0.1 0.3 0.2
v -0.1 0.5 0.7
v -0.1 0.5 0.6
v -0.1 0.5 0.5
v -0.1 0.5 0.4
v -0.1 0.6 0.7
v -0.1 0.6 0.6
v -0.1 0.6 0.5
v -0.1 0.6 0.4
v -0.1 0.7 0.6
v -0.1 0.7 0.5
v 0 0.5 0.6
v 0 0.5 0.5
v 0 0.6 0.6
v 0 0.6 0.5
v 0.2 0.2 0.2
v 0.2 0.2 0
v 0.2 0.4 0.2
v 0.2 0.4 0
v 0.4 0.2 0.5
v 0.4 0.2 0.4
v 0.4 0.4 0.6
v 0.4 0.4 0.5
v 0.4 0.4 0.4
v 0.4 0.4 0.3
v 0.4 0.6 0.6
v 0.4 0.6 0.5
v 0.4 0.6 0.4
v 0.4 0.6 0.3
v 0.4 0.7 0.5
v 0.4 0.7 0.4
v 0.5 0.2 -0.1
v 0.5 0.2 -0.2
v 0.5 0.4 0.5
v 0.5 0.4 0.4
v 0.5 0.4 0
v 0.5 0.4 -0.1
v 0.5 0.4 -0.2
v 0.5 0.4 -0.3
v 0.5 0.5 0
v 0.5 0.5 -0.1
v 0.5 0.5 -0.2
v 0.5 0.5 -0.3
v 0.5 0.6 0.5
v 0.5 0.6 0.4
v 0.5 0.6 -0.1
v 0.5 0.6 -0.2
v 0.6 0.2 0.3
v 0.6 0.2 0.2
v 0.6 0.2 -0.5
v 0.6 0.2 -0.7
v 0.6 0.3 0.3
v 0.6 0.3 0.2
v 0.6 0.3 -0.6
v 0.6 0.3 -0.7
v 0.6 0.4 -0.1
v 0.6 0.4 -0.2
v 0.6 0.4 -0.5
v 0.6 0.4 -0.6
v 0.6 0.5 -0.1
v 0.6 0.5 -0.2
v 0.8 0 0.8
v 0.8 0 -0.8
v 0.8 0.2 0.8
v 0.8 0.2 -0.8
v -0.8 0 0.8
v -0.8 0.2 0.8
v 0.8 0 0.8
v 0.8 0.2 0.8
v -0.2 0.5 0.7
v -0.2 0.6 0.7
v -0.1 0.5 0.7
v -0.1 0.6 0.7
v -0.6 0.2 0.6
v -0.6 0.3 0.6
v -0.5 0.2 0.6
v -0.5 0.3 0.6
v -0.3 0.5 0.6
v -0.3 0.6 0.6
v -0.2 0.2 0.6
v -0.2 0.5 0.6
v -0.2 0.6 0.6
v -0.2 0.7 0.6
v -0.1 0.2 0.6
v -0.1 0.5 0.6
v -0.1 0.6 0.6
v -0.1 0.7 0.6
v 0 0.5 0.6
v 0 0.6 0.6
v 0.3 0.4 0.6
v 0.3 0.6 0.6
v 0.4 0.4 0.6
v 0.4 0.6 0.6
v -0.5 0.2 0.5
v -0.5 0.3 0.5
v -0.4 0.2 0.5
v -0.4 0.3 0.5
v 0.2 0.4 0.5
v 0.2 0.6 0.5
v 0.3 0.2 0.5
v 0.3 0.4 0.5
v 0.3 0.6 0.5
v 0.3 0.7 0.5
v 0.4 0.2 0.5
v 0.4 0.4 0.5
v 0.4 0.6 0.5
v 0.4 0.7 0.5
v 0.5 0.4 0.5
v 0.5 0.6 0.5
v -0.2 0.2 0.3
v -0.2 0.3 0.3
v -0.1 0.2 0.3
v -0.1 0.3 0.3
v 0.5 0.2 0.3
v 0.5 0.3 0.3
v 0.6 0.2 0.3
v 0.6 0.3 0.3
v 0 0.2 0.2
v 0 0.4 0.2
v 0.2 0.2 0.2
v 0.2 0.4 0.2
v 0.4 0.4 0
v 0.4 0.5 0
v 0.5 0.4 0
v 0.5 0.5 0
v 0.3 0.4 -0.1
v 0.3 0.5 -0.1
v 0.4 0.2 -0.1
v 0.4 0.4 -0.1
v 0.4 0.5 -0.1
v 0.4 0.6 -0.1
v 0.5 0.2 -0.1
v 0.5 0.4 -0.1
v 0.5 0.5 -0.1
v 0.5 0.6 -0.1
v 0.6 0.4 -0.1
v 0.6 0.5 -0.1
v 0.4 0.2 -0.5
v 0.4 0.3 -0.5
v 0.5 0.3 -0.5
v 0.5 0.4 -0.5
v 0.6 0.2 -0.5
v 0.6 0.4 -0.5
v -0.3 0.5 0.5
v -0.3 0.6 0.5
v -0.2 0.2 0.5
v -0.2 0.5 0.5
v -0.2 0.6 0.5
v -0.2 0.7 0.5
v -0.1 0.2 0.5
v -0.1 0.5 0.5
v -0.1 0.6 0.5
v -0.1 0.7 0.5
v 0 0.5 0.5
v 0 0.6 0.5
v -0.6 0.2 0.4
v -0.6 0.3 0.4
v -0.4 0.2 0.4
v -0.4 0.3 0.4
v -0.2 0.5 0.4
v -0.2 0.6 0.4
v -0.1 0.5 0.4
v -0.1 0.6 0.4
v 0.2 0.4 0.4
v 0.2 0.6 0.4
v 0.3 0.2 0.4
v 0.3 0.4 0.4
v 0.3 0.6 0.4
v 0.3 0.7 0.4
v 0.4 0.2 0.4
v 0.4 0.4 0.4
v 0.4 0.6 0.4
v 0.4 0.7 0.4
v 0.5 0.4 0.4
v 0.5 0.6 0.4
v 0.3 0.4 0.3
v 0.3 0.6 0.3
v 0.4 0.4 0.3
v 0.4 0.6 0.3
v -0.2 0.2 0.2
v -0.2 0.3 0.2
v -0.1 0.2 0.2
v -0.1 0.3 0.2
v 0.5 0.2 0.2
v 0.5 0.3 0.2
v 0.6 0.2 0.2
v 0.6 0.3 0.2
v 0 0.2 0
v 0 0.4 0
v 0.2 0.2 0
v 0.2 0.4 0
v 0.3 0.4 -0.2
v 0.3 0.5 -0.2
v 0.4 0.2 -0.2
v 0.4 0.4 -0.2
v 0.4 0.5 -0.2
v 0.4 0.6 -0.2
v 0.5 0.2 -0.2
v 0.5 0.4 -0.2
v 0.5 0.5 -0.2
v 0.5 0.6 -0.2
v 0.6 0.4 -0.2
v 0.6 0.5 -0.2
v 0.4 0.4 -0.3
v 0.4 0.5 -0.3
v 0.5 0.4 -0.3
v 0.5 0.5 -0.3
v 0.4 0.2 -0.6
v 0.4 0.3 -0.6
v 0.5 0.2 -0.6
v 0.5 0.3 -0.6
v 0.5 0.4 -0.6
v 0.6 0.3 -0.6
v 0.6 0.4 -0.6
v 0.5 0.2 -0.7
v 0.5 0.3 -0.7
v 0.6 0.2 -0.7
v 0.6 0.3 -0.7
v -0.8 0 -0.8
v -0.8 0.2 -0.8
v -0.2 0.1 -0.8
v -0.2 0.2 -0.8
v -0.1 0.1 -0.8
v -0.1 0.2 -0.8
v 0.1 0.1 -0.8
v 0.1 0.2 -0.8
v 0.2 0.1 -0.8
v 0.2 0.2 -0.8
v 0.8 0 -0.8
v 0.8 0.2 -0.8
v -0.8 0 0.8
v 0.8 0 0.8
v -0.8 0 -0.8
v 0.8 0 -0.8
v 0.3 0.4 0.6
v 0.4 0.4 0.6
v 0.2 0.4 0.5
v 0.3 0.4 0.5
v 0.4 0.4 0.5
v 0.5 0.4 0.5
v 0.2 0.4 0.4
v 0.3 0.4 0.4
v 0.4 0.4 0.4
v 0.5 0.4 0.4
v 0.3 0.4 0.3
v 0.4 0.4 0.3
v 0.4 0.4 0
v 0.5 0.4 0
v 0.3 0.4 -0.1
v 0.4 0.4 -0.1
v 0.5 0.4 -0.1
v 0.6 0.4 -0.1
v 0.3 0.4 -0.2
v 0.4 0.4 -0.2
v 0.5 0.4 -0.2
v 0.6 0.4 -0.2
v 0.4 0.4 -0.3
v 0.5 0.4 -0.3
v -0.2 0.5 0.7
v -0.1 0.5 0.7
v -0.3 0.5 0.6
v -0.2 0.5 0.6
v -0.1 0.5 0.6
v 0 0.5 0.6
v -0.3 0.5 0.5
v -0.2 0.5 0.5
v -0.1 0.5 0.5
v 0 0.5 0.5
v -0.2 0.5 0.4
v -0.1 0.5 0.4
v -0.8 0.2 0.8
v 0.8 0.2 0.8
v -0.6 0.2 0.6
v -0.5 0.2 0.6
v -0.2 0.2 0.6
v -0.1 0.2 0.6
v -0.5 0.2 0.5
v -0.4 0.2 0.5
v -0.2 0.2 0.5
v -0.1 0.2 0.5
v 0.3 0.2 0.5
v 0.4 0.2 0.5
v -0.6 0.2 0.4
v -0.4 0.2 0.4
v 0.3 0.2 0.4
v 0.4 0.2 0.4
v -0.2 0.2 0.3
v -0.1 0.2 0.3
v 0.5 0.2 0.3
v 0.6 0.2 0.3
v -0.8 0.2 0.2
v -0.4 0.2 0.2
v -0.2 0.2 0.2
v -0.1 0.2 0.2
v 0 0.2 0.2
v 0.2 0.2 0.2
v 0.5 0.2 0.2
v 0.6 0.2 0.2
v -0.8 0.2 0.1
v -0.6 0.2 0.1
v -0.5 0.2 0.1
v -0.4 0.2 0.1
v -0.3 0.2 0.1
v -0.6 0.2 0
v -0.5 0.2 0
v 0 0.2 0
v 0.2 0.2 0
v -0.8 0.2 -0.1
v -0.7 0.2 -0.1
v -0.4 0.2 -0.1
v -0.3 0.2 -0.1
v -0.2 0.2 -0.1
v 0.4 0.2 -0.1
v 0.5 0.2 -0.1
v -0.8 0.2 -0.2
v -0.7 0.2 -0.2
v -0.6 0.2 -0.2
v -0.5 0.2 -0.2
v -0.4 0.2 -0.2
v -0.3 0.2 -0.2
v -0.2 0.2 -0.2
v 0 0.2 -0.2
v 0.4 0.2 -0.2
v 0.5 0.2 -0.2
v -0.7 0.2 -0.3
v -0.6 0.2 -0.3
v -0.5 0.2 -0.3
v -0.4 0.2 -0.3
v -0.2 0.2 -0.3
v -0.1 0.2 -0.3
v 0 0.2 -0.3
v 0.1 0.2 -0.3
v -0.6 0.2 -0.4
v -0.4 0.2 -0.4
v -0.3 0.2 -0.4
v -0.2 0.2 -0.4
v -0.1 0.2 -0.4
v 0 0.2 -0.4
v -0.4 0.2 -0.5
v -0.3 0.2 -0.5
v -0.2 0.2 -0.5
v 0 0.2 -0.5
v 0.1 0.2 -0.5
v 0.2 0.2 -0.5
v 0.4 0.2 -0.5
v 0.6 0.2 -0.5
v -0.3 0.2 -0.6
v -0.2 0.2 -0.6
v -0.1 0.2 -0.6
v 0 0.2 -0.6
v 0.1 0.2 -0.6
v 0.4 0.2 -0.6
v 0.5 0.2 -0.6
v 0 0.2 -0.7
v 0.1 0.2 -0.7
v 0.5 0.2 -0.7
v 0.6 0.2 -0.7
v -0.8 0.2 -0.8
v -0.2 0.2 -0.8
v -0.1 0.2 -0.8
v 0.1 0.2 -0.8
v 0.2 0.2 -0.8
v 0.8 0.2 -0.8
v -0.6 0.3 0.6
v -0.5 0.3 0.6
v -0.5 0.3 0.5
v -0.4 0.3 0.5
v -0.6 0.3 0.4
v -0.4 0.3 0.4
v -0.2 0.3 0.3
v -0.1 0.3 0.3
v 0.5 0.3 0.3
v 0.6 0.3 0.3
v -0.2 0.3 0.2
v -0.1 0.3 0.2
v 0.5 0.3 0.2
v 0.6 0.3 0.2
v 0.4 0.3 -0.5
v 0.5 0.3 -0.5
v 0.4 0.3 -0.6
v 0.5 0.3 -0.6
v 0.6 0.3 -0.6
v 0.5 0.3 -0.7
v 0.6 0.3 -0.7
v 0 0.4 0.2
v 0.2 0.4 0.2
v 0 0.4 0
v 0.2 0.4 0
v 0.5 0.4 -0.5
v 0.6 0.4 -0.5
v 0.5 0.4 -0.6
v 0.6 0.4 -0.6
v 0.4 0.5 0
v 0.5 0.5 0
v 0.3 0.5 -0.1
v 0.4 0.5 -0.1
v 0.5 0.5 -0.1
v 0.6 0.5 -0.1
v 0.3 0.5 -0.2
v 0.4 0.5 -0.2
v 0.5 0.5 -0.2
v 0.6 0.5 -0.2
v 0.4 0.5 -0.3
v 0.5 0.5 -0.3
v -0.2 0.6 0.7
v -0.1 0.6 0.7
v -0.3 0.6 0.6
v -0.2 0.6 0.6
v -0.1 0.6 0.6
v 0 0.6 0.6
v 0.3 0.6 0.6
v 0.4 0.6 0.6
v -0.3 0.6 0.5
v -0.2 0.6 0.5
v -0.1 0.6 0.5
v 0 0.6 0.5
v 0.2 0.6 0.5
v 0.3 0.6 0.5
v 0.4 0.6 0.5
v 0.5 0.6 0.5
v -0.2 0.6 0.4
v -0.1 0.6 0.4
v 0.2 0.6 0.4
v 0.3 0.6 0.4
v 0.4 0.6 0.4
v 0.5 0.6 0.4
v 0.3 0.6 0.3
v 0.4 0.6 0.3
v 0.4 0.6 -0.1
v 0.5 0.6 -0.1
v 0.4 0.6 -0.2
v 0.5 0.6 -0.2
v -0.2 0.7 0.6
v -0.1 0.7 0.6
v -0.2 0.7 0.5
v -0.1 0.7 0.5
v 0.3 0.7 0.5
v 0.4 0.7 0.5
v 0.3 0.7 0.4
v 0.4 0.7 0.4

# faces
f 3/1/1 2/1/1 1/1/1
f 4/1/1 2/1/1 3/1/1
f 5/1/1 2/1/1 4/1/1
f 6/1/1 2/1/1 5/1/1
f 7/1/1 3/1/1 1/1/1
f 8/4/1 4/4/1 3/4/1
f 8/1/1 3/1/1 7/1/1
f 9/3/1 5/3/1 4/3/1
f 9/4/1 4/4/1 8/4/1
f 10/4/1 6/4/1 5/4/1
f 10/3/1 5/3/1 9/3/1
f 11/1/1 2/1/1 6/1/1
f 11/4/1 6/4/1 10/4/1
f 12/1/1 2/1/1 11/1/1
f 15/7/1 14/7/1 13/7/1
f 16/7/1 14/7/1 15/7/1
f 19/7/1 18/7/1 17/7/1
f 20/7/1 18/7/1 19/7/1
f 25/2/1 24/2/1 23/2/1
f 26/2/1 24/2/1 25/2/1
f 28/5/1 22/5/1 21/5/1
f 29/5/1 22/5/1 28/5/1
f 31/7/1 28/7/1 27/7/1
f 32/7/1 28/7/1 31/7/1
f 33/7/1 30/7/1 29/7/1
f 34/7/1 30/7/1 33/7/1
f 35/7/1 33/7/1 32/7/1
f 36/7/1 33/7/1 35/7/1
f 39/2/1 38/2/1 37/2/1
f 40/2/1 38/2/1 39/2/1
f 43/6/1 42/6/1 41/6/1
f 44/6/1 42/6/1 43/6/1
f 48/5/1 46/5/1 45/5/1
f 49/5/1 46/5/1 48/5/1
f 53/6/1 52/6/1 51/6/1
f 54/6/1 52/6/1 53/6/1
f 55/6/1 48/6/1 47/6/1
f 56/6/1 48/6/1 55/6/1
f 57/6/1 50/6/1 49/6/1
f 58/6/1 50/6/1 57/6/1
f 59/6/1 57/6/1 56/6/1
f 60/6/1 57/6/1 59/6/1
f 65/7/1 64/7/1 63/7/1
f 66/7/1 64/7/1 65/7/1
f 68/5/1 62/5/1 61/5/1
f 69/5/1 62/5/1 68/5/1
f 71/6/1 68/6/1 67/6/1
f 72/6/1 68/6/1 71/6/1
f 73/6/1 70/6/1 69/6/1
f 74/6/1 70/6/1 73/6/1
f 75/6/1 73/6/1 72/6/1
f 76/6/1 73/6/1 75/6/1
f 81/2/1 78/2/1 77/2/1
f 82/2/1 78/2/1 81/2/1
f 84/7/1 80/7/1 79/7/1
f 85/7/1 80/7/1 84/7/1
f 86/7/1 84/7/1 83/7/1
f 87/7/1 84/7/1 86/7/1
f 88/7/2 89/7/2 90/7/2
f 90/7/2 89/7/2 91/7/2
f 92/7/2 93/7/2 94/7/2
f 94/7/2 93/7/2 95/7/2
f 98/2/2 99/2/2 100/2/2
f 100/2/2 99/2/2 101/2/2
f 96/5/2 97/5/2 103/5/2
f 103/5/2 97/5/2 104/5/2
f 102/7/2 103/7/2 106/7/2
f 106/7/2 103/7/2 107/7/2
f 104/7/2 105/7/2 108/7/2
f 108/7/2 105/7/2 109/7/2
f 107/7/2 108/7/2 110/7/2
f 110/7/2 108/7/2 111/7/2
f 112/7/2 113/7/2 114/7/2
f 114/7/2 113/7/2 115/7/2
f 116/2/2 117/2/2 118/2/2
f 118/2/2 117/2/2 119/2/2
f 120/5/2 121/5/2 123/5/2
f 123/5/2 121/5/2 124/5/2
f 122/6/2 123/6/2 126/6/2
f 126/6/2 123/6/2 127/6/2
f 124/6/2 125/6/2 128/6/2
f 128/6/2 125/6/2 129/6/2
f 127/6/2 128/6/2 130/6/2
f 130/6/2 128/6/2 131/6/2
f 132/5/2 133/5/2 137/5/2
f 137/5/2 133/5/2 138/5/2
f 136/6/2 137/6/2 140/6/2
f 140/6/2 137/6/2 141/6/2
f 138/6/2 139/6/2 142/6/2
f 142/6/2 139/6/2 143/6/2
f 134/6/2 135/6/2 144/6/2
f 144/6/2 135/6/2 145/6/2
f 141/6/2 142/6/2 146/6/2
f 146/6/2 142/6/2 147/6/2
f 148/2/2 149/2/2 152/2/2
f 152/2/2 149/2/2 153/2/2
f 150/7/2 151/7/2 154/7/2
f 154/7/2 151/7/2 155/7/2
f 150/7/2 154/7/2 158/7/2
f 158/7/2 154/7/2 159/7/2
f 156/6/2 157/6/2 160/6/2
f 160/6/2 157/6/2 161/6/2
f 162/1/2 163/1/2 164/1/2
f 164/1/2 163/1/2 165/1/2
f 168/1/3 167/1/3 166/1/3
f 169/1/3 167/1/3 168/1/3
f 172/7/3 171/7/3 170/7/3
f 173/7/3 171/7/3 172/7/3
f 176/7/3 175/7/3 174/7/3
f 177/7/3 175/7/3 176/7/3
f 181/7/3 179/7/3 178/7/3
f 182/7/3 179/7/3 181/7/3
f 184/5/3 181/5/3 180/5/3
f 185/5/3 181/5/3 184/5/3
f 186/7/3 183/7/3 182/7/3
f 187/7/3 183/7/3 186/7/3
f 188/7/3 186/7/3 185/7/3
f 189/7/3 186/7/3 188/7/3
f 192/6/3 191/6/3 190/6/3
f 193/6/3 191/6/3 192/6/3
f 196/7/3 195/7/3 194/7/3
f 197/7/3 195/7/3 196/7/3
f 201/6/3 199/6/3 198/6/3
f 202/6/3 199/6/3 201/6/3
f 204/5/3 201/5/3 200/5/3
f 205/5/3 201/5/3 204/5/3
f 206/6/3 203/6/3 202/6/3
f 207/6/3 203/6/3 206/6/3
f 208/6/3 206/6/3 205/6/3
f 209/6/3 206/6/3 208/6/3
f 212/2/3 211/2/3 210/2/3
f 213/2/3 211/2/3 212/2/3
f 216/2/3 215/2/3 214/2/3
f 217/2/3 215/2/3 216/2/3
f 220/2/3 219/2/3 218/2/3
f 221/2/3 219/2/3 220/2/3
f 224/6/3 223/6/3 222/6/3
f 225/6/3 223/6/3 224/6/3
f 229/6/3 227/6/3 226/6/3
f 230/6/3 227/6/3 229/6/3
f 232/5/3 229/5/3 228/5/3
f 233/5/3 229/5/3 232/5/3
f 234/6/3 231/6/3 230/6/3
f 235/6/3 231/6/3 234/6/3
f 236/6/3 234/6/3 233/6/3
f 237/6/3 234/6/3 236/6/3
f 240/7/3 239/7/3 238/7/3
f 242/7/3 240/7/3 238/7/3
f 242/7/3 241/7/3 240/7/3
f 243/7/3 241/7/3 242/7/3
f 244/7/4 245/7/4 247/7/4
f 247/7/4 245/7/4 248/7/4
f 246/5/4 247/5/4 250/5/4
f 250/5/4 247/5/4 251/5/4
f 248/7/4 249/7/4 252/7/4
f 252/7/4 249/7/4 253/7/4
f 251/7/4 252/7/4 254/7/4
f 254/7/4 252/7/4 255/7/4
f 256/7/4 257/7/4 258/7/4
f 258/7/4 257/7/4 259/7/4
f 260/7/4 261/7/4 262/7/4
f 262/7/4 261/7/4 263/7/4
f 264/6/4 265/6/4 267/6/4
f 267/6/4 265/6/4 268/6/4
f 266/5/4 267/5/4 270/5/4
f 270/5/4 267/5/4 271/5/4
f 268/6/4 269/6/4 272/6/4
f 272/6/4 269/6/4 273/6/4
f 271/6/4 272/6/4 274/6/4
f 274/6/4 272/6/4 275/6/4
f 276/6/4 277/6/4 278/6/4
f 278/6/4 277/6/4 279/6/4
f 280/2/4 281/2/4 282/2/4
f 282/2/4 281/2/4 283/2/4
f 284/2/4 285/2/4 286/2/4
f 286/2/4 285/2/4 287/2/4
f 288/2/4 289/2/4 290/2/4
f 290/2/4 289/2/4 291/2/4
f 292/6/4 293/6/4 295/6/4
f 295/6/4 293/6/4 296/6/4
f 294/5/4 295/5/4 298/5/4
f 298/5/4 295/5/4 299/5/4
f 296/6/4 297/6/4 300/6/4
f 300/6/4 297/6/4 301/6/4
f 299/6/4 300/6/4 302/6/4
f 302/6/4 300/6/4 303/6/4
f 304/6/4 305/6/4 306/6/4
f 306/6/4 305/6/4 307/6/4
f 308/7/4 309/7/4 310/7/4
f 310/7/4 309/7/4 311/7/4
f 311/7/4 312/7/4 313/7/4
f 313/7/4 312/7/4 314/7/4
f 315/7/4 316/7/4 317/7/4
f 317/7/4 316/7/4 318/7/4
f 319/1/4 320/1/4 321/1/4
f 321/1/4 320/1/4 322/1/4
f 319/1/4 321/1/4 323/1/4
f 321/4/4 322/4/4 323/4/4
f 323/4/4 322/4/4 324/4/4
f 319/1/4 323/1/4 325/1/4
f 323/3/4 324/3/4 325/3/4
f 325/3/4 324/3/4 326/3/4
f 319/1/4 325/1/4 327/1/4
f 325/4/4 326/4/4 327/4/4
f 327/4/4 326/4/4 328/4/4
f 319/1/4 327/1/4 329/1/4
f 327/1/4 328/1/4 329/1/4
f 329/1/4 328/1/4 330/1/4
f 333/1/5 332/1/5 331/1/5
f 334/1/5 332/1/5 333/1/5
f 338/6/5 336/6/5 335/6/5
f 339/6/5 336/6/5 338/6/5
f 341/6/5 338/6/5 337/6/5
f 342/6/5 338/6/5 341/6/5
f 343/6/5 340/6/5 339/6/5
f 344/6/5 340/6/5 343/6/5
f 345/6/5 343/6/5 342/6/5
f 346/6/5 343/6/5 345/6/5
f 350/6/5 348/6/5 347/6/5
f 351/6/5 348/6/5 350/6/5
f 353/6/5 350/6/5 349/6/5
f 354/6/5 350/6/5 353/6/5
f 355/6/5 352/6/5 351/6/5
f 356/6/5 352/6/5 355/6/5
f 357/6/5 355/6/5 354/6/5
f 358/6/5 355/6/5 357/6/5
f 362/7/5 360/7/5 359/7/5
f 363/7/5 360/7/5 362/7/5
f 365/7/5 362/7/5 361/7/5
f 366/7/5 362/7/5 365/7/5
f 367/7/5 364/7/5 363/7/5
f 368/7/5 364/7/5 367/7/5
f 369/7/5 367/7/5 366/7/5
f 370/7/5 367/7/5 369/7/5
f 371/1/6 372/1/6 373/1/6
f 373/1/6 372/1/6 374/1/6
f 374/1/6 372/1/6 375/1/6
f 375/1/6 372/1/6 376/1/6
f 374/1/6 375/1/6 377/1/6
f 377/1/6 375/1/6 378/1/6
f 378/1/6 375/1/6 379/1/6
f 376/1/6 372/1/6 380/1/6
f 380/1/6 372/1/6 381/1/6
f 381/1/6 372/1/6 382/1/6
f 371/1/6 373/1/6 383/1/6
f 378/1/6 379/1/6 384/1/6
f 380/1/6 381/1/6 384/1/6
f 379/1/6 380/1/6 384/1/6
f 384/1/6 381/1/6 385/1/6
f 382/1/6 372/1/6 386/1/6
f 384/1/6 385/1/6 387/1/6
f 385/1/6 386/1/6 387/1/6
f 383/1/6 384/1/6 387/1/6
f 387/1/6 386/1/6 388/1/6
f 386/1/6 372/1/6 389/1/6
f 388/1/6 386/1/6 389/1/6
f 389/1/6 372/1/6 390/1/6
f 371/1/6 383/1/6 391/1/6
f 383/1/6 387/1/6 391/1/6
f 391/1/6 387/1/6 392/1/6
f 392/1/6 387/1/6 393/1/6
f 388/1/6 389/1/6 394/1/6
f 394/1/6 389/1/6 395/1/6
f 395/1/6 389/1/6 396/1/6
f 396/1/6 389/1/6 397/1/6
f 390/1/6 372/1/6 398/1/6
f 391/4/6 392/4/6 399/4/6
f 399/4/6 392/4/6 400/4/6
f 400/4/6 392/4/6 401/4/6
f 392/1/6 393/1/6 402/1/6
f 401/4/6 392/4/6 402/4/6
f 393/1/6 394/1/6 402/1/6
f 394/1/6 395/1/6 402/1/6
f 402/1/6 395/1/6 403/1/6
f 400/2/6 401/2/6 404/2/6
f 399/3/6 400/3/6 404/3/6
f 401/3/6 402/3/6 405/3/6
f 404/2/6 401/2/6 405/2/6
f 403/1/6 395/1/6 406/1/6
f 396/1/6 397/1/6 407/1/6
f 397/1/6 398/1/6 407/1/6
f 404/3/6 405/3/6 408/3/6
f 399/3/6 404/3/6 408/3/6
f 408/3/6 405/3/6 409/3/6
f 405/3/6 402/3/6 410/3/6
f 409/3/6 405/3/6 410/3/6
f 402/4/6 403/4/6 410/4/6
f 403/1/6 406/1/6 411/1/6
f 410/4/6 403/4/6 411/4/6
f 406/1/6 407/1/6 411/1/6
f 411/1/6 407/1/6 412/1/6
f 407/1/6 398/1/6 413/1/6
f 412/1/6 407/1/6 413/1/6
f 413/1/6 398/1/6 414/1/6
f 408/4/6 409/4/6 415/4/6
f 409/3/6 410/3/6 416/3/6
f 415/4/6 409/4/6 416/4/6
f 416/3/6 410/3/6 417/3/6
f 417/3/6 410/3/6 418/3/6
f 410/2/6 411/2/6 419/2/6
f 418/3/6 410/3/6 419/3/6
f 411/4/6 412/4/6 420/4/6
f 419/2/6 411/2/6 420/2/6
f 412/1/6 413/1/6 421/1/6
f 420/4/6 412/4/6 421/4/6
f 421/1/6 413/1/6 422/1/6
f 422/1/6 413/1/6 423/1/6
f 414/1/6 398/1/6 424/1/6
f 415/1/6 416/1/6 425/1/6
f 416/4/6 417/4/6 425/4/6
f 417/2/6 418/2/6 426/2/6
f 425/4/6 417/4/6 426/4/6
f 418/3/6 419/3/6 427/3/6
f 426/2/6 418/2/6 427/2/6
f 419/3/6 420/3/6 427/3/6
f 420/3/6 421/3/6 427/3/6
f 427/3/6 421/3/6 428/3/6
f 421/4/6 422/4/6 429/4/6
f 428/3/6 421/3/6 429/3/6
f 429/4/6 422/4/6 430/4/6
f 422/1/6 423/1/6 431/1/6
f 430/4/6 422/4/6 431/4/6
f 423/1/6 424/1/6 431/1/6
f 431/1/6 424/1/6 432/1/6
f 425/1/6 426/1/6 433/1/6
f 427/4/6 428/4/6 433/4/6
f 426/4/6 427/4/6 433/4/6
f 429/3/6 430/3/6 434/3/6
f 433/4/6 428/4/6 434/4/6
f 428/3/6 429/3/6 434/3/6
f 434/3/6 430/3/6 435/3/6
f 435/3/6 430/3/6 436/3/6
f 430/2/6 431/2/6 437/2/6
f 436/3/6 430/3/6 437/3/6
f 431/4/6 432/4/6 438/4/6
f 437/2/6 431/2/6 438/2/6
f 433/1/6 434/1/6 439/1/6
f 434/4/6 435/4/6 439/4/6
f 435/2/6 436/2/6 440/2/6
f 439/4/6 435/4/6 440/4/6
f 436/3/6 437/3/6 441/3/6
f 440/2/6 436/2/6 441/2/6
f 437/3/6 438/3/6 441/3/6
f 438/4/6 432/4/6 442/4/6
f 441/3/6 438/3/6 442/3/6
f 432/1/6 424/1/6 443/1/6
f 442/4/6 432/4/6 443/4/6
f 443/1/6 424/1/6 444/1/6
f 444/1/6 424/1/6 445/1/6
f 398/1/6 372/1/6 446/1/6
f 445/1/6 424/1/6 446/1/6
f 424/1/6 398/1/6 446/1/6
f 439/1/6 440/1/6 447/1/6
f 440/4/6 441/4/6 447/4/6
f 441/3/6 442/3/6 448/3/6
f 447/4/6 441/4/6 448/4/6
f 442/3/6 443/3/6 448/3/6
f 448/3/6 443/3/6 449/3/6
f 449/3/6 443/3/6 450/3/6
f 443/4/6 444/4/6 451/4/6
f 450/3/6 443/3/6 451/3/6
f 444/1/6 445/1/6 452/1/6
f 449/3/6 450/3/6 454/3/6
f 450/2/6 451/2/6 454/2/6
f 451/4/6 444/4/6 455/4/6
f 454/2/6 451/2/6 455/2/6
f 452/1/6 453/1/6 456/1/6
f 446/1/6 372/1/6 457/1/6
f 425/1/6 433/1/6 458/1/6
f 439/1/6 447/1/6 458/1/6
f 415/1/6 425/1/6 458/1/6
f 433/1/6 439/1/6 458/1/6
f 447/1/6 448/1/6 458/1/6
f 448/4/6 449/4/6 459/4/6
f 458/1/6 448/1/6 459/1/6
f 449/3/6 454/3/6 460/3/6
f 459/4/6 449/4/6 460/4/6
f 454/3/6 455/3/6 460/3/6
f 455/4/6 444/4/6 461/4/6
f 460/3/6 455/3/6 461/3/6
f 456/1/6 457/1/6 462/1/6
f 461/4/6 444/4/6 462/4/6
f 452/1/6 456/1/6 462/1/6
f 444/1/6 452/1/6 462/1/6
f 457/1/6 372/1/6 463/1/6
f 462/1/6 457/1/6 463/1/6
f 464/7/6 465/7/6 466/7/6
f 464/7/6 466/7/6 468/7/6
f 466/7/6 467/7/6 468/7/6
f 468/7/6 467/7/6 469/7/6
f 470/2/6 471/2/6 474/2/6
f 474/2/6 471/2/6 475/2/6
f 472/2/6 473/2/6 476/2/6
f 476/2/6 473/2/6 477/2/6
f 478/7/6 479/7/6 480/7/6
f 480/7/6 479/7/6 481/7/6
f 481/7/6 482/7/6 483/7/6
f 483/7/6 482/7/6 484/7/6
f 485/2/6 486/2/6 487/2/6
f 487/2/6 486/2/6 488/2/6
f 489/7/6 490/7/6 491/7/6
f 491/7/6 490/7/6 492/7/6
f 493/6/6 494/6/6 496/6/6
f 496/6/6 494/6/6 497/6/6
f 495/6/6 496/6/6 499/6/6
f 499/6/6 496/6/6 500/6/6
f 497/6/6 498/6/6 501/6/6
f 501/6/6 498/6/6 502/6/6
f 500/6/6 501/6/6 503/6/6
f 503/6/6 501/6/6 504/6/6
f 505/7/6 506/7/6 508/7/6
f 508/7/6 506/7/6 509/7/6
f 507/7/6 508/7/6 513/7/6
f 513/7/6 508/7/6 514/7/6
f 509/7/6 510/7/6 515/7/6
f 515/7/6 510/7/6 516/7/6
f 511/6/6 512/6/6 518/6/6
f 518/6/6 512/6/6 519/6/6
f 514/7/6 515/7/6 521/7/6
f 521/7/6 515/7/6 522/7/6
f 517/6/6 518/6/6 523/6/6
f 523/6/6 518/6/6 524/6/6
f 519/6/6 520/6/6 525/6/6
f 525/6/6 520/6/6 526/6/6
f 524/6/6 525/6/6 527/6/6
f 527/6/6 525/6/6 528/6/6
f 529/6/6 530/6/6 531/6/6
f 531/6/6 530/6/6 532/6/6
f 533/7/6 534/7/6 535/7/6
f 535/7/6 534/7/6 536/7/6
f 537/6/6 538/6/6 539/6/6
f 539/6/6 538/6/6 540/6/6
